<svg width="827" height="768" viewBox="0 0 827 768" fill="none" xmlns="http://www.w3.org/2000/svg">
<path d="M921 174.5C921 253.827 883.376 324.366 825 369.246C783.599 401.076 731.759 420 675.5 420C539.914 420 430 310.086 430 174.5C430 105.397 458.551 42.9622 504.5 -1.65145C548.707 -44.5733 609.017 -71 675.5 -71C811.086 -71 921 38.9141 921 174.5Z" fill="#223298"/>
<path d="M476 717.5C476 844.802 372.802 948 245.5 948C118.198 948 15 844.802 15 717.5C15 590.198 118.198 487 245.5 487C372.802 487 476 590.198 476 717.5Z" stroke="#223298" stroke-width="30"/>
</svg>
