<svg width="716" height="417" viewBox="0 0 716 417" fill="none" xmlns="http://www.w3.org/2000/svg">
<g clip-path="url(#clip0_1_86)">
<path d="M650.44 86.6576C651.238 80.8389 643.025 76.0464 636.855 75.5552C633.906 75.315 630.848 75.7626 628.063 74.791C622.024 72.6841 619.61 64.8786 613.713 62.3895C609.301 60.5337 604.233 62.1821 599.952 64.3327C595.682 66.4833 591.455 69.1907 586.683 69.4964C582.533 69.7584 578.022 68.2191 574.386 70.2496C571.677 71.7561 570.258 74.8783 567.768 76.7233C565.321 78.5246 562.143 78.9066 559.107 79.0704C556.082 79.2341 552.937 79.2669 550.185 80.5332C547.421 81.7996 545.139 84.7144 545.718 87.6947L650.44 86.6576Z" fill="#F5F5F5"/>
<path d="M44.864 232.222L71.2057 228.194C73.4118 242.637 63.3425 256.348 48.883 258.554C34.4343 260.759 20.7174 250.693 18.5113 236.24C16.3052 221.797 26.3745 208.085 40.8341 205.88C43.1385 205.531 45.4756 205.476 47.7909 205.738L44.864 232.222Z" fill="#F5F5F5"/>
<path d="M53.4043 205.836L50.2044 226.251L70.2447 222.484C70.2556 222.484 67.3069 211.044 53.4043 205.836Z" fill="#E0E0E0"/>
<path d="M543.37 325.67C543.37 325.67 544.32 325.277 546.155 325.233C547.946 325.19 550.752 325.648 553.363 327.701C554.64 328.727 555.864 330.124 556.672 331.904C557.458 333.672 557.928 335.779 557.666 337.962C557.567 339.054 557.283 340.157 556.835 341.216C556.41 342.274 555.798 343.301 555.023 344.207C553.515 346.063 551.309 347.438 548.852 348.06C546.384 348.639 543.796 348.432 541.601 347.493C540.498 347.045 539.482 346.423 538.608 345.681C537.724 344.949 536.959 344.108 536.369 343.181C535.135 341.357 534.567 339.283 534.458 337.351C534.349 335.408 534.786 333.596 535.452 332.1C536.817 329.065 539.089 327.362 540.705 326.576C542.343 325.768 543.37 325.67 543.37 325.67C543.392 325.746 542.387 325.932 540.814 326.784C539.274 327.624 537.123 329.327 535.867 332.264C535.255 333.716 534.862 335.451 534.993 337.307C535.135 339.141 535.681 341.117 536.872 342.831C537.44 343.705 538.171 344.502 539.001 345.189C539.831 345.888 540.792 346.477 541.841 346.892C543.927 347.777 546.362 347.973 548.699 347.416C551.025 346.827 553.09 345.528 554.531 343.781C555.263 342.929 555.853 341.958 556.257 340.954C556.683 339.96 556.967 338.912 557.065 337.886C557.327 335.812 556.901 333.814 556.169 332.122C555.427 330.419 554.28 329.065 553.068 328.061C550.6 326.041 547.902 325.517 546.144 325.484C544.353 325.452 543.381 325.757 543.37 325.67Z" fill="#EBEBEB"/>
<path d="M292.173 343.737C292.271 345.113 292.348 345.844 292.413 345.844C292.479 345.844 292.479 346.576 292.435 347.973C292.424 348.672 292.38 349.534 292.195 350.549C292.042 351.565 291.9 352.744 291.518 354.021C290.928 356.619 289.694 359.698 287.739 362.951C285.762 366.193 282.912 369.577 279.035 372.438C275.169 375.265 270.287 377.645 264.663 378.54C259.082 379.403 252.791 379.119 246.828 376.728C243.825 375.614 240.942 373.977 238.299 371.914H234.586C235.743 369.719 236.934 370.931 238.299 371.914C240.942 373.977 243.825 375.614 246.828 376.728C252.791 379.119 259.082 379.403 264.663 378.54C270.287 377.645 275.169 375.265 279.035 372.438C282.912 369.577 285.762 366.193 287.739 362.951C289.694 359.698 290.928 356.619 291.518 354.021C291.9 352.744 292.042 351.565 292.195 350.549C292.38 349.534 292.424 348.672 292.435 347.973C292.479 346.576 292.479 345.844 292.413 345.844C292.348 345.844 292.228 346.576 292.086 347.94C292.02 348.628 291.922 349.48 291.681 350.462C291.474 351.456 291.277 352.602 290.851 353.835C290.163 356.357 288.864 359.305 286.887 362.416C284.899 365.516 282.071 368.726 278.292 371.401C274.524 374.053 269.817 376.259 264.433 377.055C259.093 377.82 253.097 377.492 247.451 375.167C244.6 374.097 241.87 372.514 239.38 370.549C238.091 369.621 236.978 368.453 235.798 367.339C234.75 366.106 233.636 364.894 232.729 363.508C228.885 358.115 226.81 351.27 226.919 344.261C227.159 337.253 229.551 330.517 233.658 325.321C234.629 323.967 235.798 322.821 236.912 321.642C238.135 320.583 239.315 319.48 240.647 318.607C243.224 316.762 246.031 315.31 248.925 314.382C254.67 312.341 260.676 312.308 265.973 313.323C271.303 314.371 275.9 316.817 279.537 319.644C283.174 322.504 285.839 325.845 287.684 329.032C289.508 332.231 290.666 335.255 291.223 337.799C291.594 339.054 291.736 340.211 291.889 341.205C292.075 342.198 292.14 343.05 292.173 343.737Z" fill="#EBEBEB"/>
<path d="M292.391 346.619C292.38 347.122 277.495 347.176 259.158 346.729C240.811 346.281 225.958 345.517 225.969 345.015C225.98 344.512 240.855 344.458 259.202 344.905C277.55 345.342 292.402 346.117 292.391 346.619Z" fill="#EBEBEB"/>
<path d="M257.651 378.213C257.149 378.202 257.094 363.333 257.542 345.004C257.99 326.674 258.754 311.828 259.257 311.838C259.759 311.849 259.814 326.718 259.366 345.047C258.929 363.377 258.154 378.224 257.651 378.213Z" fill="#EBEBEB"/>
<path d="M257.651 378.158C257.531 378.355 253.862 375.865 249.646 370.254C247.56 367.449 245.365 363.846 243.705 359.479C242.056 355.124 241.018 350.004 241.138 344.6C241.237 339.185 242.591 334.12 244.491 329.873C246.392 325.615 248.761 322.133 250.978 319.426C255.456 314.022 259.136 311.631 259.268 311.817C259.442 312.024 256.1 314.742 251.994 320.223C249.963 322.963 247.768 326.412 246.031 330.539C244.295 334.655 243.05 339.491 242.962 344.633C242.853 349.785 243.792 354.687 245.289 358.901C246.796 363.126 248.794 366.684 250.694 369.512C254.539 375.167 257.837 377.962 257.651 378.158Z" fill="#EBEBEB"/>
<path d="M212.241 155.385L156.902 160.3L160.217 197.588L215.556 192.673L212.241 155.385Z" fill="#F5F5F5"/>
<path d="M212.23 155.39C212.241 155.401 212.077 155.586 211.761 155.936C211.4 156.307 210.931 156.809 210.341 157.42C209.052 158.73 207.25 160.575 205.044 162.824C200.501 167.387 194.287 173.643 187.396 180.564L187.254 180.706L187.079 180.597C186.948 180.509 186.806 180.411 186.664 180.324C178.44 174.844 171.003 169.887 165.553 166.252C162.9 164.451 160.737 162.988 159.186 161.94C158.476 161.449 157.898 161.045 157.472 160.75C157.079 160.477 156.882 160.324 156.893 160.302C156.904 160.292 157.122 160.412 157.526 160.663C157.974 160.947 158.564 161.318 159.296 161.776C160.868 162.791 163.063 164.211 165.75 165.957C171.211 169.549 178.681 174.472 186.937 179.898C187.079 179.996 187.221 180.084 187.352 180.171L187.035 180.204C193.959 173.326 200.217 167.104 204.793 162.573C207.054 160.368 208.888 158.567 210.199 157.278C210.821 156.689 211.313 156.22 211.684 155.859C212.023 155.543 212.219 155.379 212.23 155.39Z" fill="#E0E0E0"/>
<path d="M160.202 197.583C160.093 197.507 163.795 192.027 168.48 185.345C173.165 178.664 177.053 173.315 177.173 173.392C177.283 173.468 173.58 178.948 168.895 185.629C164.21 192.31 160.322 197.66 160.202 197.583Z" fill="#E0E0E0"/>
<path d="M195.532 171.296C195.63 171.197 200.195 175.913 205.721 181.808C211.247 187.714 215.649 192.572 215.539 192.671C215.441 192.769 210.876 188.064 205.35 182.158C199.824 176.252 195.423 171.394 195.532 171.296Z" fill="#E0E0E0"/>
<path d="M418.476 416.007C419.24 410.428 411.377 405.843 405.458 405.374C402.64 405.144 399.702 405.581 397.038 404.642C391.249 402.623 388.934 395.145 383.288 392.765C379.061 390.985 374.202 392.568 370.106 394.631C366.011 396.695 361.97 399.282 357.394 399.577C353.419 399.828 349.094 398.354 345.61 400.297C343.011 401.749 341.657 404.729 339.265 406.498C336.928 408.223 333.87 408.583 330.976 408.747C328.071 408.9 325.067 408.932 322.424 410.144C319.782 411.356 317.597 414.151 318.143 417L418.476 416.007Z" fill="#EBEBEB"/>
<path d="M402.804 36.0691C403.601 30.2505 395.389 25.458 389.218 24.9667C386.269 24.7265 383.211 25.1741 380.427 24.2025C374.387 22.0956 371.974 14.2901 366.076 11.8011C361.664 9.9452 356.597 11.5936 352.316 13.7442C348.045 15.8949 343.819 18.6022 339.046 18.9079C334.896 19.1699 330.386 17.6306 326.749 19.6612C324.041 21.1677 322.621 24.2899 320.131 26.1348C317.685 27.9361 314.507 28.3182 311.471 28.4819C308.445 28.6457 305.3 28.6784 302.548 29.9448C299.785 31.2111 297.502 34.1259 298.081 37.1062L402.804 36.0691Z" fill="#F5F5F5"/>
<path d="M351.649 184.592L316.396 203.118C313.961 204.395 310.946 203.467 309.669 201.033L284.015 152.257C282.737 149.822 283.665 146.809 286.101 145.532L308.456 133.785L335.137 142.519L353.735 177.867C355.024 180.302 354.085 183.315 351.649 184.592Z" fill="#2DBDC8"/>
<path d="M308.456 133.785L315.675 147.508C316.866 149.768 319.672 150.641 321.933 149.451L335.137 142.508L308.456 133.785Z" fill="#2DBDC8"/>
<g opacity="0.2">
<path d="M316.494 148.621C316.494 148.621 318.067 152.038 322.435 151.143C322.599 151.11 322.763 151.067 322.916 151.012C324.805 150.412 337.212 146.471 337.081 146.209C336.928 145.925 335.137 142.519 335.137 142.519L321.933 149.462C321.944 149.462 318.591 151.078 316.494 148.621Z" fill="black"/>
</g>
<g opacity="0.3">
<path d="M308.456 133.785L315.675 147.508C316.866 149.768 319.672 150.641 321.933 149.451L335.137 142.508L308.456 133.785Z" fill="#223298"/>
</g>
<path d="M312.432 148.501C312.519 148.676 308.948 150.739 304.448 153.108C299.949 155.477 296.214 157.257 296.126 157.071C296.039 156.896 299.61 154.833 304.11 152.464C308.609 150.106 312.344 148.327 312.432 148.501Z" fill="#FAFAFA"/>
<path d="M327.044 150.728C327.131 150.903 321.201 154.211 313.797 158.097C306.381 161.994 300.298 165.007 300.211 164.833C300.123 164.658 306.054 161.35 313.469 157.453C320.874 153.567 326.957 150.554 327.044 150.728Z" fill="#FAFAFA"/>
<path d="M332.876 155.936C332.974 156.11 326.498 159.702 318.416 163.949C310.335 168.195 303.717 171.492 303.618 171.317C303.531 171.143 309.996 167.551 318.078 163.304C326.159 159.069 332.778 155.761 332.876 155.936Z" fill="#FAFAFA"/>
<path d="M336.087 162.06C336.185 162.235 329.709 165.826 321.627 170.073C313.546 174.319 306.927 177.616 306.829 177.442C306.742 177.267 313.207 173.675 321.289 169.429C329.37 165.182 335.999 161.874 336.087 162.06Z" fill="#FAFAFA"/>
<path d="M339.309 168.173C339.396 168.348 332.931 171.94 324.849 176.186C316.767 180.433 310.149 183.73 310.051 183.555C309.963 183.38 316.429 179.789 324.51 175.542C332.592 171.296 339.21 167.988 339.309 168.173Z" fill="#FAFAFA"/>
<path d="M342.519 174.287C342.607 174.461 336.141 178.053 328.06 182.3C319.978 186.546 313.36 189.843 313.262 189.669C313.174 189.494 319.64 185.902 327.721 181.656C335.803 177.409 342.432 174.112 342.519 174.287Z" fill="#FAFAFA"/>
<path d="M217.857 222.657L216.256 225.848L221.235 228.343L222.836 225.152L217.857 222.657Z" fill="#263238"/>
<path d="M220.203 221.72L216.904 228.292L211.542 225.607C212.132 223.019 213.191 220.814 214.84 219.035L220.203 221.72Z" fill="#455A64"/>
<path d="M217.461 227.19C217.407 227.299 216.107 226.764 214.567 226C213.017 225.235 211.804 224.526 211.859 224.428C211.914 224.318 213.213 224.853 214.753 225.618C216.304 226.371 217.516 227.08 217.461 227.19Z" fill="#263238"/>
<path d="M218.095 225.934C218.04 226.043 216.73 225.443 215.168 224.613C213.606 223.784 212.383 223.052 212.416 222.976C212.481 222.834 213.803 223.412 215.365 224.242C216.926 225.072 218.149 225.836 218.095 225.934Z" fill="#263238"/>
<path d="M218.925 224.264C218.87 224.362 217.549 223.762 215.976 222.921C214.404 222.08 213.169 221.316 213.213 221.229C213.279 221.098 214.6 221.698 216.184 222.539C217.756 223.391 218.979 224.166 218.925 224.264Z" fill="#263238"/>
<path d="M219.678 222.725C219.624 222.834 218.324 222.277 216.784 221.502C215.234 220.716 214.032 219.995 214.087 219.897C214.141 219.788 215.441 220.345 216.981 221.12C218.521 221.895 219.733 222.615 219.678 222.725Z" fill="#263238"/>
<path d="M263.345 207.19L260.073 205.759L257.84 210.86L261.112 212.291L263.345 207.19Z" fill="#263238"/>
<path d="M264.433 209.483L257.695 206.535L260.098 201.033C262.708 201.48 264.979 202.43 266.836 203.98L264.433 209.483Z" fill="#455A64"/>
<path d="M258.831 207.026C258.721 206.983 259.191 205.662 259.868 204.068C260.556 202.485 261.19 201.229 261.299 201.284C261.408 201.328 260.938 202.649 260.261 204.242C259.573 205.825 258.94 207.07 258.831 207.026Z" fill="#263238"/>
<path d="M260.108 207.594C259.999 207.539 260.523 206.207 261.277 204.603C262.02 202.998 262.697 201.742 262.773 201.775C262.915 201.83 262.413 203.184 261.659 204.788C260.917 206.382 260.218 207.638 260.108 207.594Z" fill="#263238"/>
<path d="M261.823 208.336C261.714 208.282 262.249 206.939 263.014 205.323C263.778 203.708 264.466 202.441 264.553 202.474C264.684 202.529 264.16 203.893 263.396 205.498C262.631 207.124 261.932 208.391 261.823 208.336Z" fill="#263238"/>
<path d="M263.407 209.002C263.297 208.958 263.778 207.627 264.477 206.044C265.176 204.461 265.831 203.216 265.94 203.26C266.05 203.304 265.569 204.635 264.87 206.218C264.171 207.801 263.516 209.057 263.407 209.002Z" fill="#263238"/>
<path d="M237.623 204.591L233.723 206.219L236.265 212.304L240.165 210.675L237.623 204.591Z" fill="#263238"/>
<path d="M240.451 205.531L232.423 208.882L229.682 202.332C232.205 200.465 234.87 199.308 237.709 198.981L240.451 205.531Z" fill="#2DBDC8"/>
<path d="M237.818 198.97C237.906 199.024 236.563 200.705 234.171 201.71C231.79 202.736 229.639 202.518 229.671 202.419C229.66 202.288 231.724 202.299 234.007 201.317C236.3 200.356 237.731 198.871 237.818 198.97Z" fill="#263238"/>
<path d="M235.066 207.758C234.957 207.801 234.346 206.579 233.69 205.028C233.046 203.478 232.609 202.179 232.707 202.136C232.817 202.092 233.428 203.315 234.083 204.865C234.739 206.426 235.176 207.714 235.066 207.758Z" fill="#263238"/>
<path d="M236.617 207.157C236.508 207.201 235.896 205.978 235.241 204.417C234.586 202.856 234.149 201.557 234.258 201.513C234.367 201.47 234.979 202.692 235.634 204.253C236.279 205.814 236.726 207.114 236.617 207.157Z" fill="#263238"/>
<path d="M238.135 206.502C238.026 206.546 237.414 205.323 236.759 203.762C236.104 202.201 235.667 200.902 235.776 200.858C235.885 200.815 236.497 202.037 237.152 203.598C237.797 205.149 238.244 206.448 238.135 206.502Z" fill="#263238"/>
<path d="M239.402 205.967C239.293 206.011 238.638 204.679 237.928 202.998C237.229 201.317 236.737 199.908 236.846 199.865C236.956 199.821 237.611 201.153 238.321 202.834C239.031 204.515 239.511 205.924 239.402 205.967Z" fill="#263238"/>
<path d="M233.614 208.336C233.505 208.38 232.849 207.048 232.139 205.367C231.441 203.686 230.949 202.277 231.058 202.234C231.168 202.19 231.823 203.522 232.533 205.203C233.243 206.884 233.723 208.293 233.614 208.336Z" fill="#263238"/>
<path d="M274.401 255.128C283.782 240.989 279.92 221.925 265.775 212.547C251.63 203.17 232.558 207.031 223.177 221.17C213.796 235.31 217.658 254.374 231.804 263.751C245.949 273.128 265.02 269.268 274.401 255.128Z" fill="#2DBDC8"/>
<path d="M272.619 247.533C277.924 234.311 271.501 219.293 258.274 213.99C245.046 208.687 230.022 215.108 224.717 228.33C219.412 241.553 225.835 256.571 239.063 261.873C252.291 267.176 267.315 260.756 272.619 247.533Z" fill="#FAFAFA"/>
<path d="M268.878 229.056C266.716 229.995 264.914 230.628 264.837 230.476C264.761 230.312 266.421 229.351 268.54 228.314C270.658 227.277 272.46 226.644 272.58 226.895C272.69 227.157 271.03 228.117 268.878 229.056Z" fill="#263238"/>
<path d="M269.271 245.814C267.076 244.962 265.34 244.143 265.405 243.98C265.46 243.816 267.327 244.296 269.555 245.049C271.783 245.803 273.52 246.621 273.421 246.883C273.334 247.135 271.466 246.654 269.271 245.814Z" fill="#263238"/>
<path d="M257.782 257.997C256.821 255.846 256.166 254.045 256.319 253.979C256.483 253.903 257.466 255.54 258.514 257.647C259.573 259.743 260.229 261.556 259.977 261.676C259.726 261.796 258.743 260.147 257.782 257.997Z" fill="#263238"/>
<path d="M241.029 258.586C241.859 256.381 242.657 254.645 242.82 254.7C242.984 254.754 242.525 256.621 241.805 258.859C241.073 261.097 240.276 262.833 240.014 262.746C239.751 262.658 240.199 260.791 241.029 258.586Z" fill="#263238"/>
<path d="M228.71 247.233C230.851 246.239 232.642 245.573 232.718 245.726C232.795 245.879 231.167 246.883 229.071 247.964C226.974 249.045 225.183 249.711 225.063 249.471C224.932 249.22 226.57 248.215 228.71 247.233Z" fill="#263238"/>
<path d="M227.935 230.497C230.152 231.294 231.899 232.08 231.845 232.244C231.79 232.408 229.922 231.971 227.673 231.272C225.423 230.574 223.676 229.788 223.763 229.526C223.85 229.253 225.718 229.689 227.935 230.497Z" fill="#263238"/>
<path d="M239.162 218.052C240.177 220.181 240.865 221.96 240.713 222.048C240.56 222.124 239.533 220.508 238.43 218.423C237.327 216.349 236.639 214.559 236.879 214.428C237.13 214.308 238.146 215.923 239.162 218.052Z" fill="#263238"/>
<path d="M255.893 217.102C255.118 219.329 254.353 221.087 254.189 221.032C254.025 220.978 254.44 219.111 255.118 216.851C255.795 214.602 256.559 212.845 256.821 212.921C257.083 213.009 256.668 214.875 255.893 217.102Z" fill="#263238"/>
<path d="M268.463 228.183C266.344 229.22 264.564 229.93 264.488 229.777C264.411 229.624 266.017 228.587 268.092 227.462C270.156 226.338 271.936 225.628 272.067 225.869C272.187 226.109 270.582 227.146 268.463 228.183Z" fill="#263238"/>
<path d="M235.951 211.186C236.006 211.295 234.815 211.972 233.363 212.812C231.91 213.653 230.731 214.351 230.654 214.242C230.589 214.144 231.67 213.292 233.144 212.441C234.619 211.589 235.907 211.087 235.951 211.186Z" fill="white"/>
<g opacity="0.4">
<path d="M235.634 260.18C235.634 260.18 256.111 274.503 271.095 256.534C286.734 237.779 265.722 218.533 265.722 218.533C265.722 218.533 283.076 233.62 268.769 254.154C265.209 259.263 259.923 261.479 255.729 262.757C244.994 266.021 235.634 260.18 235.634 260.18Z" fill="black"/>
</g>
<path d="M250.039 222.495C251.612 225.934 252.977 229.482 254.091 233.096C254.495 234.406 254.877 235.737 254.888 237.113C254.899 238.478 254.506 239.908 253.545 240.89C252.584 241.873 251 242.287 249.788 241.665L250.039 222.495Z" fill="#E0E0E0"/>
<path d="M247.385 236.261L249.952 218.074L251.601 236.709L249.264 238.619L247.385 236.261Z" fill="#2DBDC8"/>
<g opacity="0.4">
<path d="M249.952 218.074L249.755 235.65L251.601 236.709L249.952 218.074Z" fill="black"/>
</g>
<path d="M252.06 237.462C252.704 239.002 251.972 240.77 250.432 241.414C248.892 242.058 247.123 241.327 246.479 239.788C245.835 238.248 246.566 236.48 248.106 235.836C249.646 235.192 251.415 235.923 252.06 237.462Z" fill="#FAFAFA"/>
<path d="M252.06 237.462C252.027 237.473 251.918 237.233 251.623 236.873C251.328 236.513 250.793 236.054 249.996 235.858C249.209 235.661 248.15 235.814 247.364 236.556C246.577 237.266 246.195 238.576 246.686 239.711C247.156 240.857 248.357 241.512 249.406 241.447C250.476 241.414 251.35 240.759 251.754 240.06C252.18 239.362 252.223 238.652 252.18 238.194C252.125 237.724 252.016 237.473 252.06 237.462C252.081 237.451 252.234 237.681 252.344 238.161C252.442 238.63 252.453 239.405 252.016 240.202C251.601 240.988 250.651 241.763 249.428 241.829C248.226 241.927 246.828 241.185 246.293 239.864C245.725 238.554 246.184 237.047 247.101 236.251C248.008 235.421 249.22 235.29 250.072 235.552C250.946 235.803 251.492 236.349 251.754 236.764C252.016 237.178 252.071 237.451 252.06 237.462Z" fill="#263238"/>
<path d="M251.339 237.757C251.819 238.903 251.273 240.213 250.127 240.694C248.98 241.174 247.669 240.628 247.189 239.482C246.708 238.336 247.254 237.026 248.401 236.545C249.548 236.065 250.869 236.611 251.339 237.757Z" fill="#455A64"/>
<path d="M184.305 299.011L190.967 301.02L185.976 305.987L180.985 310.954L179.314 303.978L177.654 297.003L184.305 299.011Z" fill="#2DBDC8"/>
<path d="M119.401 247.421L84.4794 256.507L91.7449 284.41L126.666 275.324L119.401 247.421Z" fill="#EBEBEB"/>
<path d="M119.39 247.407C119.39 247.407 119.335 247.429 119.226 247.462C119.106 247.495 118.953 247.538 118.734 247.593C118.298 247.713 117.664 247.877 116.845 248.095C115.185 248.532 112.772 249.176 109.703 249.984C103.576 251.589 94.8609 253.87 84.5077 256.588L84.5732 256.479C86.7356 264.787 89.2256 274.306 91.8467 284.372L91.7156 284.295C104.646 280.944 116.659 277.822 126.63 275.223L126.565 275.333C124.392 266.927 122.601 259.962 121.345 255.082C120.722 252.648 120.231 250.726 119.892 249.416C119.728 248.761 119.597 248.27 119.51 247.921C119.423 247.593 119.39 247.407 119.39 247.407C119.39 247.407 119.444 247.571 119.532 247.91C119.619 248.248 119.75 248.739 119.925 249.383C120.274 250.683 120.777 252.593 121.41 255.016C122.688 259.896 124.523 266.872 126.74 275.3L126.762 275.387L126.674 275.409C116.703 278.007 104.69 281.14 91.7593 284.514L91.661 284.536L91.6392 284.437C89.0181 274.361 86.5499 264.842 84.3875 256.534L84.3657 256.447L84.4531 256.425C94.8391 253.739 103.587 251.479 109.735 249.897C112.793 249.11 115.218 248.488 116.867 248.062C117.686 247.855 118.319 247.691 118.745 247.582C118.953 247.528 119.117 247.495 119.226 247.462C119.335 247.418 119.39 247.407 119.39 247.407Z" fill="#263238"/>
<path d="M118.598 249.496L86.1397 257.941L92.4918 282.336L124.951 273.891L118.598 249.496Z" fill="#2DBDC8"/>
<path d="M92.4801 282.33L99.8737 264.219L109.364 271.872L112.815 265.562L124.949 273.881L92.4801 282.33Z" fill="#2DBDC8"/>
<path d="M109.397 259.754C109.768 261.163 108.916 262.604 107.508 262.975C106.099 263.346 104.657 262.495 104.286 261.086C103.915 259.678 104.766 258.237 106.175 257.866C107.584 257.495 109.026 258.346 109.397 259.754Z" fill="#2DBDC8"/>
<g opacity="0.2">
<path d="M92.4801 282.33L99.8737 264.219L109.364 271.872L112.815 265.562L124.949 273.881L92.4801 282.33Z" fill="black"/>
</g>
<g opacity="0.2">
<path d="M109.397 259.754C109.768 261.163 108.916 262.604 107.508 262.975C106.099 263.346 104.657 262.495 104.286 261.086C103.915 259.678 104.766 258.237 106.175 257.866C107.584 257.495 109.026 258.346 109.397 259.754Z" fill="black"/>
</g>
<path d="M156.204 223.272L101.822 227.103L104.886 270.563L159.268 266.732L156.204 223.272Z" fill="#EBEBEB"/>
<path d="M101.992 227.245C101.945 227.248 101.898 227.252 101.85 227.255L101.982 227.102C101.985 227.15 101.988 227.197 101.992 227.245C102.904 240.109 103.945 254.832 105.051 270.409C105.055 270.457 105.058 270.504 105.061 270.551L104.897 270.409H105.051C103.945 254.832 102.904 240.109 101.992 227.245Z" fill="#263238"/>
<path d="M154.458 226.15L103.9 229.712L106.578 267.694L157.136 264.132L154.458 226.15Z" fill="#2DBDC8"/>
<path d="M106.579 267.702L122.568 242.844L134.548 256.851L141.418 248.423L157.144 264.143L106.579 267.702Z" fill="#2DBDC8"/>
<path d="M137.956 238.849C138.109 241.043 136.449 242.953 134.253 243.106C132.058 243.259 130.147 241.6 129.994 239.405C129.841 237.211 131.501 235.301 133.696 235.148C135.892 234.995 137.792 236.654 137.956 238.849Z" fill="#2DBDC8"/>
<g opacity="0.2">
<path d="M106.579 267.702L122.568 242.844L134.548 256.851L141.418 248.423L157.144 264.143L106.579 267.702Z" fill="black"/>
</g>
<g opacity="0.2">
<path d="M137.956 238.849C138.109 241.043 136.449 242.953 134.253 243.106C132.058 243.259 130.147 241.6 129.994 239.405C129.841 237.211 131.501 235.301 133.696 235.148C135.892 234.995 137.792 236.654 137.956 238.849Z" fill="black"/>
</g>
<path d="M52.2904 289.787C49.6365 281.261 40.572 276.512 32.0426 279.164C23.5132 281.817 18.7516 290.878 21.4163 299.404C23.3384 305.572 28.6243 309.764 34.6309 310.605C35.1988 312.439 35.8431 314.502 35.8431 314.502L49.3744 310.288C49.3744 310.288 48.7738 308.083 48.1949 306.118C52.3668 302.002 54.1579 295.769 52.2904 289.787Z" fill="#2DBDC8"/>
<path d="M49.1123 313.116L37.4922 316.729C37.0117 316.882 36.4984 316.609 36.3455 316.129C36.1926 315.648 36.4656 315.135 36.9462 314.982L48.5662 311.369C49.0468 311.216 49.5601 311.489 49.713 311.969C49.8549 312.461 49.5928 312.963 49.1123 313.116Z" fill="#263238"/>
<g opacity="0.2">
<path d="M23.8736 287.854C24.6162 286.577 25.4899 285.562 26.3199 284.841C27.1499 284.11 27.9144 283.651 28.4823 283.411C29.0502 283.171 29.3997 283.116 29.4652 283.236C29.6181 283.498 28.5806 284.274 27.3247 285.824C26.0797 287.341 24.6708 289.754 24.2777 292.679C23.8954 295.594 24.6162 298.302 25.4244 300.092C26.2216 301.904 27.0298 302.93 26.8114 303.149C26.7131 303.236 26.3964 303.105 25.9049 302.723C25.4244 302.341 24.8019 301.697 24.1903 300.769C23.5787 299.852 22.989 298.64 22.6177 297.21C22.2354 295.78 22.0934 294.12 22.3119 292.417" fill="white"/>
</g>
<g opacity="0.2">
<path d="M33.3859 282.734C32.403 283.029 31.4528 283.029 31.1907 282.549C31.0706 282.309 31.158 281.97 31.4528 281.653C31.7368 281.326 32.2173 281.02 32.8071 280.846C33.3968 280.671 33.9647 280.66 34.3797 280.769C34.7947 280.878 35.0677 281.097 35.1005 281.37" fill="white"/>
</g>
<path d="M48.2495 319.95C48.2495 319.982 47.911 319.939 47.3758 319.95C46.8407 319.961 46.0981 320.048 45.3227 320.31C44.5473 320.572 43.9139 320.965 43.477 321.281C43.0511 321.598 42.8108 321.838 42.789 321.816C42.7781 321.805 42.9746 321.533 43.3896 321.172C43.8046 320.812 44.4599 320.397 45.2571 320.124C46.0544 319.851 46.8189 319.786 47.3758 319.808C47.9219 319.84 48.2495 319.939 48.2495 319.95Z" fill="#455A64"/>
<path d="M49.0577 315.921C49.0686 315.976 46.9827 316.675 44.3944 317.471C41.8061 318.279 39.6874 318.891 39.6764 318.836C39.6655 318.782 41.7515 318.083 44.3398 317.286C46.9281 316.478 49.0468 315.867 49.0577 315.921Z" fill="#455A64"/>
<path d="M48.7628 317.526C48.7737 317.548 48.3478 317.734 47.6598 317.996C46.9608 318.258 45.9998 318.607 44.9186 318.956C43.8374 319.306 42.8545 319.6 42.1337 319.797C41.4129 319.993 40.9651 320.092 40.9651 320.07C40.9542 320.048 41.3911 319.895 42.1009 319.666C42.8654 319.415 43.8156 319.109 44.864 318.771C45.9124 318.421 46.8516 318.116 47.6161 317.865C48.3151 317.635 48.7519 317.504 48.7628 317.526Z" fill="#455A64"/>
<path d="M396.95 217.441C384.937 206.317 363.641 207.616 353.069 220.126C348.897 225.061 346.08 231.524 340.357 234.515C331.576 239.111 320.961 233.314 311.088 234.155C299.512 235.148 290.011 246.883 291.452 258.401C292.107 263.586 294.565 269.132 292.129 273.761C289.017 279.667 280.007 279.896 276.217 285.398C272.799 290.365 275.464 297.69 280.422 301.118C285.38 304.546 291.802 304.961 297.819 304.688C303.848 304.415 309.963 303.574 315.839 304.906C322.315 306.38 327.907 310.343 334.066 312.81C348.886 318.749 366.24 315.441 379.979 307.286C393.707 299.131 404.333 286.664 413.594 273.662" fill="#E8505B"/>
<g opacity="0.8">
<path d="M396.95 217.441C384.937 206.317 363.641 207.616 353.069 220.126C348.897 225.061 346.08 231.524 340.357 234.515C331.576 239.111 320.961 233.314 311.088 234.155C299.512 235.148 290.011 246.883 291.452 258.401C292.107 263.586 294.565 269.132 292.129 273.761C289.017 279.667 280.007 279.896 276.217 285.398C272.799 290.365 275.464 297.69 280.422 301.118C285.38 304.546 291.802 304.961 297.819 304.688C303.848 304.415 309.963 303.574 315.839 304.906C322.315 306.38 327.907 310.343 334.066 312.81C348.886 318.749 366.24 315.441 379.979 307.286C393.707 299.131 404.333 286.664 413.594 273.662" fill="white"/>
</g>
<path d="M394.045 232.582C384.271 222.998 366.087 224.351 357.842 235.268C352.807 241.938 349.913 252.134 341.624 253.248C335.999 254.012 330.681 249.776 325.024 250.213C317.499 250.792 312.934 259.962 314.867 267.254C316.8 274.547 323.222 279.809 329.96 283.226C353.298 295.07 384.413 288.815 401.34 268.859" fill="#2DBDC8"/>
<path d="M616.52 256.992L603.884 239.089L620.32 227.441L631.831 250.803L617.284 256.829" fill="#FFBE9D"/>
<path d="M631.143 247.604L640.087 263.728C640.087 263.728 659.483 260.06 661.427 262.877L630.772 281.326L615.81 256.774L631.143 247.604Z" fill="#2DBDC8"/>
<g opacity="0.6">
<path d="M629.8 268.106C629.308 268.63 629.297 269.536 629.789 270.06C630.291 270.573 631.219 270.595 631.722 270.082C632.224 269.569 632.268 268.477 631.722 268.018C631.165 267.56 630.073 267.604 629.712 268.215" fill="white"/>
</g>
<g opacity="0.6">
<path d="M630.772 281.337L629.363 278.804L659.287 262.058C659.287 262.058 661.012 261.829 661.438 262.887L630.772 281.337Z" fill="white"/>
</g>
<path d="M640.491 263.281C640.579 263.433 639.869 263.946 639.421 264.874C638.952 265.791 638.962 266.665 638.788 266.687C638.635 266.741 638.318 265.715 638.875 264.601C639.421 263.488 640.437 263.117 640.491 263.281Z" fill="#263238"/>
<path d="M644.499 262.669C644.62 262.789 644.128 263.433 643.997 264.372C643.844 265.311 644.128 266.064 643.975 266.152C643.844 266.261 643.222 265.442 643.396 264.285C643.571 263.128 644.412 262.527 644.499 262.669Z" fill="#263238"/>
<path d="M648.649 265.42C648.529 265.529 647.874 264.907 647.765 263.859C647.645 262.811 648.158 262.058 648.3 262.145C648.464 262.222 648.267 262.931 648.376 263.794C648.453 264.656 648.791 265.311 648.649 265.42Z" fill="#263238"/>
<path d="M638.045 259.831C638.067 260.005 637.259 260.213 636.44 260.781C635.621 261.326 635.129 262.014 634.976 261.927C634.823 261.872 635.129 260.933 636.101 260.278C637.051 259.612 638.045 259.667 638.045 259.831Z" fill="#263238"/>
<path d="M636.178 256.61C636.221 256.676 635.675 257.123 634.638 257.527C634.113 257.724 633.469 257.909 632.737 257.997C632.366 258.04 631.984 258.062 631.569 258.062C631.372 258.051 631.154 258.062 630.892 257.986C630.63 257.931 630.302 257.593 630.346 257.233C630.357 256.905 630.575 256.632 630.793 256.49C631.012 256.348 631.23 256.283 631.416 256.228C631.809 256.108 632.191 256.021 632.563 255.977C633.305 255.89 633.982 255.944 634.539 256.054C635.642 256.283 636.221 256.698 636.189 256.752C636.156 256.84 635.522 256.578 634.474 256.479C633.95 256.425 633.316 256.425 632.639 256.534C632.301 256.589 631.951 256.676 631.591 256.796C631.219 256.905 630.935 257.069 630.935 257.265C630.935 257.342 630.946 257.364 631.077 257.418C631.198 257.462 631.383 257.473 631.58 257.473C631.962 257.484 632.322 257.473 632.672 257.451C633.371 257.396 633.982 257.265 634.496 257.123C635.533 256.829 636.134 256.523 636.178 256.61Z" fill="#263238"/>
<path d="M636.112 256.938C636.068 256.992 635.457 256.632 634.812 255.704C634.496 255.235 634.201 254.623 634.015 253.903C633.928 253.543 633.862 253.15 633.84 252.735C633.84 252.32 633.808 251.785 634.354 251.37C634.649 251.174 635.042 251.261 635.249 251.414C635.479 251.556 635.599 251.731 635.741 251.883C636.014 252.211 636.221 252.56 636.363 252.92C636.658 253.63 636.724 254.34 636.658 254.896C636.538 256.054 636.025 256.61 635.981 256.567C635.883 256.523 636.232 255.923 636.232 254.875C636.232 254.361 636.134 253.75 635.85 253.139C635.708 252.833 635.522 252.538 635.293 252.265C635.053 251.971 634.769 251.774 634.67 251.883C634.518 251.971 634.408 252.375 634.441 252.713C634.452 253.084 634.496 253.444 634.561 253.772C634.703 254.438 634.943 255.027 635.184 255.486C635.686 256.403 636.178 256.872 636.112 256.938Z" fill="#263238"/>
<path d="M569.722 193.347L608.973 255.006L630.433 240.421L594.284 166.132" fill="#263238"/>
<path d="M572.901 179.822C573.064 179.898 571.896 182.398 571.328 185.706C570.738 189.014 571 191.765 570.815 191.775C570.684 191.808 570.159 189.014 570.76 185.607C571.35 182.201 572.78 179.745 572.901 179.822Z" fill="#455A64"/>
<path d="M568.871 179.996C569.045 180.007 568.882 182.704 569.318 185.979C569.733 189.254 570.585 191.819 570.421 191.874C570.29 191.928 569.176 189.406 568.75 186.055C568.303 182.704 568.729 179.974 568.871 179.996Z" fill="#455A64"/>
<path d="M416.674 193.162L389.753 184.854C357.274 226.196 359.447 271.621 411.726 298.498L440.733 265.988L416.674 193.162Z" fill="#263238"/>
<path d="M419.295 186.579C402.061 196.623 393.499 217.801 395.596 238.51C397.9 261.239 412.928 283.4 440.46 289.524L625.606 252.527C657.932 246.065 677.798 213.336 668.602 181.688C660.215 152.835 630.619 135.663 601.394 142.704L419.295 186.579Z" fill="#E0E0E0"/>
<path d="M440.46 289.524L416.04 345.036C416.04 345.036 531.258 333.923 526.344 272.363L440.46 289.524Z" fill="#2DBDC8"/>
<path d="M506.489 165.575C506.489 165.575 451.097 111.832 380.667 134.473L419.295 186.579L506.489 165.575Z" fill="#2DBDC8"/>
<path d="M607.63 141.94C631.405 159.473 645.941 227.714 634.485 249.394C701.868 229.689 716 171.863 716 171.863C667.292 126.537 607.63 141.94 607.63 141.94Z" fill="#2DBDC8"/>
<path d="M405.818 264.143C405.938 264.241 402.236 268.673 397.54 274.034C392.855 279.394 388.956 283.651 388.836 283.553C388.716 283.455 392.418 279.023 397.114 273.662C401.799 268.302 405.698 264.034 405.818 264.143Z" fill="#455A64"/>
<path d="M488.633 212.31L372.52 236.338C372.52 236.338 371.995 247.669 374.846 247.768C377.227 247.844 463.569 232.266 491.571 227.2C496.147 226.371 498.877 221.666 497.359 217.266C496.103 213.653 492.368 211.535 488.633 212.31Z" fill="#2DBDC8"/>
<path d="M605.33 201.624C605.35 187.383 592.942 175.821 577.616 175.799C562.29 175.778 549.849 187.305 549.829 201.546C549.809 215.786 562.217 227.349 577.543 227.37C592.869 227.392 605.31 215.865 605.33 201.624Z" fill="#FAFAFA"/>
<path d="M165.981 273.331C166.527 274.642 167.521 276.659 168.939 278.411H167.41C166.775 275.982 166.3 274.349 165.981 273.331C165.313 271.203 165.326 271.76 165.981 273.331Z" fill="#E8505B"/>
<g opacity="0.8">
<path d="M165.981 273.331C166.527 274.642 167.521 276.659 168.939 278.411H167.41C166.775 275.982 166.3 274.349 165.981 273.331C165.313 271.203 165.326 271.76 165.981 273.331Z" fill="white"/>
</g>
<path d="M6.6728 313.454C4.75068 314.24 2.88317 315.277 1.56171 316.871C0.251179 318.465 -0.425931 320.714 0.2621 322.668C0.950131 324.622 3.22172 326.008 5.18753 325.332C6.22503 324.971 7.07688 324.131 8.15807 323.945C9.88361 323.661 11.3907 325.146 13.1163 325.452C15.6827 325.899 18.0963 323.323 18.0745 320.714C18.0526 318.105 15.9339 316.14 13.8261 314.6C11.0631 312.581 7.69939 313.094 6.6728 313.454Z" fill="#E8505B"/>
<g opacity="0.8">
<path d="M6.6728 313.454C4.75068 314.24 2.88317 315.277 1.56171 316.871C0.251179 318.465 -0.425931 320.714 0.2621 322.668C0.950131 324.622 3.22172 326.008 5.18753 325.332C6.22503 324.971 7.07688 324.131 8.15807 323.945C9.88361 323.661 11.3907 325.146 13.1163 325.452C15.6827 325.899 18.0963 323.323 18.0745 320.714C18.0526 318.105 15.9339 316.14 13.8261 314.6C11.0631 312.581 7.69939 313.094 6.6728 313.454Z" fill="white"/>
</g>
<path d="M573.425 292.221L564.764 272.09L583.254 264.088L589.686 289.328L574.211 292.221" fill="#FFBE9D"/>
<path d="M589.675 286.064L595.092 303.684C595.092 303.684 614.827 304.098 616.148 307.264L582.336 318.978L572.78 291.861L589.675 286.064Z" fill="#2DBDC8"/>
<g opacity="0.6">
<path d="M584.127 305.845C583.538 306.249 583.341 307.144 583.723 307.756C584.106 308.367 585.012 308.574 585.613 308.181C586.213 307.788 586.486 306.718 586.039 306.162C585.591 305.605 584.51 305.408 584.029 305.943" fill="white"/>
</g>
<g opacity="0.6">
<path d="M582.336 318.978L581.484 316.205L614.226 306.009C614.226 306.009 615.962 306.14 616.159 307.264L582.336 318.978Z" fill="white"/>
</g>
<path d="M595.584 303.323C595.638 303.487 594.841 303.847 594.208 304.666C593.563 305.463 593.388 306.325 593.214 306.315C593.05 306.336 592.952 305.266 593.727 304.295C594.492 303.301 595.562 303.16 595.584 303.323Z" fill="#263238"/>
<path d="M599.635 303.564C599.734 303.705 599.111 304.24 598.794 305.136C598.445 306.02 598.565 306.817 598.401 306.871C598.259 306.948 597.801 306.02 598.227 304.917C598.631 303.804 599.581 303.4 599.635 303.564Z" fill="#263238"/>
<path d="M603.119 307.101C602.977 307.188 602.464 306.446 602.573 305.398C602.671 304.35 603.327 303.716 603.447 303.836C603.589 303.935 603.25 304.601 603.174 305.463C603.086 306.315 603.283 307.035 603.119 307.101Z" fill="#263238"/>
<path d="M593.902 299.437C593.88 299.612 593.05 299.644 592.133 300.037C591.215 300.409 590.593 300.965 590.462 300.856C590.32 300.769 590.822 299.917 591.903 299.47C592.984 299.022 593.935 299.284 593.902 299.437Z" fill="#263238"/>
<path d="M587.082 295.979C586.937 295.802 586.841 295.541 586.923 295.31C586.965 295.159 587.046 295.053 587.082 295.979Z" fill="#263238"/>
<path d="M592.569 295.791C592.592 295.829 592.898 295.63 593.204 295.138C593.198 294.51 593.185 294.096 593.159 294.197C592.952 295.212 592.482 295.725 592.569 295.791Z" fill="#263238"/>
<path d="M484.996 135.925C484.996 135.925 468.975 167.638 479.743 175.073C490.512 182.507 540.803 220.29 540.803 220.29L566.457 288.728L590.473 278.892L570.454 198.74L519.922 153.37L484.996 135.925Z" fill="#263238"/>
<path d="M546.701 207.703C546.843 207.812 545.183 210.017 543.949 213.14C542.682 216.251 542.365 219.002 542.19 218.98C542.048 218.98 542.114 216.142 543.413 212.932C544.702 209.712 546.613 207.605 546.701 207.703Z" fill="#455A64"/>
<path d="M542.725 207.048C542.889 207.092 542.179 209.701 541.928 212.987C541.655 216.273 541.961 218.958 541.797 218.98C541.655 219.013 541.087 216.305 541.36 212.943C541.611 209.581 542.594 206.993 542.725 207.048Z" fill="#455A64"/>
<path d="M542.474 218.172C542.484 218.191 542.493 218.21 542.503 218.229C542.515 218.239 542.528 218.249 542.54 218.26L542.474 218.172Z" fill="#455A64"/>
<path d="M504.753 146.078L535.725 150.466L551.604 154.495L529.86 162.289L504.753 146.078Z" fill="#263238"/>
<path d="M466.834 143.829C466.867 143.862 466.638 144.124 466.19 144.571C465.753 145.03 465.076 145.641 464.202 146.362C462.455 147.792 459.823 149.517 456.634 150.859C453.445 152.191 450.355 152.846 448.116 153.086C446.991 153.206 446.084 153.261 445.451 153.239C444.817 153.228 444.468 153.206 444.468 153.174C444.468 153.075 445.855 153.021 448.061 152.682C450.267 152.344 453.281 151.634 456.416 150.335C459.55 149.025 462.171 147.377 463.962 146.045C465.753 144.713 466.769 143.763 466.834 143.829Z" fill="#263238"/>
<path d="M489.07 98.5023L483.107 143.392C483.107 143.392 502.962 142.104 516.973 146.744C530.974 151.394 539.58 151.263 539.58 151.263L536.653 123.338L547.105 100.456L551.703 127.257L573.174 149.353L587.163 146.187L572.671 121.908L562.602 72.433C562.602 72.4112 562.591 72.4002 562.591 72.3784C561.75 68.2628 559.5 64.5511 556.257 61.8764L555.853 61.5489L534.775 49.8025L527.698 49.9444C519.889 50.1518 513.872 51.0033 509.864 51.7675C506.292 52.4552 502.699 54.2674 500.22 56.9311C498.484 58.7979 496.256 62.2694 495.306 66.1122L489.07 98.5023Z" fill="#2DBDC8"/>
<path d="M556.027 79.7363C556.06 79.7472 555.874 80.2603 555.514 81.1773C555.099 82.1817 554.553 83.4808 553.909 85.0201C552.533 88.2623 550.6 92.7164 548.437 97.629C546.275 102.487 544.32 106.875 542.846 110.183C542.147 111.701 541.568 112.978 541.109 113.971C540.683 114.867 540.465 115.336 540.421 115.336C540.377 115.347 540.541 114.79 540.902 113.884C541.262 112.967 541.797 111.646 542.474 110.02C543.828 106.777 545.751 102.312 547.924 97.3888C550.086 92.4762 552.074 88.044 553.548 84.8454C554.258 83.328 554.848 82.0616 555.317 81.0682C555.732 80.2057 555.984 79.7145 556.027 79.7363Z" fill="#263238"/>
<path d="M496.485 71.9199C500.592 83.3498 508.488 109.485 512.343 119.55C513.522 122.618 515.488 125.303 518.065 127.344L560.68 157.464L570.531 144.68L538.608 113.895L521.407 62.9244C518.983 56.1124 508.925 52.4334 502.678 56.0687C497.85 58.8634 494.607 66.6798 496.485 71.9199Z" fill="#2DBDC8"/>
<path d="M538.82 113.755C538.826 113.773 538.832 113.79 538.837 113.808L538.772 113.709C538.788 113.725 538.804 113.74 538.82 113.755C548.168 122.762 559.051 133.237 570.727 144.462L570.913 144.637L570.76 144.833C568.499 147.77 566.108 150.881 563.683 154.025C562.733 155.259 561.794 156.481 560.92 157.617L560.756 157.835L560.538 157.671C548.907 149.298 537.865 141.34 527.84 134.124C525.339 132.323 522.893 130.565 520.534 128.851L520.531 128.849C519.942 128.424 519.353 127.999 518.775 127.574C518.196 127.17 517.607 126.733 517.083 126.231H514.461C515.117 124.157 516.023 125.259 517.083 126.231C517.607 126.733 518.196 127.17 518.775 127.574C519.353 127.999 519.942 128.424 520.531 128.849L520.534 128.851C522.893 130.565 525.339 132.323 527.84 134.124C537.865 141.34 548.907 149.298 560.538 157.671L560.756 157.835L560.92 157.617C561.794 156.481 562.733 155.259 563.683 154.025C566.108 150.881 568.499 147.77 570.76 144.833L570.913 144.637L570.727 144.462C559.051 133.237 548.168 122.762 538.82 113.755Z" fill="#263238"/>
<path d="M518.076 58.8088C518.011 58.8743 517.301 58.132 515.903 57.2695C514.527 56.4071 512.397 55.5119 509.929 55.3919C507.45 55.2718 505.244 55.9704 503.802 56.691C502.339 57.4115 501.553 58.0883 501.498 58.0119C501.454 57.9682 502.153 57.1713 503.617 56.3307C505.058 55.4901 507.363 54.6932 509.962 54.8133C512.561 54.9443 514.778 55.9486 516.132 56.9311C517.509 57.9136 518.131 58.7761 518.076 58.8088Z" fill="#263238"/>
<path d="M573.578 122.53C573.556 122.705 571.557 122.497 569.209 123.076C566.85 123.633 565.168 124.735 565.07 124.583C564.972 124.484 566.588 123.109 569.067 122.519C571.557 121.919 573.621 122.399 573.578 122.53Z" fill="#263238"/>
<path d="M502.055 89.1138C502.055 89.1248 501.902 89.1684 501.629 89.223C501.356 89.2885 500.952 89.3431 500.45 89.4086C499.445 89.5178 498.025 89.5287 496.518 89.1575C495.011 88.7754 493.766 88.0877 492.936 87.52C492.521 87.2362 492.193 86.9851 491.986 86.7995C491.767 86.6139 491.658 86.5047 491.669 86.4938C491.724 86.3847 493.602 88.175 496.584 88.9283C499.554 89.6597 502.055 88.9938 502.055 89.1138Z" fill="#FAFAFA"/>
<path d="M505.375 98.8626C505.342 98.9062 504.665 98.2949 503.355 97.6727C502.055 97.0286 500.111 96.45 497.916 96.2862C495.71 96.1115 493.7 96.2862 492.248 96.4172C491.636 96.4718 491.068 96.5264 490.533 96.5701C490.129 96.6028 489.9 96.6137 489.9 96.6028C489.9 96.5919 490.118 96.5482 490.522 96.4827C490.926 96.4172 491.505 96.3408 492.237 96.2535C493.679 96.0897 495.699 95.8823 497.938 96.057C500.166 96.2316 502.143 96.843 503.431 97.5307C504.086 97.8691 504.578 98.1967 504.895 98.4477C505.222 98.6879 505.386 98.8517 505.375 98.8626Z" fill="#FAFAFA"/>
<g opacity="0.4">
<path d="M499.871 82.3127C499.871 82.3127 501.018 99.3866 502.241 107.279C503.464 115.172 506.009 123.207 511.666 128.851C517.356 134.539 525.459 137.05 533.344 138.643C530.799 136.722 528.299 134.746 525.852 132.705C522.696 130.074 518.055 127.519 515.521 124.288C510.628 118.076 509.569 110.227 507.046 102.727C504.72 95.8168 502.197 89.2339 499.871 82.3127Z" fill="black"/>
</g>
<path d="M526.366 80.7298C526.366 80.7407 526.3 80.7844 526.158 80.8717C525.961 80.9809 525.754 81.1009 525.536 81.2319C524.989 81.5485 524.181 81.9634 523.166 82.4437C521.134 83.4044 518.218 84.5397 514.866 85.3367C511.513 86.1227 508.4 86.4283 506.151 86.4829C505.026 86.5157 504.119 86.5048 503.486 86.4611C503.224 86.4502 502.994 86.4283 502.765 86.4174C502.601 86.4065 502.514 86.3956 502.514 86.3847C502.514 86.3738 502.601 86.3738 502.765 86.3738C502.994 86.3738 503.235 86.3738 503.486 86.3738C504.108 86.3847 505.026 86.3738 506.14 86.3192C508.378 86.2209 511.469 85.8934 514.8 85.1074C518.131 84.3105 521.036 83.2188 523.078 82.2909C524.105 81.8324 524.924 81.4394 525.481 81.1446C525.71 81.0245 525.929 80.9263 526.125 80.8171C526.278 80.7625 526.366 80.7298 526.366 80.7298Z" fill="#FAFAFA"/>
<path d="M550.556 89.6815C550.556 89.6925 550.458 89.6706 550.261 89.616C550.064 89.5724 549.78 89.485 549.442 89.3322C548.743 89.0374 547.771 88.4916 546.777 87.5746C544.702 85.8061 542.791 82.4874 539.569 79.9219C536.369 77.3346 532.831 75.9373 530.232 75.315C528.932 74.9875 527.84 74.8565 527.097 74.7583C526.781 74.7255 526.497 74.7037 526.235 74.6819C526.038 74.66 525.929 74.6491 525.929 74.6382C525.929 74.6382 527.621 74.5618 530.264 75.1622C532.896 75.7517 536.479 77.1272 539.711 79.7473C541.327 81.0354 542.649 82.531 543.763 83.9175C544.888 85.3039 545.903 86.5484 546.886 87.4545C547.858 88.3824 548.808 88.9392 549.486 89.2558C550.152 89.5724 550.567 89.6488 550.556 89.6815Z" fill="#FAFAFA"/>
<path d="M536.042 85.424C536.409 85.4723 536.782 85.5488 537.155 85.6535C529.278 85.6563 529.458 85.6844 529.696 85.6532C530.297 85.5768 531.171 85.4349 532.252 85.3476C533.333 85.2602 534.633 85.2056 536.042 85.424Z" fill="#FAFAFA"/>
<path d="M566.009 91.3736C565.998 91.4282 565.103 91.0134 563.585 91.1335C562.831 91.1881 561.947 91.3846 560.996 91.7121C560.046 92.0396 559.052 92.5199 557.993 93.0003C556.934 93.4806 555.885 93.8954 554.892 94.1138C553.898 94.3321 552.958 94.3649 552.194 94.2557C551.43 94.1465 550.84 93.9063 550.468 93.688C550.097 93.4697 549.922 93.295 549.922 93.295C549.944 93.2404 550.698 93.9173 552.216 94.0919C552.959 94.1793 553.876 94.1356 554.848 93.9063C555.82 93.6771 556.846 93.2623 557.906 92.7819C558.965 92.3016 559.97 91.8322 560.942 91.5047C561.903 91.1771 562.809 91.0025 563.585 90.9588C564.36 90.9261 564.983 91.0134 565.398 91.1335C565.802 91.2536 566.009 91.3736 566.009 91.3736Z" fill="#FAFAFA"/>
<g opacity="0.4">
<path d="M549.573 114.888C551.801 105.948 552.238 96.2644 552.554 87.0615C551.779 90.2819 549.802 93.0657 548.579 96.1443C547.989 97.618 547.061 100.282 547.061 100.282L549.529 114.67" fill="black"/>
</g>
<path d="M535.157 9.71594C534.939 11.3644 533.715 12.8272 532.143 13.3403C531.247 13.6351 530.264 13.6351 529.38 13.9735C528.495 14.3119 527.676 15.1743 527.873 16.0914C528.026 16.7791 528.659 17.2376 529.194 17.707C529.718 18.1765 530.199 18.9188 529.893 19.552C529.565 20.2616 528.55 20.3162 528.026 20.8947C527.469 21.5061 527.643 22.5104 528.146 23.1545C528.648 23.7986 529.402 24.2025 530.079 24.672C530.756 25.1414 531.411 25.7527 531.564 26.5606" fill="#263238"/>
<path d="M549.944 0.196503C550.19 0.267575 550.435 0.340322 550.681 0.414839H547.662C548.208 -0.185586 549.169 -0.0218335 549.944 0.196503Z" fill="#263238"/>
<path d="M534.054 66.7017C527.982 65.0751 524.443 58.7761 526.224 52.7391L536.249 18.7987C538.575 10.0762 547.651 4.9999 556.311 7.56535L557.098 7.84918C565.004 10.7094 569.406 19.159 567.189 27.2702C565.125 34.8246 562.755 43.1323 561.28 47.0514C558.233 55.1626 549.628 53.4814 549.628 53.4814L547.509 59.5621C545.576 65.1078 539.711 68.2191 534.054 66.7017Z" fill="#FFBE9D"/>
<path d="M549.671 53.3832C549.671 53.3832 544.374 51.9421 540.137 46.5274C540.137 46.5274 540.53 53.2958 548.929 55.501L549.671 53.3832Z" fill="#EB996E"/>
<path d="M548.131 12.5106C547.465 11.0478 546.624 7.84917 545.488 6.71383C544.353 5.56756 542.507 5.94965 540.956 6.38632C539.34 6.84483 538.051 8.06751 537.472 9.63953C535.332 15.5128 535.07 21.0476 533.464 26.8226C533.355 27.2047 533.257 27.6086 533.366 27.9907C533.672 28.9732 534.742 29.3225 535.758 29.4644C538.259 29.8247 539.536 28.0016 540.716 25.8073C540.978 25.3161 541.535 22.303 541.579 21.7463C541.939 17.849 544.189 14.3774 547.716 12.6853L548.131 12.5106Z" fill="#263238"/>
<path d="M537.658 23.482C537.538 23.3729 532.656 19.8031 530.821 25.4361C528.987 31.0692 535.026 31.7461 535.081 31.5932C535.146 31.4404 537.658 23.482 537.658 23.482Z" fill="#FFBE9D"/>
<path d="M534.065 28.9077C534.043 28.8858 533.945 28.9404 533.748 28.9623C533.563 28.9841 533.268 28.9404 533.006 28.733C532.481 28.3182 532.285 27.2156 532.591 26.1894C532.743 25.6763 533.006 25.2178 533.322 24.8685C533.628 24.5082 533.988 24.3117 534.305 24.3554C534.622 24.3881 534.775 24.6283 534.797 24.8139C534.818 24.9995 534.753 25.0977 534.775 25.1195C534.786 25.1414 534.928 25.065 534.96 24.8139C534.971 24.6938 534.95 24.541 534.851 24.3881C534.753 24.2353 534.567 24.1152 534.36 24.0715C533.912 23.9624 533.399 24.2353 533.049 24.6065C532.678 24.9776 532.372 25.4798 532.197 26.0693C531.859 27.2156 532.099 28.471 532.842 28.9732C533.202 29.2024 533.573 29.1915 533.792 29.1151C534.01 29.0387 534.076 28.9186 534.065 28.9077Z" fill="#EB996E"/>
<path d="M545.958 13.777C548.732 11.8775 551.593 12.8163 553.505 13.9298C555.416 15.0433 557.032 16.6154 558.998 17.6306C560.964 18.6459 563.519 18.9952 565.277 17.6415C566.577 16.6481 567.123 14.9342 567.265 13.3076C567.527 10.1744 566.479 6.95399 564.404 4.58504C563.869 3.96279 563.039 3.36236 562.285 3.68987C561.357 4.10471 561.499 5.44747 561.805 6.41907C561.805 6.41907 552.325 2.91477 546.537 4.93438C540.76 6.95399 545.958 13.777 545.958 13.777Z" fill="#263238"/>
<path d="M549.518 0.0982633C549.573 0.0873465 549.628 0.502185 549.922 1.17903C550.217 1.85587 550.796 2.76196 551.724 3.70081C552.664 4.62874 553.93 5.58941 555.503 6.34267C556.289 6.72476 557.141 7.01952 558.08 7.2051C559.009 7.41252 560.003 7.55444 561.007 7.83828C562.012 8.1112 562.984 8.54787 563.738 9.22471C564.491 9.89063 565.059 10.6985 565.387 11.5609C565.725 12.4124 565.834 13.3185 565.725 14.1264C565.616 14.9451 565.31 15.6656 564.906 16.2333C564.109 17.3905 563.06 17.9363 562.34 18.1437C561.968 18.242 561.674 18.2857 561.477 18.2857C561.28 18.2857 561.171 18.2747 561.171 18.2638C561.171 18.2202 561.586 18.2092 562.285 17.9691C562.962 17.718 563.923 17.1394 564.622 16.0477C564.972 15.5128 565.234 14.8359 565.321 14.0936C565.398 13.3403 565.288 12.5216 564.961 11.7356C564.644 10.9496 564.109 10.1963 563.421 9.59588C562.722 8.98454 561.837 8.59153 560.865 8.31861C559.904 8.05661 558.91 7.90378 557.96 7.68544C557.01 7.47802 556.093 7.16143 555.296 6.75751C553.679 5.96059 552.401 4.93441 551.462 3.95189C550.534 2.95847 549.977 1.97595 549.726 1.25544C549.617 0.89519 549.529 0.611353 549.518 0.403934C549.507 0.196514 549.507 0.0982633 549.518 0.0982633Z" fill="#455A64"/>
<path d="M543.261 1.79037C543.304 1.77945 543.402 2.2052 543.719 2.9148C544.047 3.61347 544.648 4.57415 545.663 5.50208C546.679 6.44092 548.11 7.28152 549.846 7.87102C551.572 8.48237 553.57 8.8317 555.678 9.22471C557.775 9.62863 559.806 10.0325 561.521 10.9059C562.362 11.3535 563.093 12.0194 563.432 12.8491C563.77 13.6678 563.749 14.5194 563.563 15.218C563.17 16.659 562.187 17.456 561.542 17.8817C561.204 18.1001 560.931 18.2311 560.734 18.3075C560.538 18.3839 560.439 18.4167 560.429 18.3948C560.407 18.3512 560.811 18.1765 561.433 17.718C562.023 17.2595 562.908 16.4516 563.224 15.1307C563.366 14.4866 563.366 13.7115 563.061 13.0019C562.755 12.2923 562.11 11.7137 561.313 11.2989C559.697 10.502 557.676 10.109 555.59 9.70505C553.494 9.31204 551.462 8.94087 549.704 8.29678C547.935 7.67452 546.449 6.75751 545.434 5.75316C544.407 4.75974 543.828 3.72264 543.555 2.9803C543.413 2.60913 543.337 2.30346 543.304 2.10695C543.261 1.89953 543.25 1.79037 543.261 1.79037Z" fill="#455A64"/>
<path d="M561.761 31.2002C561.553 31.8771 560.8 32.2592 560.09 32.0517C559.38 31.8443 558.965 31.1347 559.184 30.4579C559.391 29.7811 560.145 29.399 560.854 29.6064C561.553 29.8029 561.968 30.5234 561.761 31.2002Z" fill="#263238"/>
<path d="M564.175 30.4906C563.956 30.5998 563.246 29.5518 561.881 29.0824C560.527 28.5911 559.271 28.9514 559.184 28.733C559.14 28.6348 559.402 28.3946 559.948 28.2199C560.483 28.0562 561.324 28.0016 562.176 28.2964C563.028 28.602 563.629 29.1588 563.934 29.6173C564.24 30.0867 564.273 30.4361 564.175 30.4906Z" fill="#263238"/>
<path d="M548.251 27.3139C548.044 27.9907 547.29 28.3728 546.581 28.1654C545.871 27.9579 545.456 27.2484 545.674 26.5715C545.882 25.8947 546.635 25.5126 547.345 25.72C548.055 25.9274 548.459 26.637 548.251 27.3139Z" fill="#263238"/>
<path d="M550.654 26.0802C550.436 26.1894 549.726 25.1414 548.361 24.672C547.006 24.1807 545.75 24.541 545.663 24.3226C545.619 24.2244 545.881 23.9842 546.427 23.8095C546.963 23.6458 547.804 23.5912 548.655 23.886C549.507 24.1916 550.108 24.7484 550.414 25.2069C550.719 25.6763 550.763 26.0257 550.654 26.0802Z" fill="#263238"/>
<path d="M552.096 37.925C552.118 37.8486 553.013 37.9905 554.455 38.2961C554.815 38.3835 555.176 38.4271 555.307 38.2088C555.481 37.9905 555.459 37.5538 555.438 37.0953C555.405 36.1346 555.372 35.1303 555.328 34.0823C555.208 29.8029 555.252 26.3313 555.427 26.3313C555.601 26.3313 555.831 29.792 555.951 34.0713C555.973 35.1194 555.995 36.1237 556.016 37.0844C556.006 37.5211 556.082 38.056 555.722 38.5145C555.536 38.7437 555.219 38.842 554.968 38.8202C554.717 38.8092 554.52 38.7437 554.345 38.7001C552.937 38.2961 552.074 38.0123 552.096 37.925Z" fill="#263238"/>
<path d="M547.749 37.4774C547.978 37.5429 547.465 39.0276 548.372 40.5232C549.267 42.0188 550.905 42.4009 550.851 42.6083C550.84 42.7065 550.403 42.772 549.726 42.5646C549.06 42.3572 548.186 41.8223 547.629 40.9053C547.083 39.9883 547.05 39.0167 547.203 38.3835C547.356 37.7394 547.651 37.4337 547.749 37.4774Z" fill="#263238"/>
<path d="M552.871 20.8511C552.609 21.1786 551.309 20.5236 549.638 20.1633C547.978 19.7703 546.515 19.7812 546.428 19.3773C546.384 19.1808 546.733 18.9188 547.378 18.7332C548.022 18.5586 548.961 18.504 549.966 18.7223C550.96 18.9516 551.79 19.4101 552.292 19.8467C552.795 20.2943 552.991 20.6873 552.871 20.8511Z" fill="#263238"/>
<path d="M565.048 26.3641C564.699 26.5933 563.869 25.9383 562.744 25.5344C561.63 25.0868 560.581 25.0213 560.472 24.6174C560.429 24.4318 560.691 24.1698 561.215 24.017C561.728 23.8641 562.504 23.8641 563.268 24.1589C564.033 24.4536 564.611 24.9667 564.895 25.4252C565.179 25.8837 565.201 26.244 565.048 26.3641Z" fill="#263238"/>
<path d="M539.307 147.486C542.54 148.523 543.217 152.027 542.791 153.643L535.419 156.558L533.737 149.451L539.307 147.486Z" fill="#455A64"/>
<path d="M477.341 147.464C477.341 147.464 492.117 145.936 501.411 149.2C510.705 152.464 522.237 154.899 527.338 153.752C531.772 152.759 534.294 149.418 534.294 149.418C534.294 149.418 519.573 147.65 512.638 145.412C507.974 143.905 498.757 133.458 481.698 135.98L477.341 147.464Z" fill="#455A64"/>
<path d="M536.544 152.813C536.085 151.449 535.157 150.292 534.163 149.244L534.294 149.407C532.754 149.527 531.193 149.648 529.707 150.073C528.222 150.499 526.792 151.274 525.83 152.475C525.514 152.868 525.241 153.348 525.284 153.85C525.339 154.527 525.918 155.03 526.442 155.444C527.862 156.569 529.336 157.715 531.084 158.206C532.831 158.698 534.939 158.359 536.042 156.929C536.926 155.794 537.003 154.178 536.544 152.813Z" fill="#455A64"/>
<path d="M525.82 152.289C525.82 152.289 525.885 151.94 526.289 151.449C526.682 150.968 527.447 150.412 528.506 150.073C529.555 149.724 530.909 149.495 532.372 149.746C533.825 149.975 535.397 150.805 536.304 152.289C536.752 153.021 536.992 153.872 536.926 154.691C536.872 155.51 536.566 156.263 536.107 156.853C535.659 157.453 535.037 157.868 534.414 158.086C533.781 158.294 533.159 158.348 532.602 158.305C531.488 158.217 530.636 157.89 530.057 157.671C529.773 157.562 529.555 157.464 529.402 157.388C529.26 157.322 529.183 157.278 529.183 157.267C529.183 157.257 529.271 157.289 529.423 157.344C529.631 157.42 529.849 157.497 530.09 157.584C530.669 157.781 531.52 158.075 532.612 158.141C533.672 158.217 535.092 157.901 535.943 156.722C536.817 155.608 537.025 153.796 536.118 152.399C535.255 150.979 533.748 150.172 532.339 149.942C530.92 149.691 529.598 149.899 528.561 150.215C527.512 150.532 526.77 151.045 526.366 151.503C525.951 151.962 525.841 152.3 525.82 152.289Z" fill="#263238"/>
<path d="M528.943 152.54C528.91 152.562 528.593 152.137 528.058 151.765C527.523 151.394 527.01 151.241 527.021 151.209C527.021 151.176 527.567 151.285 528.113 151.667C528.681 152.049 528.976 152.53 528.943 152.54Z" fill="#FAFAFA"/>
<path d="M531.335 152.65C531.313 152.671 530.985 152.311 530.537 151.929C530.09 151.547 529.675 151.296 529.686 151.263C529.696 151.241 530.144 151.449 530.603 151.842C531.073 152.224 531.367 152.628 531.335 152.65Z" fill="#FAFAFA"/>
<path d="M532.307 157.704C532.285 157.704 532.252 157.453 532.132 157.071C532.012 156.689 531.804 156.165 531.455 155.652C531.105 155.139 530.712 154.746 530.395 154.484C530.079 154.233 529.86 154.102 529.871 154.08C529.871 154.08 530.112 154.178 530.439 154.418C530.767 154.658 531.193 155.062 531.542 155.586C531.892 156.11 532.099 156.645 532.197 157.049C532.307 157.442 532.307 157.704 532.307 157.704Z" fill="#FAFAFA"/>
<path d="M534.731 155.837C534.709 155.837 534.742 155.597 534.753 155.204C534.764 154.811 534.742 154.276 534.644 153.687C534.535 153.097 534.371 152.595 534.229 152.224C534.087 151.864 533.967 151.645 533.989 151.634C533.999 151.634 534.032 151.678 534.087 151.776C534.141 151.875 534.218 152.006 534.305 152.191C534.469 152.551 534.655 153.064 534.764 153.665C534.873 154.254 534.873 154.811 534.84 155.204C534.829 155.401 534.808 155.554 534.786 155.663C534.753 155.783 534.731 155.837 534.731 155.837Z" fill="#FAFAFA"/>
<path d="M534.742 151.285C534.775 151.361 533.104 151.776 531.422 152.988C529.718 154.178 528.779 155.608 528.714 155.564C528.692 155.554 528.899 155.171 529.325 154.637C529.751 154.102 530.428 153.414 531.28 152.802C532.143 152.191 533.006 151.787 533.661 151.558C534.316 151.329 534.731 151.263 534.742 151.285Z" fill="#263238"/>
<path d="M531.083 150.106C531.138 150.161 529.86 150.87 529.063 152.388C528.233 153.894 528.342 155.346 528.266 155.335C528.244 155.335 528.178 154.986 528.222 154.418C528.266 153.85 528.441 153.064 528.866 152.289C529.282 151.514 529.838 150.925 530.297 150.586C530.745 150.215 531.073 150.084 531.083 150.106Z" fill="#263238"/>
<path d="M535.135 157.748C535.092 157.748 535.07 157.388 534.851 156.864C534.644 156.34 534.207 155.674 533.552 155.095C532.219 153.971 530.876 153.414 530.931 153.326C530.941 153.305 531.28 153.436 531.793 153.687C532.307 153.949 533.027 154.331 533.705 154.931C534.382 155.532 534.818 156.252 535.004 156.809C535.19 157.377 535.157 157.748 535.135 157.748Z" fill="#263238"/>
<path d="M395.53 135.139C395.52 135.128 395.771 134.921 396.284 134.55C396.797 134.189 397.584 133.709 398.676 133.24C400.827 132.323 404.388 131.449 408.581 132.475C410.656 132.978 412.84 134.015 414.752 135.663C416.674 137.301 418.334 139.429 419.939 141.711C421.545 144.004 423.183 146.416 425.159 148.709C427.114 151.012 429.31 153.261 431.723 155.379C436.561 159.582 441.771 162.977 447.056 164.702C449.688 165.564 452.309 166.001 454.767 165.979C457.224 166.001 459.506 165.477 461.276 164.374C463.056 163.294 464.312 161.831 465.338 160.521C466.354 159.2 467.151 157.999 467.807 157.005C468.429 156.056 468.931 155.292 469.303 154.735C469.652 154.222 469.838 153.949 469.86 153.96C469.882 153.971 469.718 154.254 469.401 154.789C469.052 155.368 468.582 156.143 467.992 157.115C467.37 158.119 466.594 159.342 465.59 160.695C464.585 162.038 463.329 163.556 461.494 164.702C459.681 165.881 457.289 166.438 454.778 166.438C452.266 166.481 449.579 166.045 446.903 165.182C441.519 163.457 436.234 160.029 431.352 155.794C428.916 153.665 426.71 151.394 424.734 149.058C422.746 146.733 421.086 144.287 419.513 142.006C417.93 139.724 416.302 137.617 414.446 136.012C412.6 134.397 410.503 133.371 408.483 132.857C404.409 131.809 400.904 132.595 398.763 133.436C396.579 134.32 395.574 135.216 395.53 135.139Z" fill="#263238"/>
<path d="M422.735 125.456C422.735 125.456 422.462 125.478 421.971 125.5C421.479 125.51 420.758 125.565 419.874 125.663C418.115 125.86 415.702 126.34 413.168 127.312C410.645 128.283 408.527 129.55 407.096 130.587C406.375 131.1 405.807 131.547 405.436 131.864C405.054 132.181 404.835 132.355 404.835 132.355C404.835 132.355 405.611 131.58 407.041 130.521C408.472 129.462 410.591 128.185 413.124 127.203C415.658 126.231 418.094 125.762 419.863 125.587C421.632 125.401 422.735 125.456 422.735 125.456Z" fill="#FAFAFA"/>
<path d="M440.263 136.067C440.263 136.067 439.979 136.111 439.466 136.176C438.953 136.231 438.199 136.362 437.293 136.547C435.469 136.919 432.979 137.639 430.413 138.862C427.846 140.095 425.727 141.58 424.308 142.781C423.598 143.381 423.03 143.883 422.659 144.244C422.287 144.604 422.069 144.8 422.069 144.8C422.069 144.8 422.833 143.927 424.253 142.715C425.673 141.504 427.791 139.997 430.369 138.763C432.946 137.53 435.447 136.82 437.282 136.471C439.106 136.122 440.263 136.067 440.263 136.067Z" fill="#FAFAFA"/>
<path d="M439.728 160.925C439.728 160.925 439.652 160.63 439.575 160.084C439.499 159.538 439.444 158.741 439.499 157.759C439.586 155.794 440.274 153.108 441.738 150.488C443.201 147.868 444.981 145.794 446.27 144.32C447.57 142.857 448.421 141.984 448.421 141.984C448.421 141.984 448.225 142.213 447.864 142.628C447.417 143.141 446.903 143.72 446.336 144.364C445.058 145.848 443.299 147.923 441.847 150.532C440.394 153.141 439.696 155.805 439.586 157.759C439.521 158.73 439.564 159.527 439.63 160.073C439.652 160.346 439.695 160.553 439.717 160.695C439.717 160.848 439.728 160.925 439.728 160.925Z" fill="#FAFAFA"/>
<path d="M458.579 148.722C458.473 148.237 458.388 147.627 458.371 146.962C458.36 146.121 458.458 145.368 458.578 144.833C458.646 144.588 458.637 147.367 458.617 148.89C458.603 149.967 458.583 150.416 458.579 148.722Z" fill="#FAFAFA"/>
<path d="M462.313 163.228C462.313 163.228 461.592 162.802 460.566 161.929C459.539 161.056 458.251 159.68 457.169 157.912C456.088 156.143 455.455 154.374 455.149 153.054C454.832 151.744 454.789 150.903 454.789 150.903C454.789 150.903 454.832 151.11 454.898 151.482C454.952 151.853 455.062 152.388 455.236 153.043C455.564 154.342 456.208 156.099 457.279 157.857C458.349 159.604 459.627 160.979 460.631 161.874C461.134 162.322 461.56 162.66 461.865 162.879C462.149 163.097 462.313 163.228 462.313 163.228Z" fill="#FAFAFA"/>
<path d="M477.046 148.119C477.046 148.119 476.489 147.868 475.626 147.366C474.774 146.875 473.617 146.121 472.426 145.183C471.236 144.244 470.253 143.294 469.576 142.573C468.899 141.853 468.527 141.362 468.527 141.362C468.527 141.362 468.636 141.471 468.833 141.667C469.106 141.951 469.379 142.235 469.641 142.508C470.329 143.218 471.323 144.145 472.513 145.084C473.693 146.023 474.84 146.776 475.681 147.289C476.008 147.486 476.347 147.683 476.685 147.879C476.926 148.032 477.046 148.119 477.046 148.119Z" fill="#FAFAFA"/>
<path d="M501.127 139.244C501.138 139.244 501.127 139.375 501.116 139.604C501.083 139.942 501.05 140.259 501.029 140.576C500.941 141.394 500.777 142.519 500.515 143.742C500.264 144.964 499.969 146.067 499.729 146.853C499.631 147.148 499.532 147.453 499.434 147.781C499.358 147.999 499.314 148.119 499.303 148.108C499.292 148.108 499.325 147.988 499.39 147.759C499.478 147.431 499.565 147.126 499.653 146.831C499.871 146.045 500.155 144.942 500.406 143.72C500.657 142.497 500.832 141.383 500.941 140.565C500.985 140.259 501.029 139.942 501.072 139.604C501.094 139.364 501.116 139.233 501.127 139.244Z" fill="#FAFAFA"/>
<path d="M510.377 148.217C510.344 148.207 510.486 147.41 510.694 146.438C510.901 145.455 511.087 144.669 511.12 144.68C511.152 144.691 511.01 145.488 510.803 146.46C510.606 147.442 510.41 148.228 510.377 148.217Z" fill="#FAFAFA"/>
<path d="M525.688 153.305C525.667 153.305 525.732 153.021 525.776 152.573C525.83 152.115 525.863 151.482 525.874 150.783C525.874 150.292 525.874 149.779 525.885 148.993C525.885 148.829 525.885 148.643 525.885 148.447C525.885 148.316 525.885 148.25 525.896 148.25C525.918 148.25 525.94 148.534 525.962 148.993C525.983 149.451 526.005 150.084 525.983 150.794C525.972 151.492 525.918 152.137 525.852 152.584C525.787 153.032 525.688 153.305 525.688 153.305Z" fill="#FAFAFA"/>
<path d="M528.626 156.864C527.447 152.104 522.565 149.058 517.727 148.294C512.889 147.53 507.963 148.534 503.104 149.145C498.244 149.757 493.056 149.92 488.709 147.672C487.323 150.215 486.613 153.119 486.678 156.023C487.53 156.045 488.382 156.056 489.234 156.078C489.758 159.767 493.143 162.584 496.78 163.381C500.417 164.178 502.82 164.2 506.227 162.715C509.809 161.154 514.44 158.774 517.956 157.54C521.473 156.307 525.372 155.695 528.91 156.864" fill="#455A64"/>
<path d="M489.419 153.938C489.398 154.003 488.808 153.894 488.065 153.818C487.323 153.73 486.722 153.709 486.722 153.643C486.722 153.578 487.333 153.501 488.098 153.588C488.851 153.665 489.441 153.872 489.419 153.938Z" fill="#263238"/>
<path d="M489.965 150.979C489.922 151.034 489.463 150.674 488.797 150.444C488.131 150.204 487.552 150.193 487.552 150.128C487.541 150.073 488.163 149.975 488.873 150.237C489.583 150.477 490.009 150.936 489.965 150.979Z" fill="#263238"/>
<path d="M494.869 162.704C494.858 162.704 494.793 162.529 494.683 162.202C494.574 161.874 494.443 161.394 494.312 160.804C494.05 159.604 493.864 157.912 493.984 156.045C494.115 154.178 494.541 152.519 494.967 151.372C495.175 150.794 495.371 150.346 495.524 150.041C495.677 149.735 495.765 149.571 495.775 149.571C495.808 149.593 495.492 150.27 495.109 151.427C494.727 152.573 494.334 154.222 494.203 156.067C494.072 157.912 494.236 159.593 494.454 160.783C494.683 161.973 494.913 162.693 494.869 162.704Z" fill="#FAFAFA"/>
<path d="M504.327 156.274C504.359 156.274 504.403 156.623 504.501 157.191C504.6 157.759 504.753 158.534 504.971 159.385C505.419 161.077 505.867 162.442 505.79 162.464C505.757 162.475 505.626 162.147 505.419 161.601C505.222 161.056 504.971 160.302 504.742 159.44C504.523 158.588 504.381 157.791 504.327 157.213C504.283 156.645 504.294 156.285 504.327 156.274Z" fill="#FAFAFA"/>
<path d="M502.972 152.573C503.038 152.584 503.005 153.37 503.093 154.353C503.169 155.324 503.333 156.11 503.267 156.121C503.213 156.143 502.951 155.368 502.863 154.364C502.787 153.37 502.918 152.573 502.972 152.573Z" fill="#FAFAFA"/>
<path d="M505.321 148.763C505.386 148.796 505.091 149.495 504.927 150.401C504.753 151.307 504.774 152.071 504.709 152.071C504.654 152.082 504.523 151.296 504.698 150.357C504.873 149.418 505.266 148.731 505.321 148.763Z" fill="#FAFAFA"/>
<path d="M512.867 150.892C512.823 150.936 512.376 150.412 512.19 149.604C511.993 148.796 512.146 148.13 512.201 148.141C512.266 148.152 512.223 148.796 512.408 149.549C512.583 150.303 512.922 150.848 512.867 150.892Z" fill="#FAFAFA"/>
<path d="M518.732 157.016C518.71 157.027 518.459 156.711 518.098 156.154C517.749 155.597 517.301 154.8 516.908 153.872C516.515 152.944 516.242 152.071 516.089 151.438C515.936 150.794 515.87 150.39 515.903 150.39C515.936 150.379 516.045 150.772 516.242 151.394C516.438 152.016 516.733 152.868 517.115 153.785C517.509 154.702 517.924 155.499 518.229 156.078C518.557 156.656 518.764 157.005 518.732 157.016Z" fill="#FAFAFA"/>
<path d="M520.37 149.102C520.403 149.156 520.217 149.331 520.031 149.582C519.846 149.833 519.736 150.062 519.671 150.051C519.616 150.041 519.638 149.735 519.846 149.451C520.064 149.156 520.337 149.047 520.37 149.102Z" fill="#FAFAFA"/>
<path d="M510.792 152.093C510.792 152.093 510.519 152.224 510.017 152.431C509.525 152.65 508.783 152.933 507.865 153.239C506.03 153.861 503.387 154.516 500.417 154.473C497.446 154.451 494.825 153.741 492.969 153.217C491.112 152.671 489.976 152.268 489.976 152.268C489.976 152.268 490.271 152.344 490.785 152.497C491.44 152.682 492.161 152.901 492.991 153.13C494.847 153.632 497.468 154.32 500.417 154.342C503.366 154.385 505.998 153.741 507.832 153.152C508.75 152.846 509.492 152.584 509.984 152.377C510.508 152.18 510.792 152.093 510.792 152.093Z" fill="#FAFAFA"/>
<path d="M521.877 150.925C521.877 150.925 521.779 150.87 521.615 150.75C521.451 150.63 521.189 150.477 520.839 150.281C520.151 149.91 519.092 149.462 517.716 149.2C516.34 148.938 514.658 148.862 512.812 149.047C510.967 149.222 508.968 149.648 506.86 150.041C502.645 150.925 498.691 150.728 495.917 150.335C493.133 149.953 491.44 149.517 491.44 149.517C491.44 149.517 491.866 149.593 492.641 149.735C493.416 149.877 494.53 150.073 495.928 150.248C498.702 150.619 502.634 150.805 506.839 149.92C508.946 149.527 510.945 149.113 512.801 148.938C514.658 148.752 516.351 148.84 517.727 149.124C519.114 149.396 520.173 149.855 520.861 150.237C521.538 150.641 521.877 150.925 521.877 150.925Z" fill="#FAFAFA"/>
<path d="M510.311 152.944C510.57 152.795 510.833 152.645 511.103 152.497H510.038C508.455 153.447 507.079 154.364 505.856 154.997C503.42 156.318 501.64 156.361 501.662 156.471C501.662 156.492 501.771 156.503 501.979 156.492C502.186 156.481 502.503 156.481 502.885 156.405C503.661 156.296 504.774 155.968 506.041 155.357C507.319 154.757 508.728 153.861 510.311 152.944Z" fill="#263238"/>
<path d="M513.588 151.089C513.642 151.22 510.727 152.311 506.926 152.562C503.125 152.846 500.089 152.18 500.122 152.049C500.144 151.875 503.169 152.278 506.882 151.995C510.606 151.754 513.544 150.925 513.588 151.089Z" fill="#263238"/>
<path d="M504.873 141.711C504.873 141.711 504.753 141.646 504.545 141.525C504.327 141.405 504.021 141.209 503.595 140.98C502.765 140.521 501.542 139.899 499.98 139.255C496.868 137.977 492.237 136.777 487.071 136.94C481.895 137.104 477.352 138.589 474.326 140.052C472.797 140.783 471.618 141.482 470.821 141.995C470.417 142.246 470.122 142.464 469.914 142.595C469.707 142.737 469.598 142.803 469.598 142.803C469.598 142.803 470.013 142.486 470.799 141.962C471.585 141.438 472.765 140.728 474.294 139.986C477.319 138.491 481.873 136.984 487.071 136.831C492.27 136.667 496.9 137.879 500.024 139.189C501.596 139.833 502.809 140.467 503.628 140.947C504.436 141.416 504.873 141.711 504.873 141.711Z" fill="#FAFAFA"/>
<path d="M482.681 146.569C482.681 146.569 482.626 146.416 482.539 146.143C482.463 145.859 482.332 145.466 482.179 144.975C481.851 143.993 481.349 142.661 480.639 141.242C479.929 139.833 479.175 138.622 478.586 137.77C478.291 137.344 478.051 137.006 477.876 136.777C477.701 136.547 477.614 136.405 477.614 136.405C477.614 136.405 478.051 136.886 478.651 137.726C479.263 138.567 480.038 139.779 480.748 141.198C481.458 142.617 481.949 143.96 482.255 144.953C482.561 145.936 482.681 146.569 482.681 146.569Z" fill="#FAFAFA"/>
<path d="M494.301 136.427C494.301 136.427 494.378 137.028 494.388 138.021C494.399 139.004 494.345 140.368 494.137 141.853C493.919 143.338 493.591 144.669 493.307 145.608C493.023 146.547 492.772 147.115 492.772 147.115C492.772 147.115 492.805 146.962 492.892 146.7C493.002 146.318 493.122 145.958 493.231 145.586C493.504 144.648 493.821 143.327 494.028 141.842C494.236 140.357 494.312 139.004 494.312 138.021C494.312 137.639 494.312 137.257 494.301 136.853C494.29 136.58 494.301 136.427 494.301 136.427Z" fill="#FAFAFA"/>
<path d="M452.255 151.547C452.255 151.547 452.113 151.121 451.993 150.412C451.873 149.702 451.785 148.698 451.851 147.606C451.916 146.503 452.135 145.521 452.331 144.833C452.539 144.145 452.735 143.742 452.735 143.742C452.746 143.742 452.714 143.851 452.648 144.047C452.582 144.233 452.506 144.517 452.408 144.866C452.222 145.554 452.025 146.536 451.96 147.617C451.894 148.709 451.971 149.702 452.069 150.412C452.124 150.761 452.167 151.056 452.211 151.252C452.244 151.438 452.266 151.547 452.255 151.547Z" fill="#FAFAFA"/>
<path d="M452.2 165.695C452.2 165.695 451.84 165.04 451.392 163.927C450.944 162.813 450.42 161.23 450.049 159.418C449.688 157.617 449.557 155.947 449.546 154.746C449.535 153.545 449.612 152.802 449.612 152.802C449.612 152.802 449.623 152.988 449.612 153.326C449.601 153.665 449.612 154.145 449.623 154.746C449.656 155.947 449.798 157.606 450.158 159.396C450.518 161.187 451.032 162.77 451.458 163.894C451.676 164.451 451.862 164.909 451.993 165.215C452.135 165.521 452.2 165.695 452.2 165.695Z" fill="#FAFAFA"/>
<path d="M465.033 142.956C465.065 142.956 465.065 143.359 465.229 143.807C465.393 144.266 465.655 144.56 465.633 144.582C465.611 144.604 465.295 144.32 465.12 143.84C464.945 143.37 465.011 142.945 465.033 142.956Z" fill="#FAFAFA"/>
<path d="M434.243 145.389C433.59 145.555 433.754 145.624 434.243 145.389Z" fill="#FAFAFA"/>
<path d="M430.576 127.934C430.576 127.934 430.336 127.999 429.899 128.098C429.462 128.196 428.818 128.349 428.043 128.567C426.481 128.993 424.362 129.703 422.123 130.729C419.885 131.766 417.973 132.923 416.63 133.829C415.964 134.277 415.429 134.659 415.068 134.932C414.708 135.205 414.5 135.347 414.5 135.347C414.5 135.347 415.254 134.692 416.586 133.764C417.908 132.836 419.83 131.668 422.069 130.63C424.319 129.593 426.448 128.906 428.01 128.491C429.583 128.076 430.576 127.934 430.576 127.934Z" fill="#FAFAFA"/>
<path d="M519.704 147.158C519.736 147.169 519.682 147.464 519.594 147.835C519.507 148.207 519.409 148.49 519.376 148.49C519.343 148.479 519.398 148.185 519.485 147.813C519.573 147.442 519.671 147.148 519.704 147.158Z" fill="#FAFAFA"/>
<path d="M569.297 146.667C569.297 146.667 574.222 147.693 576.33 148.152C577.007 148.305 577.717 148.196 578.405 148.316C581.768 148.883 586.323 148.6 587.524 148.152C589.61 147.388 589.697 150.051 587.447 151.198C585.198 152.344 583.811 152.464 583.811 152.464L589.228 156.82C589.512 157.049 589.697 157.366 589.741 157.726L591.128 167.333C591.281 168.141 590.855 168.992 590.068 169.232C589.686 169.352 589.293 169.309 589.031 168.861L589.184 170.149C589.435 172.289 586.224 172.835 585.842 170.717C585.842 170.695 585.831 170.662 585.831 170.641L583.92 171.721C583.92 171.721 582.653 173.031 581.288 171.208C580.163 169.702 576.777 163.719 576.777 163.719C576.777 163.719 562.383 157.66 562.613 155.237L569.297 146.667Z" fill="#FFBE9D"/>
<path d="M589.042 168.872C588.824 168.916 588.463 165.422 587.579 161.263C587.349 160.226 587.174 159.178 586.65 158.556C586.05 157.89 585.416 157.333 584.881 156.896C584.346 156.46 583.887 156.143 583.549 155.957C583.21 155.772 583.003 155.728 583.014 155.685C583.014 155.652 583.254 155.63 583.636 155.761C584.018 155.892 584.542 156.165 585.121 156.58C585.711 156.995 586.366 157.519 587.033 158.217C587.742 159.036 587.884 160.117 588.125 161.154C588.605 163.261 588.813 165.204 588.944 166.612C589.075 167.999 589.097 168.872 589.042 168.872Z" fill="#EB996E"/>
<path d="M577.269 159.778C577.313 159.713 578.023 160.051 579.158 160.663C579.453 160.826 579.759 161.001 580.076 161.165C580.382 161.339 580.807 161.547 581.113 161.918C581.441 162.278 581.594 162.77 581.725 163.195C581.867 163.643 582.009 164.09 582.151 164.56C583.297 168.304 584.106 171.383 583.953 171.416C583.8 171.459 582.751 168.468 581.616 164.735C581.474 164.265 581.343 163.818 581.201 163.37C581.07 162.911 580.96 162.529 580.72 162.245C580.491 161.94 580.174 161.776 579.846 161.558C579.541 161.361 579.257 161.176 578.962 160.99C577.87 160.313 577.225 159.844 577.269 159.778Z" fill="#EB996E"/>
<path d="M577.651 149.407C577.728 149.189 579.759 149.986 582.031 151.307C584.335 152.606 585.995 154.003 585.875 154.134C585.787 154.233 584.029 153.086 581.747 151.798C580.764 151.23 579.846 150.706 578.842 150.128C578.088 149.691 577.64 149.473 577.651 149.407Z" fill="#EB996E"/>
</g>
<defs>
<clipPath id="clip0_1_86">
<rect width="716" height="417" fill="white"/>
</clipPath>
</defs>
</svg>
