<svg width="633" height="403" viewBox="0 0 633 403" fill="none" xmlns="http://www.w3.org/2000/svg">
<g clip-path="url(#clip0_1_4997)">
<path d="M574.228 112.793C577.948 111.234 580.588 107.411 580.606 102.899C580.633 96.9925 576.152 92.1818 570.608 92.1547C565.065 92.1275 560.547 96.8928 560.52 102.8C560.501 107.348 563.16 111.225 566.916 112.783C551.465 115.112 552.164 131.881 552.164 131.881L588.708 132.053C588.717 132.053 589.552 115.103 574.228 112.793Z" fill="#EBEBEB"/>
<path d="M135.888 61.216C139.282 59.7936 141.686 56.3057 141.713 52.1926C141.731 46.8021 137.649 42.4172 132.586 42.39C127.524 42.3629 123.405 46.7206 123.387 52.102C123.368 56.2513 125.8 59.7846 129.229 61.216C115.13 63.3359 115.766 78.6377 115.766 78.6377L149.107 78.7917C149.107 78.7917 149.86 63.3178 135.888 61.216Z" fill="#EBEBEB"/>
<path d="M459.47 52.3828C462.119 51.2685 464.006 48.5416 464.024 45.3163C464.042 41.0945 460.849 37.6609 456.884 37.6428C452.928 37.6247 449.699 41.0311 449.68 45.2438C449.671 48.4963 451.568 51.2594 454.253 52.3738C443.221 54.0317 443.72 66.0085 443.72 66.0085L469.812 66.1263C469.821 66.1444 470.411 54.0317 459.47 52.3828Z" fill="#EBEBEB"/>
<path d="M456.775 81.6002C440.844 81.6002 427.888 68.663 427.888 52.7543C427.888 36.8456 440.844 23.9084 456.775 23.9084C472.707 23.9084 485.662 36.8456 485.662 52.7543C485.653 68.663 472.697 81.6002 456.775 81.6002ZM456.775 25.0499C441.479 25.0499 429.031 37.4797 429.031 52.7543C429.031 68.0288 441.479 80.4587 456.775 80.4587C472.071 80.4587 484.519 68.0288 484.519 52.7543C484.51 37.4797 472.071 25.0499 456.775 25.0499Z" fill="#EBEBEB"/>
<path d="M352.858 103.434C355.647 103.452 357.889 105.846 357.903 108.806H355.036C349.048 108.806 347.769 111.098 347.778 108.806C347.787 105.826 350.064 103.425 352.858 103.434Z" fill="#EBEBEB"/>
<path d="M40.6087 202.628C42.3143 201.912 43.53 200.155 43.5391 198.089C43.5482 195.38 41.4978 193.17 38.9484 193.161C36.4081 193.152 34.3305 195.335 34.3214 198.044C34.3123 200.137 35.5371 201.912 37.2609 202.628C30.1662 203.697 30.4928 211.389 30.4928 211.389L47.2588 211.47C47.2588 211.47 47.6399 203.688 40.6087 202.628Z" fill="#EBEBEB"/>
<path d="M38.8758 221.644C28.524 221.644 20.1047 213.237 20.1047 202.9C20.1047 192.563 28.524 184.155 38.8758 184.155C49.2276 184.155 57.6469 192.563 57.6469 202.9C57.6469 213.237 49.2276 221.644 38.8758 221.644ZM38.8758 185.306C29.1591 185.306 21.2569 193.197 21.2569 202.9C21.2569 212.603 29.1591 220.494 38.8758 220.494C48.5925 220.494 56.4947 212.603 56.4947 202.9C56.4947 193.197 48.5925 185.306 38.8758 185.306Z" fill="#EBEBEB"/>
<path d="M51.4594 188.658C51.3234 188.567 65.7759 166.561 83.7305 139.518C101.694 112.466 116.364 90.6145 116.51 90.7051C116.646 90.7957 102.202 112.793 84.2294 139.845C66.2749 166.897 51.5955 188.758 51.4594 188.658Z" fill="#EBEBEB"/>
<path d="M371.729 109.477C371.656 109.368 385.692 100.408 403.057 89.473C420.43 78.529 434.574 69.7592 434.647 69.8679C434.72 69.9767 420.694 78.9366 403.311 89.8716C385.946 100.807 371.802 109.585 371.729 109.477Z" fill="#EBEBEB"/>
<path d="M333.243 114.133C333.225 114.26 295.175 107.792 248.27 99.6923C201.356 91.5839 163.351 84.907 163.369 84.7801C163.387 84.6533 201.428 91.1219 248.343 99.2212C295.257 107.33 333.261 114.007 333.243 114.133Z" fill="#EBEBEB"/>
<path d="M535.28 95.8872C535.216 95.996 523.467 89.011 509.042 80.2775C494.617 71.544 482.986 64.3688 483.049 64.26C483.113 64.1513 494.862 71.1363 509.287 79.8789C523.712 88.6033 535.352 95.7695 535.28 95.8872Z" fill="#EBEBEB"/>
<path d="M95.5883 67.5849C95.5883 67.7118 84.6559 67.9564 71.165 68.1104C57.6741 68.2735 46.7327 68.3006 46.7327 68.1647C46.7327 68.0379 57.6651 67.7933 71.165 67.6393C84.6377 67.4853 95.5792 67.4581 95.5883 67.5849Z" fill="#EBEBEB"/>
<path d="M33.2599 79.6614C26.646 79.6614 21.257 74.289 21.257 67.6755C21.257 61.071 26.637 55.6896 33.2599 55.6896C39.8738 55.6896 45.2629 61.062 45.2629 67.6755C45.2629 74.289 39.8738 79.6614 33.2599 79.6614ZM33.2599 56.8402C27.272 56.8402 22.4001 61.7052 22.4001 67.6846C22.4001 73.6639 27.272 78.529 33.2599 78.529C39.2478 78.529 44.1107 73.6549 44.1107 67.6755C44.1107 61.6961 39.2387 56.8402 33.2599 56.8402Z" fill="#EBEBEB"/>
<path d="M5.45262 332.706C5.45262 333.277 5.45262 364.46 5.45262 364.46H0.136108V367.903H5.44354V389.157H104.697V369.815H97.3484V365.602H104.697V359.287H107.963V356.415H104.08V332.706H5.45262Z" fill="#F5F5F5"/>
<path d="M78.3413 332.797V388.804H104.697V369.461H97.3392V365.611L104.697 365.738V359.423H108.027L107.963 356.162L104.08 356.062V332.706L78.3413 332.797Z" fill="#E0E0E0"/>
<path d="M80.2194 364.225C80.2194 364.415 62.2648 364.578 40.1097 364.578C17.9545 364.578 0 364.424 0 364.225C0 364.034 17.9545 363.871 40.1097 363.871C62.2558 363.871 80.2194 364.025 80.2194 364.225Z" fill="#E0E0E0"/>
<path d="M85.3726 355.546C85.3726 355.736 67.418 355.899 45.2629 355.899C23.1077 355.899 5.1532 355.745 5.1532 355.546C5.1532 355.355 23.1077 355.192 45.2629 355.192C67.409 355.192 85.3726 355.346 85.3726 355.546Z" fill="#E0E0E0"/>
<path d="M85.8624 379.2C85.8624 379.391 67.9079 379.554 45.7528 379.554C23.5976 379.554 5.64307 379.4 5.64307 379.2C5.64307 379.01 23.5976 378.847 45.7528 378.847C67.9079 378.847 85.8624 379.001 85.8624 379.2Z" fill="#E0E0E0"/>
<path d="M16.5029 276.808C16.5029 277.379 16.5029 308.562 16.5029 308.562H11.1954V312.005H16.5029V333.259H115.747V313.917H108.399V309.704H115.747V303.389H119.013V300.517H115.13V276.808H16.5029Z" fill="#F5F5F5"/>
<path d="M89.3916 276.899V332.906H115.747V313.563H108.399V309.704L115.747 309.84V303.516L119.077 303.525L119.013 300.255L115.139 300.164V276.808L89.3916 276.899Z" fill="#E0E0E0"/>
<path d="M91.2697 311.552C91.2697 311.742 73.3151 311.905 51.16 311.905C29.0048 311.905 11.0503 311.751 11.0503 311.552C11.0503 311.362 29.0048 311.199 51.16 311.199C73.3151 311.199 91.2697 311.353 91.2697 311.552Z" fill="#E0E0E0"/>
<path d="M91.2697 308.327C91.2697 308.517 73.3151 308.68 51.16 308.68C29.0048 308.68 11.0503 308.526 11.0503 308.327C11.0503 308.137 29.0048 307.973 51.16 307.973C73.3151 307.973 91.2697 308.127 91.2697 308.327Z" fill="#E0E0E0"/>
<path d="M96.4229 299.639C96.4229 299.829 78.4683 299.992 56.3132 299.992C34.158 299.992 16.2035 299.838 16.2035 299.639C16.2035 299.448 34.158 299.285 56.3132 299.285C78.4683 299.294 96.4229 299.448 96.4229 299.639Z" fill="#E0E0E0"/>
<path d="M96.9219 323.302C96.9219 323.493 78.9673 323.656 56.8122 323.656C34.6571 323.656 16.7025 323.502 16.7025 323.302C16.7025 323.112 34.6571 322.949 56.8122 322.949C78.9583 322.949 96.9219 323.103 96.9219 323.302Z" fill="#E0E0E0"/>
<path d="M602.425 277.397C608.25 274.398 615.109 274.009 621.578 275.069C625.052 275.64 628.672 276.681 631.04 279.291C633.408 281.9 633.853 286.484 631.14 288.722C629.525 290.053 627.266 290.253 625.17 290.235C620.108 290.171 614.492 289.283 610.446 292.327C608.141 294.067 606.599 296.948 603.841 297.799C601.146 298.633 598.098 297.048 596.664 294.61C595.231 292.173 595.186 289.138 595.857 286.393C595.857 286.402 596.556 280.423 602.425 277.397Z" fill="#EBEBEB"/>
<path d="M589.08 251.668C592.645 256.75 599.568 255.065 602.779 251.967C605.991 248.868 607.343 244.375 608.577 240.09C611.398 230.296 614.247 220.022 612.142 210.057C611.516 207.076 610.4 204.105 608.305 201.894C606.209 199.684 602.979 198.37 600.03 199.149C596.538 200.073 594.369 203.48 592.8 206.732C588.191 216.281 585.75 226.862 585.714 237.462C585.696 242.391 586.286 247.582 589.08 251.668Z" fill="#EBEBEB"/>
<path d="M579.3 258.961C583.165 254.377 583.899 247.691 582.185 241.947C580.461 236.203 576.578 231.32 572.096 227.334C566.843 222.659 560.665 219.017 554.033 216.688C551.42 215.773 548.662 215.049 545.904 215.311C543.146 215.574 540.369 216.978 539.081 219.434C537.176 223.057 538.999 227.451 540.977 231.03C544.452 237.344 548.426 243.387 552.844 249.077C556.401 253.652 560.474 258.173 565.899 260.238C571.316 262.304 576.95 262.068 579.826 258.308" fill="#EBEBEB"/>
<path d="M588.835 328.303C588.898 328.303 589.007 327.488 589.162 325.993C589.325 324.317 589.534 322.206 589.778 319.697C590.069 317.042 590.459 313.889 591.194 310.456C591.929 307.031 593.081 303.317 594.56 299.548C596.093 295.806 597.953 292.4 600.139 289.682C602.308 286.946 604.821 284.971 607.189 283.829C609.548 282.67 611.661 282.19 613.122 281.981C614.601 281.827 615.427 281.71 615.427 281.646C615.427 281.583 614.601 281.574 613.086 281.61C611.589 281.71 609.384 282.09 606.898 283.222C604.403 284.328 601.736 286.339 599.459 289.129C597.173 291.911 595.231 295.39 593.68 299.195C592.174 303.027 591.04 306.778 590.341 310.284C589.642 313.781 589.325 316.97 589.107 319.642C588.908 322.315 588.835 324.48 588.799 325.984C588.753 327.47 588.771 328.303 588.835 328.303Z" fill="#E0E0E0"/>
<path d="M589.334 298.089C589.397 298.089 589.388 296.948 589.316 294.891C589.198 292.835 588.917 289.863 588.336 286.221C587.719 282.588 586.866 278.276 585.514 273.592C584.934 271.454 583.555 266.317 580.225 258.644C575.834 248.252 569.873 239.754 564.693 234.491C563.477 233.095 562.125 232.09 561.037 231.102C560.474 230.631 559.984 230.16 559.476 229.78C558.968 229.426 558.496 229.109 558.061 228.801C556.355 227.633 555.403 227.026 555.366 227.08C555.212 227.288 559.186 229.626 564.212 234.953C569.211 240.271 575.008 248.714 579.354 259.015C581.777 264.605 583.473 269.588 584.671 273.819C586.059 278.457 586.975 282.724 587.674 286.321C588.336 289.927 588.717 292.871 588.953 294.9C589.134 296.966 589.27 298.089 589.334 298.089Z" fill="#E0E0E0"/>
<path d="M564.784 342.844L567.333 377.66H612.133L614.674 342.844H564.784Z" fill="#E0E0E0"/>
<path d="M620.026 329.11H560.456V342.835H620.026V329.11Z" fill="#E0E0E0"/>
<path d="M560.456 376.328V380.133H563.25H619.037V376.328H560.456Z" fill="#EBEBEB"/>
<path d="M565.999 386.838L563.25 380.133H616.905L613.703 386.838H565.999Z" fill="#E0E0E0"/>
<path d="M603.902 350.161C603.84 350.075 603.777 349.988 603.714 349.901H604.086C604.025 349.988 603.964 350.074 603.902 350.161C602.045 352.793 599.984 355.703 597.771 358.825L597.572 359.106L597.354 358.843C595.088 356.149 592.633 353.241 590.09 350.21C590.025 350.291 589.96 350.374 589.896 350.454C587.574 353.362 585.324 356.171 583.201 358.834L582.974 359.115L582.765 358.825C580.555 355.712 578.49 352.787 576.62 350.14C576.563 350.061 576.507 349.981 576.451 349.901L576.814 349.92C576.749 349.993 576.684 350.067 576.62 350.14C578.49 352.787 580.555 355.712 582.765 358.825L582.974 359.115L583.201 358.834C585.324 356.171 587.574 353.362 589.896 350.454C589.96 350.374 590.025 350.291 590.09 350.21C590.016 350.122 589.943 350.035 589.869 349.947L590.305 349.938C590.237 350.025 590.164 350.117 590.09 350.21C592.633 353.241 595.088 356.149 597.354 358.843L597.572 359.106L597.771 358.825C599.984 355.703 602.045 352.793 603.902 350.161Z" fill="#F5F5F5"/>
<path d="M615.299 342.608C615.299 342.762 604.077 342.889 590.232 342.889C576.378 342.889 565.156 342.762 565.156 342.608C565.156 342.454 576.378 342.328 590.232 342.328C604.077 342.328 615.299 342.454 615.299 342.608Z" fill="#F5F5F5"/>
<path d="M368.291 299.675C368.291 299.675 377.871 293.714 381.491 294.112L402.24 298.941C402.24 298.941 404.018 300.88 400.416 302.664C396.869 304.422 392.251 301.885 392.251 301.885L387.198 302.592L390.682 305.5L404.445 309.722C404.445 309.722 414.415 312.539 413.209 314.007C412.002 315.475 408.999 315.647 404.699 314.433C400.398 313.219 394.937 311.679 394.937 311.679C394.937 311.679 393.231 311.307 395.971 313.219C398.72 315.131 410.804 318.084 412.392 318.872C413.98 319.66 418.326 320.322 417.854 322.795C417.382 325.268 411.939 323.275 411.939 323.275L394.066 319.135C394.066 319.135 401.124 322.179 402.322 322.741C403.519 323.302 407.43 324.38 409.516 325.422C411.603 326.464 412.601 327.841 412.365 328.937C411.929 330.912 410.106 330.695 410.106 330.695L394.982 325.513C394.982 325.513 388.123 322.786 387.66 322.877C387.198 322.976 390.337 325.893 390.337 325.893L395.163 328.358C395.163 328.358 402.131 330.686 402.149 332.616C402.167 334.545 400.716 334.473 400.716 334.473L388.014 330.097L373.834 322.922L363.21 316.417C363.21 316.417 365.124 308.934 364.761 308.608C364.417 308.281 368.291 299.675 368.291 299.675Z" fill="#FFBE9D"/>
<path d="M373.262 313.735C373.226 313.59 374.587 313.237 376.683 312.485C378.715 311.724 381.7 310.392 383.233 307.43C383.914 306.134 384.168 304.703 383.923 303.471L383.832 303.018L384.331 302.954C386.526 302.674 388.586 302.193 389.974 302.003C391.38 301.777 392.251 301.759 392.251 301.876C392.251 301.958 391.462 302.148 390.083 302.52C388.677 302.855 386.826 303.435 384.358 303.815L384.766 303.299C385.093 304.73 384.821 306.406 384.05 307.847C383.215 309.459 381.918 310.691 380.602 311.489C379.287 312.304 377.98 312.766 376.891 313.092C374.687 313.708 373.29 313.835 373.262 313.735Z" fill="#EB996E"/>
<path d="M178.275 391.014L176.588 328.484L286.402 330.604L301.353 388.668L178.275 391.014Z" fill="#263238"/>
<path d="M232.919 153.751L224.663 161.561C224.663 161.561 193.789 169.225 188.4 174.606C183.002 179.997 180.19 263.056 180.552 268.8C180.915 274.543 180.534 324.462 180.534 324.462C180.534 324.462 178.72 343.496 180.534 344.574C182.349 345.652 216.97 346.115 234.235 346.477C251.5 346.839 288.107 347.845 290.267 346.051C292.426 344.257 284.905 307.031 284.905 307.031L281.911 289.863L282.836 259.84L289.151 218.537L293.823 175.802C293.823 175.802 281.24 168.265 275.125 166.824C269.01 165.375 232.919 153.751 232.919 153.751Z" fill="#455A64"/>
<path d="M323.971 273.674L307.196 203.326C305.862 197.745 303.939 192.318 301.426 187.154C298.822 181.818 295.601 175.993 293.832 175.793C283.426 174.597 278.01 206.315 278.01 206.315V246.531L287.835 290.09C289.341 296.776 294.286 302.157 300.827 304.232L367.411 325.395L375.122 292.391L323.971 273.674Z" fill="#455A64"/>
<path d="M205.021 168.319C205.021 168.319 179.718 171.889 171.553 191.167C171.553 191.167 146.267 289.446 150.495 302.393C154.723 315.339 187.411 365.294 187.411 365.294L216.072 350.182C216.072 350.182 188.065 292.137 188.065 285.741C188.056 279.345 205.021 168.319 205.021 168.319Z" fill="#455A64"/>
<path d="M216.062 350.182C216.053 350.182 215.999 350.083 215.899 349.865C215.79 349.63 215.654 349.322 215.473 348.923C215.101 348.071 214.565 346.848 213.876 345.299C212.497 342.119 210.528 337.553 208.088 331.918C203.234 320.584 196.547 304.966 189.162 287.707C188.827 286.91 188.482 286.122 188.173 285.388L188.155 285.342V285.306C188.228 284.119 188.464 283.014 188.681 281.909C188.926 280.813 189.162 279.716 189.425 278.638C189.933 276.482 190.478 274.371 191.013 272.297C192.102 268.156 193.145 264.17 194.143 260.374C196.148 252.791 197.935 245.969 199.396 240.244C200.857 234.518 201.964 229.879 202.726 226.672C203.098 225.087 203.379 223.855 203.588 222.985C203.687 222.586 203.76 222.269 203.824 222.025C203.878 221.807 203.914 221.698 203.914 221.698C203.914 221.698 203.905 221.816 203.869 222.034C203.824 222.269 203.76 222.595 203.678 223.003C203.497 223.873 203.234 225.123 202.907 226.718C202.19 229.934 201.147 234.59 199.723 240.325C198.307 246.06 196.556 252.891 194.57 260.483C193.581 264.279 192.546 268.274 191.476 272.414C190.95 274.489 190.405 276.6 189.897 278.747C189.407 280.885 188.827 283.114 188.636 285.297L188.618 285.207C188.936 285.94 189.271 286.729 189.607 287.526C196.947 304.803 203.588 320.44 208.405 331.791C210.782 337.444 212.706 342.029 214.057 345.227C214.711 346.794 215.219 348.026 215.572 348.887C215.736 349.294 215.863 349.603 215.954 349.847C216.026 350.074 216.071 350.182 216.062 350.182Z" fill="#263238"/>
<path d="M289.015 211.126C289.033 211.126 289.033 211.325 289.015 211.697C288.997 212.122 288.969 212.657 288.933 213.327C288.833 214.804 288.706 216.833 288.543 219.325C288.18 224.389 287.745 231.383 286.937 239.093C286.121 246.803 284.987 253.733 284.116 258.734C283.68 261.235 283.308 263.255 283.036 264.65C282.9 265.303 282.8 265.837 282.709 266.254C282.628 266.616 282.582 266.806 282.564 266.806C282.546 266.806 282.564 266.607 282.619 266.236C282.682 265.819 282.755 265.284 282.854 264.614C283.081 263.155 283.399 261.144 283.789 258.68C284.569 253.67 285.658 246.739 286.465 239.048C287.264 231.356 287.754 224.362 288.207 219.298C288.434 216.815 288.616 214.786 288.752 213.309C288.824 212.648 288.879 212.104 288.924 211.688C288.969 211.316 288.997 211.126 289.015 211.126Z" fill="#263238"/>
<path d="M191.186 363.301L194.025 368.528C194.025 368.528 208.097 363.174 214.792 354.15L212.941 352.375L191.186 363.301Z" fill="#FFBE9D"/>
<path d="M200.83 230.477C200.802 230.604 192.447 228.702 182.186 226.237C171.915 223.764 163.614 221.662 163.65 221.535C163.678 221.409 172.024 223.311 182.294 225.775C192.565 228.249 200.866 230.35 200.83 230.477Z" fill="white"/>
<path d="M287.227 225.286C287.227 225.413 268.429 225.839 245.249 226.237C222.059 226.636 203.261 226.844 203.252 226.718C203.252 226.591 222.041 226.165 245.24 225.766C268.42 225.368 287.218 225.159 287.227 225.286Z" fill="white"/>
<path d="M314.109 229.997C314.109 230.033 313.747 230.106 313.093 230.215C312.431 230.323 311.478 230.468 310.29 230.631C307.913 230.957 304.629 231.347 301 231.709C297.362 232.063 294.059 232.316 291.673 232.461C290.475 232.534 289.514 232.579 288.842 232.597C288.171 232.615 287.799 232.615 287.799 232.579C287.799 232.543 288.162 232.489 288.833 232.416C289.595 232.334 290.539 232.244 291.655 232.126C294.15 231.891 297.38 231.583 300.963 231.238C304.538 230.876 307.777 230.55 310.263 230.296C311.379 230.187 312.322 230.106 313.084 230.033C313.737 229.979 314.109 229.961 314.109 229.997Z" fill="white"/>
<path d="M188.845 281.601C188.827 281.728 180.77 280.677 170.845 279.254C160.92 277.832 152.89 276.573 152.908 276.446C152.927 276.319 160.983 277.37 170.908 278.792C180.834 280.215 188.863 281.474 188.845 281.601Z" fill="white"/>
<path d="M280.45 288.939C280.459 289.066 260.972 290.516 236.929 292.173C212.878 293.831 193.381 295.063 193.372 294.937C193.363 294.81 212.842 293.36 236.893 291.702C260.935 290.044 280.441 288.803 280.45 288.939Z" fill="white"/>
<path d="M322.184 274.797C322.202 274.824 321.812 275.178 321.077 275.785C320.279 276.446 319.226 277.307 317.965 278.357C315.334 280.523 311.705 283.531 307.749 286.919C303.794 290.307 300.274 293.433 297.724 295.698C296.499 296.794 295.483 297.691 294.703 298.379C293.986 299.013 293.578 299.349 293.56 299.321C293.542 299.294 293.905 298.914 294.576 298.243C295.257 297.573 296.245 296.613 297.497 295.444C299.983 293.107 303.485 289.945 307.441 286.547C311.397 283.159 315.062 280.188 317.756 278.086C319.099 277.035 320.197 276.192 320.968 275.631C321.721 275.078 322.157 274.77 322.184 274.797Z" fill="white"/>
<path d="M178.606 350.888C178.559 350.901 178.534 350.904 178.529 350.898C178.528 350.893 178.539 350.89 178.606 350.888Z" fill="white"/>
<path d="M359.354 293.252C358.701 296.205 357.667 300.255 356.27 293.252H359.354Z" fill="white"/>
<path d="M197.391 179.263C197.707 179.161 198.055 179.05 198.435 178.929C197.951 178.932 197.623 178.971 197.337 179.082C196.448 179.426 195.958 179.635 195.967 179.662C195.976 179.698 196.484 179.553 197.391 179.263Z" fill="white"/>
<path d="M241.593 123.737C241.212 116.733 240.876 109.694 241.701 102.736C242.536 95.7785 244.605 88.8388 248.66 83.1132C249.277 82.2434 254.049 76.5993 255.047 76.9707C255.764 77.2334 252.271 82.7598 252.471 83.4937C254.385 90.4877 253.405 98.0163 250.983 104.856C248.56 111.687 245.43 117.585 241.593 123.737Z" fill="#263238"/>
<path d="M258.359 194.909C247.898 191.892 228.211 171.445 231.005 160.935L247.807 97.7173C251.781 80.5855 265.072 68.6268 282.111 73.066L283.662 73.5643C299.267 78.6196 308.367 94.791 304.574 110.736C301.045 125.558 296.962 141.892 294.349 149.611C288.942 165.592 272.058 162.883 272.058 162.883C272.022 162.874 270.96 166.634 269.636 171.408C266.669 182.108 260.4 192.617 258.359 194.909Z" fill="#FFBE9D"/>
<path d="M272.067 162.874C272.067 162.874 261.743 160.184 253.151 149.919C253.151 149.919 254.267 163.617 270.77 167.359L272.067 162.874Z" fill="#EB996E"/>
<path d="M294.658 123.854C294.304 125.077 292.98 125.793 291.691 125.449C290.403 125.105 289.65 123.836 289.995 122.613C290.348 121.39 291.673 120.674 292.952 121.019C294.25 121.363 295.012 122.631 294.658 123.854Z" fill="#263238"/>
<path d="M298.868 116.697C298.486 116.906 297.162 115.057 294.694 114.26C292.236 113.436 290.013 114.115 289.84 113.726C289.75 113.554 290.221 113.101 291.192 112.783C292.154 112.466 293.66 112.34 295.193 112.838C296.726 113.345 297.842 114.333 298.396 115.148C298.967 115.982 299.049 116.607 298.868 116.697Z" fill="#263238"/>
<path d="M272.104 117.331C271.75 118.554 270.425 119.27 269.137 118.926C267.848 118.582 267.095 117.322 267.44 116.09C267.794 114.867 269.119 114.151 270.407 114.496C271.695 114.84 272.457 116.108 272.104 117.331Z" fill="#263238"/>
<path d="M274.48 109.422C274.099 109.631 272.775 107.783 270.307 106.985C267.848 106.161 265.626 106.84 265.453 106.451C265.363 106.279 265.825 105.826 266.805 105.509C267.767 105.191 269.273 105.065 270.806 105.563C272.339 106.07 273.455 107.058 274.009 107.873C274.58 108.716 274.662 109.341 274.48 109.422Z" fill="#263238"/>
<path d="M277.184 131.247C277.221 131.102 278.835 131.338 281.43 131.827C282.083 131.963 282.718 132.035 282.963 131.637C283.263 131.229 283.217 130.468 283.145 129.634C283.045 127.922 282.945 126.119 282.836 124.235C282.464 116.57 282.41 110.346 282.718 110.337C283.027 110.328 283.58 116.525 283.952 124.199C284.025 126.083 284.107 127.886 284.17 129.598C284.179 130.395 284.324 131.338 283.698 132.171C283.372 132.588 282.8 132.778 282.365 132.76C281.92 132.751 281.566 132.642 281.249 132.561C278.699 131.881 277.148 131.383 277.184 131.247Z" fill="#263238"/>
<path d="M277.248 100.136C276.703 100.653 274.526 99.2212 271.632 98.2156C268.756 97.1465 266.152 96.8748 266.07 96.1228C266.043 95.7695 266.715 95.3618 267.912 95.1897C269.092 95.0085 270.788 95.1172 272.521 95.7332C274.254 96.3584 275.624 97.3549 276.422 98.2428C277.239 99.1397 277.493 99.8826 277.248 100.136Z" fill="#263238"/>
<path d="M300.156 110.736C299.466 111.144 297.625 109.939 295.202 109.16C292.807 108.317 290.602 108.154 290.312 107.42C290.194 107.067 290.693 106.605 291.755 106.351C292.807 106.088 294.422 106.116 296.073 106.668C297.724 107.23 299.022 108.181 299.684 109.015C300.365 109.866 300.473 110.537 300.156 110.736Z" fill="#263238"/>
<path d="M245.267 110.02C245.031 109.812 235.287 103.18 232.076 114.269C228.864 125.349 240.667 126.291 240.785 125.974C240.894 125.657 245.267 110.02 245.267 110.02Z" fill="#FFBE9D"/>
<path d="M238.608 120.792C238.571 120.747 238.372 120.874 238.009 120.928C237.646 120.982 237.074 120.928 236.557 120.539C235.505 119.768 235.06 117.621 235.587 115.61C235.85 114.595 236.34 113.699 236.929 113.001C237.501 112.285 238.19 111.878 238.816 111.941C239.442 111.977 239.76 112.448 239.805 112.802C239.86 113.155 239.733 113.354 239.787 113.39C239.814 113.427 240.077 113.273 240.123 112.793C240.141 112.557 240.087 112.258 239.887 111.968C239.687 111.678 239.324 111.452 238.898 111.379C238.027 111.189 237.029 111.751 236.376 112.512C235.677 113.264 235.106 114.269 234.806 115.411C234.226 117.667 234.77 120.086 236.24 121.01C236.966 121.435 237.682 121.39 238.091 121.227C238.508 121.055 238.635 120.819 238.608 120.792Z" fill="#EB996E"/>
<path d="M302.551 90.2975C304.629 89.8082 300.854 82.4699 296.999 79.2356C291.156 74.3344 281.466 69.6143 274.807 69.6415C266.796 69.6687 259.592 71.6346 253.968 77.3422C248.352 83.0497 244.741 90.5239 242.799 98.2881C242.21 100.653 241.765 103.171 242.464 105.518C243.325 108.408 245.875 110.79 244.795 114.142C244.396 115.365 244.405 116.715 245.004 117.857C246.437 120.593 249.495 119.252 251.209 117.54C254.875 113.871 256.608 108.752 258.213 103.823C259.357 100.326 260.518 96.7389 260.473 93.0606C260.445 91.0585 260.064 89.0653 260.146 87.0632C260.228 85.061 260.89 82.941 262.487 81.7361C262.75 81.5368 263.149 81.3103 263.648 81.0747C267.576 79.1994 272.212 79.6071 275.778 82.1075C281.421 86.0757 291.201 92.3721 294.585 91.0313C299.466 89.1016 300.981 87.3802 300.981 87.3802L302.551 90.2975Z" fill="#263238"/>
<path d="M245.04 111.542C245.049 111.76 245.058 111.995 245.049 112.249C245.049 112.24 245.04 111.995 245.04 111.542Z" fill="#FF725E"/>
<path d="M242.083 108.408C242.083 108.408 244.841 106.804 245.04 111.542C244.995 105.436 246.093 61.3428 288.434 73.1023C288.434 73.1023 274.771 64.9576 262.986 68.5453C262.986 68.5453 240.722 71.8067 242.083 108.408Z" fill="#455A64"/>
<path d="M269.781 154.847C269.872 155.02 271.06 154.512 272.158 153.398C273.265 152.293 273.764 151.106 273.591 151.015C273.41 150.906 272.675 151.867 271.65 152.891C270.625 153.932 269.681 154.666 269.781 154.847Z" fill="#263238"/>
<path d="M267.486 153.742C267.631 153.878 268.611 153.017 269.654 151.84C270.707 150.653 271.432 149.584 271.287 149.457C271.142 149.321 270.162 150.182 269.119 151.359C268.066 152.546 267.341 153.606 267.486 153.742Z" fill="#263238"/>
<path d="M266.089 152.284C266.279 152.347 266.805 151.305 267.277 149.964C267.74 148.614 267.967 147.473 267.785 147.409C267.595 147.346 267.068 148.379 266.597 149.729C266.125 151.079 265.907 152.22 266.089 152.284Z" fill="#263238"/>
<path d="M263.975 151.876C264.183 151.831 263.984 150.499 264.256 148.913C264.51 147.319 265.118 146.123 264.936 146.014C264.791 145.896 263.82 147.038 263.539 148.796C263.249 150.553 263.802 151.939 263.975 151.876Z" fill="#263238"/>
<path d="M261.008 150.1C261.217 150.064 261.126 148.768 261.325 147.21C261.507 145.652 261.897 144.411 261.707 144.329C261.534 144.248 260.808 145.443 260.609 147.12C260.4 148.805 260.817 150.145 261.008 150.1Z" fill="#263238"/>
<path d="M323.935 273.556C324.016 273.692 320.805 275.232 317.666 278.203C314.499 281.157 312.767 284.264 312.64 284.174C312.594 284.147 312.957 283.34 313.737 282.135C314.518 280.93 315.742 279.363 317.339 277.859C318.936 276.355 320.587 275.232 321.83 274.525C323.073 273.828 323.908 273.511 323.935 273.556Z" fill="#263238"/>
<path d="M323.001 261.796C323.001 261.796 290.766 265.611 278.845 275.123C276.976 276.618 275.225 278.357 273.61 280.215C266.089 288.849 261.679 299.756 260.636 311.153L256.317 358.49L256.662 366.308C257.206 378.512 267.25 388.142 279.489 388.188L412.692 389.121C412.692 389.121 430.193 369.615 425.611 339.383C424.531 332.262 422.808 307.874 416.058 292.871C412.492 284.935 407.03 275.132 392.605 271.3L358.964 261.796H323.001Z" fill="#263238"/>
<path d="M292.798 300.3C292.762 300.309 292.671 299.928 292.526 299.24C292.381 298.551 292.163 297.564 291.855 296.35C291.247 293.922 290.24 290.615 288.734 287.109C287.218 283.612 285.495 280.604 284.143 278.502C283.472 277.452 282.9 276.609 282.501 276.038C282.102 275.458 281.893 275.132 281.92 275.114C281.947 275.096 282.201 275.386 282.646 275.93C283.1 276.473 283.707 277.288 284.424 278.321C285.858 280.387 287.645 283.395 289.169 286.919C290.693 290.452 291.655 293.804 292.181 296.268C292.444 297.5 292.626 298.497 292.707 299.195C292.789 299.901 292.825 300.291 292.798 300.3Z" fill="#455A64"/>
<path d="M298.387 354.295C298.26 354.314 296.835 343.967 295.202 331.184C293.578 318.401 292.363 308.028 292.49 308.01C292.617 307.992 294.041 318.338 295.674 331.121C297.298 343.904 298.514 354.277 298.387 354.295Z" fill="#455A64"/>
<path d="M292.489 304.359C292.462 304.413 291.582 304.078 290.221 303.398C288.86 302.719 287.028 301.677 285.123 300.336C283.217 298.995 281.621 297.627 280.523 296.576C279.425 295.525 278.808 294.81 278.853 294.764C278.908 294.71 279.597 295.344 280.75 296.323C281.902 297.301 283.517 298.624 285.404 299.947C287.291 301.269 289.078 302.347 290.385 303.099C291.691 303.86 292.526 304.295 292.489 304.359Z" fill="#455A64"/>
<path d="M367.801 361.94C367.81 361.935 367.819 361.929 367.828 361.924L367.792 361.951C367.795 361.947 367.798 361.944 367.801 361.94C370.579 358.98 375.16 355.158 381.324 352.517L381.33 352.467C381.505 350.822 381.687 349.118 381.818 347.365C382.435 339.592 382.353 332.525 382.09 327.424C381.972 324.87 381.79 322.813 381.691 321.391C381.683 321.299 381.676 321.21 381.669 321.123C381.624 320.574 381.586 320.119 381.555 319.751C381.527 319.38 381.527 319.18 381.536 319.171C381.555 319.171 381.591 319.361 381.645 319.733C381.66 319.832 381.667 320.417 381.669 321.123C381.676 321.21 381.683 321.299 381.691 321.391C381.79 322.813 381.972 324.87 382.09 327.424C382.353 332.525 382.435 339.592 381.818 347.365C381.687 349.118 381.505 350.822 381.33 352.467L381.324 352.517C381.365 352.5 381.405 352.483 381.446 352.465L381.31 352.656L381.324 352.517C375.16 355.158 370.579 358.98 367.801 361.94Z" fill="#455A64"/>
<path d="M377.635 208.127C374.977 196.857 370.223 185.342 360.869 178.493C352.532 172.396 340.384 170.068 330.077 170.838C325.006 171.218 319.344 173.746 314.999 176.391C309.038 180.015 306.697 187.054 303.975 193.469C298.523 206.315 299.82 223.438 303.948 228.076L357.839 254.295C367.057 249.113 377.046 242.146 379.196 231.8C380.666 224.752 379.287 215.13 377.635 208.127Z" fill="#2DBDC8"/>
<path d="M357.231 188.133L323.572 179.39C312.785 178.176 305.509 191.403 304.756 202.22C303.912 214.242 303.368 228.946 304.728 237.924C307.477 255.98 321.313 260.274 321.313 260.274C321.322 260.211 321.349 275.957 321.413 281.32L337.108 329.082L359.445 281.32L362.883 194.61C362.965 191.312 360.515 188.495 357.231 188.133Z" fill="#FFBE9D"/>
<path d="M310.771 216.779C310.716 218.002 311.714 219.053 312.993 219.126C314.264 219.207 315.343 218.274 315.398 217.06C315.452 215.837 314.454 214.786 313.184 214.714C311.896 214.632 310.816 215.556 310.771 216.779Z" fill="#263238"/>
<path d="M307.895 209.894C308.176 210.202 309.945 208.915 312.44 208.933C314.935 208.924 316.749 210.211 317.022 209.912C317.158 209.776 316.867 209.232 316.078 208.644C315.298 208.064 313.964 207.493 312.413 207.484C310.861 207.484 309.546 208.046 308.793 208.625C308.022 209.214 307.759 209.758 307.895 209.894Z" fill="#263238"/>
<path d="M333.389 216.779C333.334 218.002 334.332 219.053 335.602 219.126C336.872 219.198 337.952 218.274 338.007 217.06C338.061 215.837 337.063 214.786 335.793 214.714C334.514 214.632 333.443 215.556 333.389 216.779Z" fill="#263238"/>
<path d="M332.4 210.528C332.69 210.827 334.45 209.55 336.945 209.568C339.431 209.559 341.254 210.845 341.527 210.546C341.663 210.41 341.372 209.867 340.574 209.278C339.794 208.698 338.46 208.127 336.909 208.118C335.357 208.118 334.042 208.68 333.289 209.26C332.527 209.848 332.263 210.392 332.4 210.528Z" fill="#263238"/>
<path d="M323.227 228.928C323.236 228.783 321.694 228.511 319.181 228.167C318.546 228.095 317.947 227.968 317.838 227.533C317.693 227.071 317.965 226.391 318.274 225.648C318.882 224.117 319.517 222.505 320.188 220.82C322.846 213.943 324.779 208.29 324.507 208.191C324.225 208.082 321.848 213.572 319.181 220.448C318.537 222.142 317.929 223.755 317.348 225.304C317.103 226.029 316.686 226.844 317.004 227.796C317.176 228.276 317.639 228.62 318.047 228.729C318.455 228.856 318.809 228.865 319.126 228.883C321.649 229.046 323.218 229.073 323.227 228.928Z" fill="#263238"/>
<path d="M321.268 260.41L321.367 264.904C339.44 266.716 345.5 254.132 345.5 254.132C333.416 261.28 321.268 260.41 321.268 260.41Z" fill="#EB996E"/>
<path d="M330.549 230.704C330.14 230.677 330.122 233.376 327.791 235.279C325.468 237.19 322.583 236.864 322.556 237.245C322.52 237.417 323.191 237.77 324.416 237.816C325.613 237.861 327.355 237.489 328.78 236.33C330.204 235.161 330.821 233.594 330.921 232.489C331.03 231.356 330.739 230.686 330.549 230.704Z" fill="#263238"/>
<path d="M331.284 202.546C331.529 203.226 334.015 202.918 336.936 203.289C339.866 203.606 342.216 204.476 342.615 203.869C342.788 203.579 342.379 202.936 341.436 202.275C340.492 201.613 338.986 200.979 337.235 200.771C335.484 200.571 333.869 200.834 332.799 201.26C331.719 201.704 331.175 202.229 331.284 202.546Z" fill="#2DBDC8"/>
<path d="M358.011 216.562C358.256 216.444 368.073 213.336 367.982 223.411C367.891 233.476 357.785 231.311 357.776 231.021C357.757 230.731 358.011 216.562 358.011 216.562Z" fill="#FFBE9D"/>
<path d="M303.939 205.083C305.3 202.166 307.94 200.037 310.744 198.442C313.547 196.848 316.577 195.688 319.362 194.076C325.759 190.361 330.694 184.201 332.908 177.152C327.945 174.597 321.767 174.887 316.759 177.361C311.751 179.834 307.904 184.318 305.599 189.401C303.295 194.483 302.46 200.137 302.524 205.708" fill="#2DBDC8"/>
<path d="M360.325 185.442C352.867 178.366 338.778 174.462 329.061 177.777C330.504 186.257 336.909 195.77 342.543 202.275C348.213 208.816 351.633 220.276 363.972 216.38C364.825 216.109 365.796 216.888 366.558 216.435C367.211 216.054 367.52 215.284 367.746 214.569C371.012 204.512 368 192.717 360.325 185.442Z" fill="#2DBDC8"/>
<path d="M369.406 197.5C369.416 197.509 369.298 197.627 369.071 197.844C368.826 198.044 368.508 198.397 368.018 198.732C367.075 199.475 365.56 200.381 363.518 201.088C361.486 201.813 358.91 202.22 356.052 202.093C353.203 201.958 350.091 201.242 347.124 199.801C344.176 198.334 341.672 196.395 339.649 194.402C337.625 192.409 336.056 190.379 334.849 188.604C333.643 186.828 332.781 185.324 332.227 184.273C331.937 183.748 331.746 183.322 331.61 183.041C331.474 182.76 331.411 182.606 331.429 182.597C331.447 182.588 331.538 182.724 331.701 182.996C331.892 183.313 332.118 183.702 332.4 184.182C333.007 185.206 333.906 186.683 335.13 188.413C336.355 190.144 337.943 192.137 339.957 194.085C341.962 196.042 344.439 197.926 347.333 199.376C350.236 200.789 353.285 201.505 356.07 201.659C358.864 201.803 361.395 201.441 363.41 200.771C365.424 200.118 366.939 199.276 367.9 198.587C368.88 197.908 369.379 197.464 369.406 197.5Z" fill="white"/>
<path d="M389.702 188.45C389.72 188.441 389.847 188.721 389.829 189.265C389.82 189.799 389.62 190.597 389.049 191.376C388.486 192.173 387.533 192.871 386.39 193.396C385.247 193.913 383.95 194.356 382.544 194.674C379.722 195.317 377.073 195.253 375.222 194.982C374.288 194.855 373.553 194.674 373.045 194.538C372.546 194.384 372.264 194.284 372.273 194.257C372.292 194.175 373.417 194.483 375.258 194.655C377.1 194.837 379.686 194.837 382.444 194.212C385.166 193.568 387.679 192.626 388.785 191.177C389.348 190.47 389.584 189.745 389.647 189.247C389.72 188.74 389.665 188.45 389.702 188.45Z" fill="white"/>
<path d="M366.902 372.542C366.902 372.56 366.73 372.578 366.403 372.587C366.077 372.596 365.587 372.632 364.97 372.605C363.718 372.596 361.913 372.478 359.708 372.098C355.326 371.364 349.284 369.307 343.885 365.076C338.478 360.836 335.04 355.473 333.289 351.396C332.4 349.349 331.846 347.628 331.547 346.414C331.374 345.816 331.302 345.335 331.229 345.018C331.166 344.701 331.138 344.529 331.157 344.52C331.193 344.511 331.365 345.181 331.728 346.359C332.082 347.546 332.681 349.24 333.597 351.251C335.412 355.265 338.85 360.519 344.185 364.696C349.519 368.872 355.444 370.956 359.78 371.762C361.958 372.179 363.745 372.351 364.988 372.415C366.213 372.496 366.902 372.505 366.902 372.542Z" fill="#455A64"/>
<path d="M370.042 367.26L308.113 370.394L312.903 388.604L395.454 388.994L370.042 367.26Z" fill="#FFBE9D"/>
<path d="M271.813 358.109C272.094 359.333 272.793 361.933 275.088 362.802L286.692 360.574C286.692 360.574 277.547 358.898 276.077 357.611C275.569 357.158 274.871 356.606 274.163 356.234C272.929 355.591 271.505 356.751 271.813 358.109Z" fill="#FFBE9D"/>
<path d="M281.176 361.289C281.212 361.489 278.862 362.087 275.905 362.476C272.965 362.866 270.57 363.119 270.525 362.911C270.489 362.712 272.838 362.114 275.796 361.724C278.745 361.335 281.14 361.081 281.176 361.289Z" fill="#EB996E"/>
<path d="M279.543 368.193C279.598 368.392 277.593 369.063 275.016 369.362C272.439 369.661 270.334 369.461 270.334 369.262C270.334 369.044 272.403 368.9 274.925 368.61C277.447 368.32 279.498 367.984 279.543 368.193Z" fill="#EB996E"/>
<path d="M285.359 366.462C285.549 366.544 285.422 367.214 284.823 367.74C284.234 368.265 283.553 368.311 283.49 368.111C283.417 367.912 283.853 367.586 284.315 367.169C284.787 366.761 285.159 366.372 285.359 366.462Z" fill="#EB996E"/>
<path d="M281.956 375.386C281.974 375.595 279.733 376.029 276.957 376.365C274.181 376.691 271.904 376.79 271.868 376.582C271.831 376.374 274.072 375.939 276.867 375.604C279.661 375.278 281.938 375.178 281.956 375.386Z" fill="#EB996E"/>
<path d="M288.153 371.255C288.244 371.21 288.461 371.418 288.588 371.871C288.715 372.306 288.706 373.004 288.343 373.647C287.98 374.29 287.382 374.652 286.937 374.77C286.483 374.897 286.193 374.815 286.184 374.716C286.148 374.507 287.137 374.227 287.672 373.266C288.225 372.324 287.953 371.328 288.153 371.255Z" fill="#EB996E"/>
<path d="M284.823 382.344C284.832 382.552 282.782 382.779 280.26 382.851C277.728 382.924 275.678 382.806 275.669 382.598C275.66 382.389 277.71 382.163 280.232 382.09C282.764 382.027 284.814 382.136 284.823 382.344Z" fill="#EB996E"/>
<path d="M290.775 377.678C290.865 377.651 291.056 377.887 291.11 378.34C291.174 378.793 291.056 379.427 290.729 380.016C290.031 381.175 289.133 381.701 289.006 381.574C288.824 381.42 289.495 380.614 290.067 379.644C290.639 378.666 290.584 377.742 290.775 377.678Z" fill="#EB996E"/>
<path d="M231.93 378.702C227.866 376.772 214.302 371.5 214.302 371.5L207.67 326.192L180.652 330.242C180.652 330.242 196.375 387.979 200.567 388.378C204.758 388.767 228.9 388.414 228.9 388.414L236.757 388.296C236.775 388.287 234.779 380.052 231.93 378.702Z" fill="#9B6E65"/>
<path d="M213.141 386.937C213.159 386.983 212.669 387.254 211.789 387.436C210.909 387.617 209.639 387.653 208.305 387.309C206.972 386.946 205.883 386.285 205.221 385.687C204.549 385.089 204.259 384.609 204.295 384.582C204.35 384.527 204.731 384.926 205.429 385.424C206.119 385.932 207.171 386.511 208.432 386.847C209.694 387.182 210.891 387.2 211.744 387.1C212.597 387.019 213.114 386.865 213.141 386.937Z" fill="#704C45"/>
<path d="M228.728 388.215C228.664 388.26 228.102 387.327 227.067 385.941C226.541 385.261 225.879 384.464 224.981 383.785C224.092 383.096 222.93 382.625 221.687 382.181C219.147 381.329 216.997 380.152 215.5 379.255C214.003 378.358 213.105 377.751 213.141 377.696C213.177 377.633 214.13 378.149 215.663 378.965C217.206 379.78 219.329 380.894 221.851 381.737C223.103 382.181 224.328 382.688 225.253 383.44C226.187 384.174 226.841 385.026 227.34 385.741C227.839 386.466 228.183 387.091 228.41 387.517C228.646 387.952 228.755 388.206 228.728 388.215Z" fill="#704C45"/>
<path d="M149.724 176.591L139.717 183.467C139.717 183.467 127.288 182.715 118.27 185.786C113.271 187.489 107.21 189.546 100.651 196.177C94.6538 202.238 90.3262 209.749 88.0943 217.984L76.0551 318.419L57.7195 389.293H179.727V299.611L191.403 258.472C191.403 258.472 188.373 253.733 188.464 251.831C188.564 249.937 195.368 206.098 195.368 206.098L181.46 189.482L149.724 176.591Z" fill="#2DBDC8"/>
<path d="M193.735 204.014C193.735 204.014 200.639 207.23 202.327 219.27C204.014 231.311 216.244 324.236 216.244 324.236C216.244 324.236 202.735 327.343 190.405 328.783L174.882 331.42L174.492 269.289L193.735 204.014Z" fill="#2DBDC8"/>
<path d="M134.21 205.953C133.738 244.266 131.978 282.552 128.939 320.748C128.794 322.614 127.986 326.301 126.979 329.508C126.036 332.498 123.06 334.355 119.957 333.884L94.926 330.115C90.5712 329.381 88.92 328.802 87.6135 325.993C86.7153 324.063 86.3524 321.925 86.4069 319.796C87.3776 285.596 84.3837 267.477 86.4432 235.143" fill="#2DBDC8"/>
<path d="M138.774 304.476C138.22 304.793 137.776 305.047 137.503 304.476H138.774Z" fill="#263238"/>
<g opacity="0.2">
<path d="M193.408 253.181C190.433 280.767 180.589 310.909 179.727 328.312C183.628 315.91 188.564 304.06 192.193 291.575C195.822 279.091 197.446 265.538 193.408 253.181Z" fill="black"/>
</g>
<path d="M211.39 92.7526C213.432 92.0369 215.101 90.3428 215.781 88.2862C216.462 86.2387 216.135 83.8832 214.919 82.0894C213.976 80.6942 212.551 79.6614 211.699 78.2028C210.991 76.9979 210.737 75.5846 210.265 74.271C208.75 70.0492 204.931 66.833 200.603 65.6371C196.275 64.4412 191.53 65.1479 187.52 67.1682C185.924 67.9745 184.363 68.9892 182.585 69.1432C180.861 69.2882 179.192 68.5996 177.495 68.2825C173.458 67.5396 169.085 69.0798 166.418 72.1963C163.75 75.3128 162.907 79.8698 164.277 83.7383C159.622 84.5174 155.857 88.9295 155.83 93.6405C155.803 98.3515 159.513 102.809 164.159 103.642C167.026 104.159 169.956 103.416 172.796 102.764C184.3 100.118 196.112 98.7954 207.915 98.8407" fill="#263238"/>
<path d="M158.225 106.895C158.089 107.011 157.954 107.129 157.82 107.249C157.767 106.725 157.713 106.256 157.658 105.836C157.012 100.924 156.29 102.898 157.658 105.836C157.817 106.179 158.005 106.535 158.225 106.895Z" fill="#2DBDC8"/>
<path d="M206.074 163.771C207.072 163.101 208.414 162.566 209.675 162.457L209.44 162.385C209.675 162.376 209.902 162.403 210.138 162.43C211.045 162.43 211.889 162.675 212.506 163.309L212.479 163.3C213.695 164.106 214.647 165.357 214.983 166.788C215.582 169.27 214.493 172.006 212.515 173.619C210.8 175.023 208.278 175.621 206.3 174.616C204.477 173.691 203.461 171.608 203.37 169.569C203.261 167.341 204.223 165.012 206.074 163.771Z" fill="#455A64"/>
<path d="M149.261 183.249L159.35 116.788C159.976 113.454 163.043 111.153 166.418 111.488L202.173 109.93C213.295 111.026 217.759 125.902 216.19 136.946C214.448 149.221 211.835 164.134 208.523 172.876C201.873 190.461 187.439 189.89 187.439 189.89C187.448 189.827 184.735 202.483 183.293 209.069L175.917 235.143L149.261 183.249Z" fill="#9B6E65"/>
<path d="M209.158 151.314C208.95 152.555 207.725 153.398 206.418 153.199C205.121 152.999 204.232 151.84 204.45 150.598C204.658 149.357 205.883 148.515 207.19 148.705C208.487 148.913 209.376 150.073 209.158 151.314Z" fill="#263238"/>
<path d="M211.381 143.994C211.027 144.239 209.53 142.563 207.017 142.055C204.513 141.512 202.399 142.418 202.191 142.055C202.082 141.892 202.49 141.403 203.415 140.986C204.323 140.569 205.792 140.28 207.353 140.615C208.913 140.95 210.111 141.792 210.746 142.535C211.399 143.278 211.544 143.885 211.381 143.994Z" fill="#263238"/>
<path d="M185.524 147.002C185.316 148.243 184.091 149.085 182.785 148.886C181.487 148.687 180.598 147.527 180.816 146.286C181.024 145.045 182.249 144.202 183.556 144.393C184.853 144.592 185.742 145.761 185.524 147.002Z" fill="#263238"/>
<path d="M186.586 139.364C186.232 139.609 184.735 137.933 182.222 137.426C179.718 136.882 177.604 137.788 177.395 137.426C177.287 137.263 177.695 136.773 178.62 136.357C179.528 135.94 180.997 135.65 182.558 135.985C184.118 136.32 185.316 137.163 185.951 137.906C186.604 138.649 186.758 139.256 186.586 139.364Z" fill="#263238"/>
<path d="M191.848 159.848C191.866 159.703 193.481 159.758 196.085 159.957C196.738 160.02 197.373 160.02 197.573 159.604C197.818 159.169 197.691 158.426 197.536 157.62C197.255 155.944 196.956 154.186 196.647 152.347C195.45 144.855 194.724 138.757 195.023 138.712C195.323 138.667 196.538 144.701 197.736 152.184C198.017 154.023 198.28 155.781 198.534 157.466C198.625 158.245 198.87 159.16 198.344 160.048C198.072 160.492 197.527 160.736 197.092 160.763C196.656 160.8 196.293 160.736 195.967 160.691C193.417 160.31 191.83 159.993 191.848 159.848Z" fill="#263238"/>
<path d="M187.439 189.89C187.439 189.89 175.028 188.151 164.404 178.366C164.404 178.366 167.733 192.073 186.305 194.13L187.439 189.89Z" fill="#704C45"/>
<path d="M190.242 165.737C189.38 163.771 187.611 162.313 185.715 161.995C184.399 161.778 182.984 162.113 182.041 163.11C181.088 164.106 180.698 165.791 181.26 167.178C181.895 168.736 183.547 169.533 185.034 169.488C186.522 169.433 187.892 168.709 189.208 167.966C189.571 167.757 189.943 167.54 190.197 167.187C190.451 166.833 190.569 166.308 190.36 165.891" fill="#704C45"/>
<path d="M184.1 160.057C184.517 160.12 183.955 162.838 185.887 165.257C187.82 167.676 190.786 167.975 190.732 168.355C190.732 168.537 189.979 168.754 188.745 168.527C187.529 168.319 185.86 167.567 184.672 166.09C183.492 164.614 183.211 162.901 183.347 161.769C183.474 160.618 183.919 160.002 184.1 160.057Z" fill="#263238"/>
<path d="M189.008 132.769C188.618 133.403 186.178 132.561 183.157 132.307C180.144 131.99 177.586 132.361 177.323 131.673C177.205 131.347 177.758 130.785 178.856 130.323C179.945 129.861 181.596 129.544 183.401 129.716C185.207 129.888 186.776 130.504 187.756 131.156C188.745 131.818 189.181 132.47 189.008 132.769Z" fill="#263238"/>
<path d="M211.953 136.538C211.39 137.018 209.784 136.067 207.707 135.614C205.647 135.088 203.787 135.206 203.506 134.527C203.388 134.2 203.787 133.684 204.667 133.304C205.538 132.923 206.899 132.742 208.315 133.086C209.739 133.43 210.864 134.2 211.472 134.934C212.089 135.668 212.207 136.302 211.953 136.538Z" fill="#263238"/>
<path d="M203.542 115.619C203.542 115.619 186.54 111.723 169.511 128.194C158.289 139.047 153.09 154.576 153.09 154.576L152.99 122.885L160.883 110.138L174.093 105.998L196.729 109.513L204.277 115.492" fill="#2DBDC8"/>
<path d="M169.775 110.066C198.344 109.332 218.14 122.957 217.569 145.081L226.097 132.262L215.6 112.24L200.993 104.92L168.822 102.999L169.775 110.066Z" fill="#2DBDC8"/>
<path d="M149.352 151.731C150.432 151.006 151.865 150.435 153.226 150.318L152.972 150.245C153.226 150.236 153.471 150.263 153.716 150.29C154.696 150.29 155.603 150.553 156.265 151.233L156.238 151.224C157.554 152.093 158.57 153.443 158.933 154.974C159.577 157.647 158.407 160.591 156.275 162.331C154.424 163.844 151.711 164.487 149.579 163.4C147.619 162.403 146.531 160.156 146.422 157.973C146.322 155.572 147.356 153.063 149.352 151.731Z" fill="#455A64"/>
<path d="M157.853 143.414C157.835 143.45 157.39 143.269 156.737 142.717C156.102 142.155 155.276 141.167 154.777 139.7C154.278 138.259 154.17 136.248 155.086 134.373C155.512 133.449 156.084 132.579 156.447 131.628C156.837 130.694 156.864 129.643 156.302 128.774C155.748 127.895 154.832 127.261 154.006 126.554C153.153 125.875 152.41 125.014 151.938 124.099C150.967 122.269 150.804 120.348 151.012 118.835C151.212 117.304 151.802 116.172 152.283 115.474C152.763 114.768 153.163 114.496 153.181 114.514C153.335 114.595 151.838 115.963 151.548 118.899C151.412 120.33 151.629 122.106 152.555 123.764C153.017 124.597 153.652 125.331 154.487 125.983C155.295 126.663 156.265 127.306 156.946 128.375C157.663 129.444 157.59 130.876 157.136 131.89C156.71 132.941 156.129 133.811 155.712 134.672C154.85 136.357 154.886 138.169 155.286 139.537C155.685 140.923 156.392 141.901 156.937 142.499C157.508 143.097 157.889 143.36 157.853 143.414Z" fill="white"/>
<path d="M185.715 108.797C185.742 108.761 185.905 108.788 186.069 109.024C186.232 109.25 186.323 109.676 186.168 110.147C186.023 110.618 185.66 111.035 185.425 111.461C185.189 111.887 185.071 112.421 185.08 112.992C185.107 114.161 185.66 115.157 186.041 115.873C186.441 116.589 186.695 117.06 186.604 117.123C186.522 117.177 186.123 116.842 185.597 116.172C185.089 115.51 184.363 114.432 184.318 113.01C184.3 112.312 184.472 111.624 184.817 111.098C185.161 110.591 185.506 110.265 185.66 109.948C186.014 109.277 185.66 108.861 185.715 108.797Z" fill="white"/>
<path d="M225.235 120.14C225.317 120.285 224.309 120.511 223.693 121.78C223.384 122.432 222.867 123.193 222.431 124.017C221.978 124.86 221.542 125.857 220.798 126.79C219.238 128.71 216.834 129.1 215.355 128.864C213.813 128.629 213.078 127.931 213.132 127.877C213.196 127.759 213.994 128.248 215.409 128.33C216.779 128.42 218.875 127.967 220.209 126.31C220.871 125.485 221.325 124.525 221.824 123.673C222.341 122.794 222.858 122.142 223.239 121.499C223.638 120.847 224.201 120.43 224.6 120.285C224.981 120.122 225.217 120.095 225.235 120.14Z" fill="white"/>
<path d="M223.801 138.83C223.883 138.884 223.729 139.301 223.221 139.781C222.722 140.261 221.824 140.769 220.726 140.823C219.628 140.877 218.675 140.452 218.14 140.026C217.587 139.591 217.396 139.192 217.469 139.129C217.605 138.966 218.83 140.153 220.689 140.062C222.549 139.981 223.656 138.685 223.801 138.83Z" fill="white"/>
<path d="M179.527 107.964C179.346 107.837 180.244 106.342 180.698 104.286C181.17 102.238 180.997 100.499 181.224 100.462C181.414 100.408 181.95 102.229 181.442 104.449C180.943 106.677 179.673 108.091 179.527 107.964Z" fill="white"/>
<path d="M167.27 103.525C167.243 103.47 167.47 103.371 167.706 103.035C167.942 102.718 168.187 102.157 168.187 101.441C168.232 99.9731 167.152 98.0887 166.39 95.8057C166.018 94.6461 165.846 93.4593 165.955 92.3812C166.046 91.3031 166.454 90.3518 166.971 89.7176C167.479 89.0653 168.105 88.7211 168.559 88.6124C169.021 88.5127 169.275 88.6124 169.266 88.6577C169.266 88.7211 169.021 88.7301 168.649 88.8932C168.286 89.0653 167.806 89.4187 167.406 90.0347C166.535 91.2306 166.381 93.4049 167.116 95.5702C167.824 97.7445 168.903 99.7467 168.731 101.468C168.649 102.311 168.277 102.927 167.933 103.235C167.57 103.561 167.279 103.57 167.27 103.525Z" fill="white"/>
<path d="M186.323 99.04C186.296 98.9947 186.477 98.8316 186.831 98.5689C187.148 98.3062 187.756 97.9438 187.929 97.3277C188.065 96.7388 187.656 95.8148 187.157 94.9994C186.64 94.1478 185.887 93.3143 185.171 92.3268C184.49 91.3393 183.782 90.2793 183.855 89.0382C183.973 87.8604 184.617 87.045 185.116 86.429C186.187 85.224 186.994 84.6805 187.058 84.7439C187.148 84.8254 186.459 85.5321 185.542 86.7642C185.116 87.3802 184.608 88.1775 184.554 89.0835C184.508 89.9532 185.125 90.9497 185.787 91.8829C187.166 93.7129 188.809 95.5611 188.446 97.4908C188.065 98.3968 187.348 98.6142 186.994 98.8226C186.577 99.0038 186.35 99.0853 186.323 99.04Z" fill="white"/>
<path d="M203.796 99.647C203.751 99.5383 204.64 99.3571 205.13 98.2246C205.375 97.672 205.466 96.9654 205.312 96.159C205.175 95.3618 204.822 94.5011 204.468 93.5589C204.114 92.6167 203.842 91.6292 203.896 90.687C203.951 89.6905 204.468 88.9657 204.912 88.4584C205.838 87.3803 206.881 87.3621 206.845 87.489C206.854 87.5796 206.056 87.7517 205.33 88.7936C204.976 89.2918 204.595 89.9532 204.595 90.7142C204.577 91.5024 204.831 92.3812 205.175 93.2962C205.52 94.2112 205.883 95.1353 205.992 96.0503C206.128 96.9563 205.956 97.8532 205.593 98.4602C205.239 99.0853 204.749 99.4477 204.386 99.5836C204.023 99.7285 203.806 99.6923 203.796 99.647Z" fill="white"/>
<path d="M183.075 99.2846C184.032 99.1199 184.981 98.9823 185.916 98.869C185.483 98.4469 184.571 98.2545 182.948 98.5326C175.545 99.801 169.157 102.202 164.657 104.077C162.408 105.028 160.602 105.844 159.377 106.442C158.143 107.04 157.481 107.393 157.499 107.438C157.517 107.484 158.234 107.221 159.495 106.714C160.892 106.152 162.698 105.436 164.857 104.575C169.402 102.827 175.762 100.535 183.075 99.2846Z" fill="#263238"/>
<path d="M478.604 319.135L463.207 354.721L448.927 400.545L587.293 401.197L584.943 314.406L516.935 307.475L478.604 319.135Z" fill="#263238"/>
<path d="M373.462 347.238C374.143 347.72 374.871 348.093 375.615 348.38C374.997 347.837 374.363 347.335 373.725 346.866L373.462 347.238Z" fill="#925B4C"/>
<path d="M378.234 355.093C378.216 355.02 378.76 354.884 379.595 354.549C380.411 354.214 381.573 353.697 382.553 352.801C383.033 352.348 383.369 351.813 383.487 351.288C383.596 350.762 383.469 350.246 383.278 349.883C382.87 349.113 382.235 349.059 382.262 348.986C382.262 348.959 382.417 348.932 382.68 349.005C382.934 349.077 383.306 349.294 383.569 349.711C383.832 350.119 384.031 350.708 383.913 351.369C383.805 352.021 383.405 352.647 382.879 353.145C381.8 354.123 380.584 354.585 379.704 354.866C378.824 355.12 378.243 355.147 378.234 355.093Z" fill="#925B4C"/>
<path d="M391.562 360.673C391.498 360.628 391.843 360.22 391.952 359.45C392.079 358.707 391.879 357.512 390.972 356.796C390.038 356.098 388.831 356.216 388.15 356.533C387.434 356.841 387.134 357.276 387.071 357.222C387.025 357.213 387.234 356.66 388.005 356.225C388.731 355.799 390.128 355.573 391.262 356.415C392.369 357.303 392.514 358.707 392.288 359.514C392.061 360.374 391.58 360.719 391.562 360.673Z" fill="#925B4C"/>
<path d="M460.195 372.614L457.292 376.908L435.572 376.863L407.928 387.988H479.347C479.955 387.236 481.815 384.392 481.815 384.392C476.798 381.665 460.195 372.614 460.195 372.614Z" fill="#C78976"/>
<path d="M559.159 240.66C543.572 215.465 510.058 184.672 507.209 183.258C504.36 181.836 458.553 178.964 458.553 178.964L422.372 204.594L410.36 222.523C408.718 227.623 405.833 235.487 407.148 240.678L408.264 249.521L446.006 273.846L464.777 284.781L475.228 299.584L474.394 324.299L489.182 321.49C489.182 321.49 511.954 323.737 533.783 324.272C555.611 324.806 585.632 317.885 585.632 317.885C585.632 317.885 576.551 268.763 559.159 240.66Z" fill="#455A64"/>
<path d="M472.108 222.351L484.918 293.324L458.344 371.617L484.918 386.095C484.918 386.095 503.898 352.746 512.435 332.57C520.972 312.395 524.093 301.124 524.093 301.124C524.093 301.124 524.057 224.416 521.326 215.574C518.604 206.732 509.586 189.202 500.096 190.153C490.606 191.086 468.215 200.816 472.108 222.351Z" fill="#455A64"/>
<path d="M408.264 249.521L431.154 305.5C431.154 305.5 429.24 308.454 428.396 312.087L399.881 326.192L408.264 353.145C408.264 353.145 443.883 341.331 448.927 338.613C453.972 335.895 468.524 325.54 471.046 317.151C473.568 308.762 459.587 279.001 459.587 279.001L408.264 249.521Z" fill="#455A64"/>
<path d="M457.573 214.949C457.446 215.003 456.784 213.536 455.668 211.914C454.561 210.292 453.418 209.151 453.518 209.051C453.59 208.961 454.915 209.966 456.058 211.642C457.219 213.318 457.691 214.913 457.573 214.949Z" fill="#263238"/>
<path d="M466.21 206.895C466.101 206.986 465.022 205.627 463.171 204.675C461.338 203.697 459.596 203.588 459.615 203.443C459.596 203.326 461.438 203.226 463.389 204.259C465.348 205.273 466.319 206.841 466.21 206.895Z" fill="#263238"/>
<path d="M470.937 197.274C470.892 197.401 469.558 196.993 467.88 196.766C466.201 196.522 464.804 196.549 464.795 196.413C464.777 196.295 466.201 196.051 467.943 196.295C469.694 196.531 470.992 197.156 470.937 197.274Z" fill="#263238"/>
<path d="M470.13 186.076C470.139 186.212 468.887 186.402 467.39 186.828C465.893 187.245 464.722 187.743 464.659 187.625C464.595 187.516 465.711 186.81 467.263 186.375C468.805 185.931 470.121 185.949 470.13 186.076Z" fill="#263238"/>
<path d="M442.949 220.385C442.84 220.439 442.232 219.171 442.25 217.477C442.25 215.783 442.876 214.523 442.985 214.578C443.121 214.623 442.722 215.882 442.722 217.477C442.704 219.071 443.085 220.34 442.949 220.385Z" fill="#263238"/>
<path d="M428.323 217.522C428.224 217.44 428.804 216.589 429.63 215.638C430.446 214.677 431.19 213.971 431.29 214.061C431.39 214.143 430.809 214.985 429.984 215.946C429.167 216.897 428.423 217.604 428.323 217.522Z" fill="#263238"/>
<path d="M477.732 199.445C477.154 199.61 477.275 199.679 477.732 199.445V199.445Z" fill="#263238"/>
<g opacity="0.3">
<path d="M514.83 326.953C514.975 326.573 515.111 326.201 515.256 325.821C515.175 325.875 515.102 325.93 515.021 325.984L514.83 326.953Z" fill="black"/>
<path d="M529.165 277.044C528.021 265.411 526.515 253.779 523.485 242.49C520.927 262.095 525.962 282.19 522.596 301.668C521.163 309.967 518.241 317.93 515.256 325.812C522.678 320.965 527.15 312.485 528.92 303.806C530.707 295.036 530.045 285.958 529.165 277.044Z" fill="black"/>
</g>
<g opacity="0.3">
<path d="M461.71 282.951L430.201 259.205C430.555 268.057 437.296 275.322 444.309 280.758C451.322 286.194 460.848 292.445 467.499 298.316C465.303 293.424 463.906 287.843 461.71 282.951Z" fill="black"/>
</g>
<path d="M475.056 233.82C475.127 233.92 476.249 232.479 478.711 230.812H478.25C477.506 231.374 476.916 231.918 476.426 232.335C476.009 232.778 475.664 233.132 475.392 233.422C475.156 233.675 475.047 233.811 475.056 233.82Z" fill="white"/>
<path d="M438.993 266.181C439.029 266.19 438.957 266.526 438.811 267.142C438.739 267.45 438.648 267.821 438.485 268.247C438.331 268.664 438.185 269.162 437.931 269.669C437.695 270.186 437.441 270.756 437.097 271.318C436.788 271.907 436.371 272.496 435.944 273.112C435.046 274.308 433.948 275.558 432.615 276.663C431.272 277.769 429.857 278.629 428.514 279.291C427.144 279.907 425.865 280.36 424.749 280.586C424.205 280.731 423.687 280.785 423.243 280.849C422.798 280.921 422.408 280.939 422.1 280.949C421.465 280.967 421.12 280.958 421.12 280.93C421.111 280.831 422.517 280.822 424.676 280.269C425.756 280.006 426.999 279.535 428.333 278.91C429.639 278.24 431.018 277.388 432.324 276.31C433.631 275.223 434.711 274.018 435.609 272.858C436.035 272.26 436.453 271.699 436.77 271.128C437.124 270.575 437.396 270.032 437.641 269.533C438.594 267.522 438.893 266.163 438.993 266.181Z" fill="white"/>
<path d="M465.449 192.762C465.576 191.013 465.258 189.265 464.532 187.67L437.006 127.487C430.592 110.201 415.168 99.5292 398.04 106.415L396.497 107.139C380.947 114.469 373.634 132.497 379.704 148.569C385.347 163.517 391.779 179.952 395.526 187.634C403.283 203.534 420.485 198.47 420.485 198.47L423.688 204.594C423.688 204.594 427.044 216.136 441.397 214.514C452.429 213.273 460.604 202.574 463.797 197.681C464.759 196.214 465.321 194.52 465.449 192.762Z" fill="#C78976"/>
<path d="M420.34 198.515C420.34 198.515 430.855 194.302 438.421 182.488C438.421 182.488 438.929 196.322 422.263 202.42L420.34 198.515Z" fill="#925B4C"/>
<path d="M389.974 160.627C390.5 161.85 391.979 162.421 393.267 161.896C394.556 161.37 395.182 159.948 394.656 158.725C394.129 157.502 392.651 156.931 391.362 157.457C390.074 157.982 389.448 159.404 389.974 160.627Z" fill="#263238"/>
<path d="M386.853 154.775C387.28 154.938 388.405 152.845 390.872 151.686C393.313 150.499 395.726 150.906 395.844 150.481C395.917 150.281 395.372 149.883 394.311 149.683C393.267 149.475 391.689 149.547 390.156 150.281C388.622 151.015 387.606 152.184 387.134 153.108C386.645 154.05 386.645 154.711 386.853 154.775Z" fill="#263238"/>
<path d="M412.592 150.164C413.118 151.387 414.597 151.957 415.885 151.432C417.173 150.906 417.799 149.484 417.273 148.261C416.747 147.038 415.268 146.467 413.98 146.993C412.683 147.518 412.066 148.931 412.592 150.164Z" fill="#263238"/>
<path d="M411.258 143.831C411.685 143.994 412.81 141.892 415.277 140.742C417.718 139.555 420.122 139.962 420.249 139.537C420.312 139.337 419.777 138.939 418.716 138.739C417.672 138.531 416.094 138.603 414.561 139.328C413.027 140.062 412.011 141.231 411.539 142.155C411.058 143.097 411.059 143.758 411.258 143.831Z" fill="#263238"/>
<path d="M418.988 164.55C418.58 164.713 419.832 167.386 418.444 170.357C417.056 173.338 414.071 174.38 414.225 174.76C414.27 174.942 415.105 174.978 416.321 174.443C417.518 173.927 419.061 172.74 419.913 170.919C420.757 169.098 420.63 167.268 420.204 166.127C419.777 164.967 419.17 164.451 418.988 164.55Z" fill="#263238"/>
<path d="M406.069 134.49C406.631 135.043 408.936 133.566 411.984 132.552C415.014 131.474 417.745 131.22 417.845 130.441C417.881 130.069 417.174 129.634 415.931 129.435C414.688 129.227 412.91 129.317 411.086 129.942C409.262 130.568 407.802 131.591 406.958 132.515C406.096 133.449 405.815 134.228 406.069 134.49Z" fill="#263238"/>
<path d="M384.385 147.237C385.084 147.591 386.499 146.214 388.531 145.226C390.518 144.166 392.478 143.822 392.596 143.052C392.632 142.689 392.097 142.254 391.099 142.082C390.11 141.91 388.658 142.064 387.279 142.762C385.9 143.468 384.921 144.547 384.485 145.453C384.031 146.368 384.068 147.056 384.385 147.237Z" fill="#263238"/>
<path d="M377.781 140.515C377.781 140.515 377.273 128.511 381.001 123.891C385.519 118.301 391.072 123.528 395.917 119.343C400.761 115.157 405.062 109.803 412.801 111.425C421.274 113.2 419.913 117.884 423.651 124.797C438.821 152.827 447.929 158.489 443.012 144.229C442.477 142.671 446.042 139.546 443.683 132.977C440.626 124.47 436.271 114.441 431.726 109.531C427.897 105.391 423.524 103.334 416.792 101.975C406.159 99.8372 395.3 104.802 388.314 108.997C381.337 113.191 371.176 128.285 377.781 140.515Z" fill="#263238"/>
<path d="M441.787 144.266C440.717 141.747 441.933 138.794 444.5 137.87C447.621 136.746 451.749 136.873 454.462 143.124C459.279 154.222 447.131 156.768 446.968 156.46C446.868 156.252 443.765 148.931 441.787 144.266Z" fill="#C78976"/>
<path d="M396.842 120.638C396.755 120.685 396.668 120.729 396.581 120.772C396.564 120.676 396.551 120.58 396.542 120.484L396.842 120.638Z" fill="#455A64"/>
<path d="M395.106 148.758C394.593 148.68 394.742 148.648 395.106 148.758V148.758Z" fill="#263238"/>
<path d="M423.303 135.359C422.791 135.281 422.939 135.248 423.303 135.359V135.359Z" fill="#263238"/>
<path d="M399.237 152.211C399.304 152.257 399.622 151.767 400.237 151.169H399.772C399.337 151.758 399.192 152.184 399.237 152.211Z" fill="#263238"/>
<path d="M441.216 140.95C441.216 141.077 438.439 141.258 435.019 141.339C431.59 141.43 428.813 141.394 428.813 141.258C428.813 141.131 431.581 140.95 435.01 140.868C438.439 140.778 441.216 140.814 441.216 140.95Z" fill="#263238"/>
<path d="M346.008 382.534H400.843C402.349 382.534 403.574 383.757 403.574 385.261C403.574 386.765 402.349 387.988 400.843 387.988H346.008C344.502 387.988 343.278 386.765 343.278 385.261C343.269 383.757 344.493 382.534 346.008 382.534Z" fill="#E0E0E0"/>
<path d="M301.789 348.751C301.789 351.895 299.24 354.44 296.091 354.44C292.943 354.44 290.394 351.895 290.394 348.751C290.394 345.607 292.943 343.061 296.091 343.061C299.24 343.052 301.789 345.607 301.789 348.751Z" fill="white"/>
<path d="M350.245 387.381C350.118 387.399 347.215 370.53 343.777 349.693C340.329 328.856 337.644 311.942 337.771 311.923C337.898 311.905 340.801 328.774 344.248 349.621C347.678 370.449 350.372 387.363 350.245 387.381Z" fill="#263238"/>
<path d="M618.429 387.997H7.38501V403H618.429V387.997Z" fill="#455A64"/>
<path d="M136.823 388.215C136.832 388.215 136.768 388.278 136.632 388.378C136.487 388.477 136.288 388.64 135.997 388.831C135.38 389.202 134.419 389.728 132.922 390.208C131.434 390.688 129.429 391.114 127.015 391.322C124.611 391.549 121.826 391.585 118.787 391.521C115.729 391.467 112.409 391.204 108.87 390.878C105.341 390.57 101.576 390.19 97.5841 390.126C89.5731 389.963 80.8725 391.141 72.181 392.889C63.4623 394.638 55.3152 396.631 47.5219 397.836C43.6297 398.443 39.8556 398.878 36.281 399.086C32.6973 399.295 29.3314 399.258 26.2921 399.077C20.1863 398.706 15.5049 397.6 12.5926 396.613C9.66216 395.616 8.35571 394.837 8.35571 394.837C8.36479 394.828 8.46458 394.864 8.65511 394.946C8.87285 395.037 9.14502 395.154 9.47163 395.29C10.1884 395.589 11.268 396.015 12.7468 396.477C15.6773 397.41 20.3224 398.452 26.3556 398.787C29.3586 398.95 32.6883 398.968 36.2265 398.751C39.7648 398.534 43.4936 398.09 47.3495 397.474C55.0702 396.251 63.1811 394.257 71.9451 392.5C80.6729 390.742 89.4823 389.556 97.6204 389.746C101.676 389.827 105.459 390.217 108.988 390.543C112.508 390.878 115.802 391.159 118.823 391.232C121.853 391.313 124.602 391.295 126.97 391.096C129.347 390.914 131.316 390.516 132.795 390.072C135.743 389.139 136.741 388.16 136.823 388.215Z" fill="#263238"/>
<path d="M69.9855 388.441C70.0218 388.468 69.3595 388.776 68.1347 389.329C66.9008 389.864 65.0228 390.588 62.5641 391.34C60.0783 392.065 57.0208 392.844 53.4462 393.424C49.8717 393.995 45.8253 394.393 41.534 394.466C32.9242 394.638 25.2488 393.406 20.2317 392.002C17.7095 391.286 15.9585 390.389 15.0966 389.646C14.643 389.284 14.4071 388.958 14.2529 388.74C14.1259 388.514 14.0714 388.396 14.0986 388.396C14.1803 388.378 14.389 388.858 15.3325 389.546C16.2488 390.235 17.9817 391.068 20.4766 391.73C25.4665 393.043 33.0421 394.212 41.5158 394.04C45.7346 393.968 49.7356 393.587 53.2648 393.043C56.8031 392.5 59.8424 391.757 62.3282 391.068C64.796 390.353 66.7012 389.682 67.9804 389.184C69.2324 388.695 69.9492 388.423 69.9855 388.441Z" fill="#263238"/>
<path d="M227.55 397.7C227.643 397.673 227.736 397.646 227.83 397.619L227.802 397.809C227.719 397.772 227.635 397.736 227.55 397.7C224.354 396.342 219.894 395.183 214.538 394.91C209.113 394.62 202.708 395.263 197.291 397.428C196.647 397.691 196.021 398.008 196.021 397.428H197.291C202.708 395.263 209.113 394.62 214.538 394.91C219.894 395.183 224.354 396.342 227.55 397.7Z" fill="#263238"/>
<path d="M291.99 388.604C292.018 388.595 292.308 388.849 292.589 389.356C292.889 389.864 293.143 390.643 292.997 391.603C292.798 393.533 290.684 396.078 287.046 398.153C285.286 399.222 283.372 400.119 281.484 400.808C279.588 401.487 277.728 401.958 276.123 402.266C274.517 402.574 273.165 402.719 272.24 402.81C271.305 402.882 270.779 402.909 270.779 402.882C270.752 402.801 272.829 402.647 275.95 401.985C277.502 401.65 279.289 401.161 281.112 400.481C282.927 399.793 284.778 398.914 286.502 397.863C290.067 395.825 292.145 393.424 292.471 391.576C292.88 389.728 291.809 388.631 291.99 388.604Z" fill="#263238"/>
<path d="M401.723 402.212C401.65 402.248 400.861 401.578 398.919 400.681C397.005 399.793 393.802 398.66 389.366 398.262C387.152 398.044 384.703 398.117 382.09 398.38C379.486 398.615 376.646 399.005 373.562 398.824C370.423 398.66 367.619 397.6 365.07 396.486C362.52 395.345 359.78 394.267 356.542 393.641C350.091 392.346 343.259 392.563 337.598 393.478C331.873 394.393 327.219 395.988 323.581 397.465C319.943 398.959 317.276 400.373 315.452 401.36C314.599 401.831 313.91 402.221 313.374 402.511C312.903 402.774 312.64 402.909 312.621 402.9C312.603 402.891 312.821 402.737 313.256 402.456C313.692 402.176 314.354 401.768 315.234 401.252C316.994 400.228 319.616 398.769 323.254 397.229C326.883 395.707 331.574 394.058 337.399 393.107C343.16 392.156 350.145 391.92 356.787 393.252C360.116 393.886 362.992 395.028 365.514 396.16C368.055 397.274 370.704 398.28 373.634 398.443C376.547 398.633 379.35 398.262 381.981 398.044C384.612 397.8 387.18 397.736 389.439 397.981C393.993 398.425 397.214 399.63 399.101 400.572C401.024 401.505 401.723 402.212 401.723 402.212Z" fill="#263238"/>
<path d="M462.554 401.107C462.868 401.067 463.181 401.027 463.491 400.985C463.245 400.762 462.883 400.646 462.373 400.699C458.871 401.143 455.178 401.478 451.368 401.487C443.747 401.514 436.571 400.463 430.456 399.077C424.323 397.673 419.151 395.961 415.114 394.294C411.077 392.636 408.074 391.087 406.159 389.936C405.152 389.392 404.49 388.903 403.973 388.604C403.474 388.296 403.202 388.142 403.184 388.151C403.165 388.16 403.392 388.332 403.855 388.659C404.336 388.976 404.971 389.483 405.951 390.054C407.811 391.241 410.768 392.835 414.806 394.538C418.834 396.242 424.023 397.999 430.202 399.44C436.362 400.862 443.62 401.94 451.386 401.913C455.26 401.904 459.007 401.56 462.554 401.107Z" fill="#263238"/>
<path d="M485.698 387.997C485.716 388.006 485.535 388.088 485.181 388.233C484.827 388.369 484.301 388.586 483.602 388.831C482.214 389.338 480.137 390.027 477.478 390.779C474.82 391.521 471.572 392.328 467.807 392.989C464.06 393.641 459.778 394.194 455.187 394.203C446.006 394.176 438.076 392.491 432.787 391.023C430.129 390.271 428.079 389.556 426.718 389.021C426.028 388.767 425.52 388.532 425.175 388.387C424.831 388.233 424.658 388.151 424.676 388.142C424.713 388.115 425.475 388.396 426.881 388.885C428.278 389.374 430.356 390.045 433.023 390.751C438.321 392.138 446.187 393.75 455.187 393.777C459.66 393.777 463.888 393.243 467.599 392.618C471.327 391.983 474.575 391.213 477.243 390.507C479.91 389.8 482.015 389.157 483.439 388.686C484.873 388.233 485.662 387.97 485.698 387.997Z" fill="#263238"/>
<path d="M592.564 389.528C592.555 389.546 592.137 389.546 591.348 389.528C590.413 389.51 589.27 389.483 587.9 389.456C587.138 389.438 586.304 389.42 585.415 389.392C584.489 389.392 583.5 389.383 582.448 389.383C580.325 389.374 577.902 389.356 575.235 389.42C573.892 389.447 572.495 389.465 571.044 389.492C569.592 389.546 568.086 389.601 566.525 389.664C563.395 389.755 560.102 389.99 556.627 390.181C549.723 390.67 542.229 391.358 534.617 392.319C527.033 393.306 520.101 394.457 514.005 395.625C511.038 396.251 508.126 396.803 505.622 397.419C504.351 397.718 503.118 398.008 501.929 398.289C500.795 398.588 499.706 398.878 498.663 399.15C496.54 399.684 494.789 400.228 493.21 400.69C492.43 400.916 491.695 401.134 491.015 401.342C490.389 401.55 489.817 401.741 489.282 401.922C488.311 402.239 487.513 402.502 486.841 402.719C486.27 402.9 485.961 402.991 485.925 402.982C485.889 402.973 486.143 402.864 486.651 402.665C487.268 402.429 488.012 402.148 488.919 401.813C489.436 401.623 489.99 401.424 490.579 401.206C491.242 400.998 491.958 400.771 492.711 400.527C494.245 400.038 495.968 399.476 498.073 398.923C499.107 398.642 500.187 398.343 501.312 398.035C502.492 397.745 503.725 397.446 504.996 397.138C507.5 396.504 510.412 395.934 513.388 395.29C519.503 394.094 526.488 392.917 534.146 391.929C541.83 390.96 549.406 390.271 556.391 389.8C559.912 389.619 563.232 389.392 566.408 389.311C567.977 389.257 569.501 389.211 570.971 389.166C572.441 389.148 573.847 389.13 575.199 389.121C577.893 389.066 580.334 389.112 582.475 389.148C583.537 389.166 584.525 389.175 585.451 389.193C586.349 389.229 587.175 389.266 587.946 389.293C589.316 389.356 590.45 389.401 591.384 389.447C592.164 389.492 592.564 389.519 592.564 389.528Z" fill="#263238"/>
<path d="M412.701 401.904C412.619 401.94 411.766 400.971 409.335 399.657C406.94 398.343 402.775 396.803 397.023 395.798C394.156 395.29 390.917 394.919 387.415 394.611C383.913 394.294 380.139 394.049 376.184 393.669C372.219 393.306 368.136 392.663 363.981 391.947C359.817 391.25 355.507 390.498 350.962 390.181C341.835 389.528 333.035 390.615 325.604 392.147C321.866 392.917 318.455 393.841 315.289 394.747C312.131 395.653 309.228 396.55 306.597 397.383C301.335 399.05 297.153 400.472 294.268 401.469C292.871 401.949 291.764 402.33 290.947 402.61C290.593 402.728 290.312 402.828 290.076 402.9C289.877 402.964 289.777 402.991 289.768 402.991C289.759 402.982 289.849 402.946 290.04 402.864C290.267 402.774 290.539 402.665 290.865 402.538C291.6 402.257 292.689 401.84 294.113 401.324C296.953 400.291 301.099 398.833 306.334 397.12C308.956 396.269 311.841 395.354 314.998 394.43C318.156 393.506 321.585 392.563 325.359 391.775C332.844 390.208 341.762 389.093 351.053 389.755C355.68 390.081 360.025 390.842 364.19 391.54C368.345 392.264 372.364 392.899 376.302 393.27C380.221 393.66 383.995 393.922 387.515 394.248C391.035 394.575 394.292 394.973 397.187 395.499C402.993 396.55 407.175 398.162 409.543 399.53C411.938 400.916 412.701 401.904 412.701 401.904Z" fill="#263238"/>
<path d="M275.07 388.215C275.107 388.215 275.125 388.559 274.979 389.175C274.852 389.791 274.48 390.67 273.782 391.703C272.376 393.75 269.482 396.522 264.392 398.452C259.311 400.282 254.167 401.342 250.475 402.049C248.615 402.393 247.091 402.647 246.029 402.801C244.968 402.955 244.378 403.018 244.36 403C244.342 402.973 244.913 402.855 245.947 402.647C247.127 402.411 248.578 402.121 250.302 401.768C253.94 400.989 259.003 399.893 263.984 398.099C268.874 396.251 271.795 393.569 273.292 391.594C274.816 389.592 274.916 388.206 275.07 388.215Z" fill="#263238"/>
<path d="M133.221 403C133.185 402.982 133.72 402.692 134.709 402.194C135.689 401.695 137.177 401.007 139.055 400.192C142.811 398.561 148.291 396.513 154.641 394.556C160.992 392.6 166.926 391.032 171.226 389.918C173.376 389.365 175.136 388.93 176.352 388.631C177.568 388.342 178.257 388.188 178.275 388.215C178.293 388.242 177.658 388.441 176.479 388.785C175.163 389.157 173.476 389.628 171.462 390.19C167.216 391.367 161.337 392.971 155.013 394.928C148.69 396.885 143.21 398.878 139.381 400.436C137.467 401.215 135.934 401.858 134.9 402.321C133.847 402.774 133.248 403.018 133.221 403Z" fill="#263238"/>
<path d="M162.008 388.831C161.999 388.876 160.593 388.731 158.062 388.84C155.54 388.949 151.911 389.42 147.864 390.579C143.782 391.694 139.472 393.551 134.618 395.571C132.178 396.568 129.565 397.6 126.644 398.47C123.722 399.349 120.492 400.028 117.108 400.536C110.304 401.523 103.608 401.75 97.5842 401.849C91.5419 401.949 86.1165 401.877 81.5712 401.985C77.0258 402.076 73.3605 402.321 70.8565 402.574C69.6045 402.701 68.6337 402.81 67.9805 402.9C67.3273 402.982 66.9734 403.018 66.9734 403C66.9644 402.982 67.3001 402.918 67.9442 402.819C68.5884 402.701 69.55 402.574 70.8021 402.42C73.3061 402.121 76.9805 401.822 81.5439 401.695C86.1074 401.55 91.5509 401.587 97.557 401.469C103.563 401.342 110.204 401.097 116.909 400.128C120.247 399.63 123.423 398.968 126.29 398.108C129.166 397.256 131.76 396.242 134.201 395.254C139.055 393.261 143.446 391.413 147.619 390.307C151.747 389.166 155.467 388.731 158.025 388.668C159.314 388.64 160.303 388.677 160.974 388.722C161.664 388.785 162.008 388.822 162.008 388.831Z" fill="#263238"/>
</g>
<defs>
<clipPath id="clip0_1_4997">
<rect width="633" height="403" fill="white"/>
</clipPath>
</defs>
</svg>
