<svg width="428" height="92" viewBox="0 0 428 92" fill="none" xmlns="http://www.w3.org/2000/svg">
<rect x="2" y="2" width="424" height="88" rx="16" fill="white" stroke="#2D42C8" stroke-width="4"/>
<path d="M5 80.5C5 75.2533 9.2533 71 14.5 71H424V81.5C424 86.7467 419.747 91 414.5 91H14.5C9.25329 91 5 86.7467 5 81.5V80.5Z" fill="#2D42C8"/>
<path d="M51.4596 0C51.2788 0 15.6046 0 15.4178 0.0150721C6.90906 0.301442 0.00623221 7.4637 0.00623221 16.0578V16.0879C0.00623221 75.6317 -0.0419761 76.1201 0.129766 76.5993C0.470237 85.1121 7.46647 92 16.0626 92C20.3046 91.9824 24.3664 90.2817 27.3563 87.2712C30.3463 84.2606 32.0201 80.1862 32.0105 75.9422V65.5575H51.4596C69.4051 65.5575 84.0002 50.8532 84.0002 32.7788C84.0002 14.7043 69.4051 0 51.4596 0ZM51.3451 30.325C52.0233 30.3282 52.6725 30.6004 53.1504 31.0819C53.6282 31.5634 53.8957 32.2148 53.8941 32.8933C53.8941 34.0629 53.0595 35.4616 51.0317 35.4616H33.9268V30.316L51.3451 30.325ZM51.4596 61.7473C42.1192 61.7473 22.9353 61.5966 16.2434 62.1573C11.1002 62.5883 6.25524 64.5145 3.79963 68.3308V47.884C4.86021 39.7451 13.0767 39.2507 18.702 39.2507L50.8449 39.2206C56.6962 38.8136 60.8753 35.7721 63.2465 31.4193C68.0432 22.6111 65.5183 10.5716 55.9761 4.17195C69.6974 6.36042 80.2249 18.3548 80.2249 32.7788C80.2249 48.7522 67.3201 61.7473 51.4596 61.7473V61.7473Z" fill="#3E56DD"/>
<path d="M98.8639 57V28.6H110.624C111.851 28.6 112.971 28.8667 113.984 29.4C115.024 29.9067 115.917 30.5867 116.664 31.44C117.411 32.2667 117.997 33.2133 118.424 34.28C118.851 35.3467 119.064 36.4267 119.064 37.52C119.064 38.6933 118.864 39.8267 118.464 40.92C118.064 41.9867 117.504 42.9333 116.784 43.76C116.064 44.5867 115.197 45.2533 114.184 45.76C113.197 46.2667 112.091 46.52 110.864 46.52H101.664V57H98.8639ZM101.664 44.04H110.744C111.571 44.04 112.317 43.8667 112.984 43.52C113.677 43.1467 114.264 42.6667 114.744 42.08C115.224 41.4667 115.597 40.7733 115.864 40C116.131 39.2 116.264 38.3733 116.264 37.52C116.264 36.64 116.104 35.8133 115.784 35.04C115.491 34.24 115.077 33.5467 114.544 32.96C114.037 32.3733 113.424 31.92 112.704 31.6C112.011 31.2533 111.277 31.08 110.504 31.08H101.664V44.04ZM139.947 57V28.6H151.947C153.173 28.6 154.293 28.8667 155.307 29.4C156.347 29.9067 157.24 30.5867 157.987 31.44C158.733 32.2667 159.307 33.2133 159.707 34.28C160.133 35.3467 160.347 36.4267 160.347 37.52C160.347 38.56 160.187 39.56 159.867 40.52C159.573 41.4533 159.147 42.3067 158.587 43.08C158.053 43.8267 157.4 44.4667 156.627 45C155.853 45.5067 154.987 45.8533 154.027 46.04L160.987 57H157.827L151.147 46.52H142.747V57H139.947ZM142.747 44.04H152.027C152.853 44.04 153.6 43.8667 154.267 43.52C154.96 43.1467 155.547 42.6533 156.027 42.04C156.507 41.4267 156.88 40.7333 157.147 39.96C157.413 39.1867 157.547 38.3733 157.547 37.52C157.547 36.6667 157.387 35.8533 157.067 35.08C156.773 34.28 156.36 33.5867 155.827 33C155.32 32.4133 154.707 31.9467 153.987 31.6C153.293 31.2533 152.56 31.08 151.787 31.08H142.747V44.04ZM201.36 54.52V57H182.28V28.6H201V31.08H185.08V41.32H198.96V43.68H185.08V54.52H201.36ZM220.389 42.6C220.389 40.8933 220.682 39.2 221.269 37.52C221.882 35.8133 222.762 34.2933 223.909 32.96C225.055 31.6267 226.469 30.5467 228.149 29.72C229.829 28.8667 231.735 28.44 233.869 28.44C236.402 28.44 238.562 29.0133 240.349 30.16C242.162 31.3067 243.495 32.8 244.349 34.64L242.149 36C241.695 35.0667 241.135 34.28 240.469 33.64C239.829 33 239.135 32.48 238.389 32.08C237.642 31.68 236.869 31.4 236.069 31.24C235.269 31.0533 234.482 30.96 233.709 30.96C232.002 30.96 230.495 31.3067 229.189 32C227.882 32.6933 226.775 33.6 225.869 34.72C224.989 35.84 224.322 37.1067 223.869 38.52C223.415 39.9067 223.189 41.32 223.189 42.76C223.189 44.3333 223.455 45.84 223.989 47.28C224.549 48.72 225.295 50 226.229 51.12C227.189 52.2133 228.309 53.0933 229.589 53.76C230.895 54.4 232.309 54.72 233.829 54.72C234.629 54.72 235.442 54.6267 236.269 54.44C237.122 54.2267 237.935 53.9067 238.709 53.48C239.509 53.0267 240.242 52.48 240.909 51.84C241.575 51.1733 242.135 50.3733 242.589 49.44L244.909 50.64C244.455 51.7067 243.815 52.6533 242.989 53.48C242.162 54.28 241.242 54.96 240.229 55.52C239.215 56.08 238.135 56.5067 236.989 56.8C235.869 57.0933 234.762 57.24 233.669 57.24C231.722 57.24 229.935 56.8133 228.309 55.96C226.682 55.1067 225.282 54 224.109 52.64C222.935 51.2533 222.015 49.6933 221.349 47.96C220.709 46.2 220.389 44.4133 220.389 42.6ZM265.89 57V28.6H268.69V57H265.89ZM308.612 33.92C307.812 33.0133 306.746 32.28 305.412 31.72C304.079 31.16 302.559 30.88 300.852 30.88C298.346 30.88 296.519 31.36 295.372 32.32C294.226 33.2533 293.652 34.5333 293.652 36.16C293.652 37.0133 293.799 37.72 294.092 38.28C294.412 38.8133 294.892 39.28 295.532 39.68C296.172 40.08 296.986 40.4267 297.972 40.72C298.986 41.0133 300.172 41.3067 301.532 41.6C303.052 41.92 304.412 42.28 305.612 42.68C306.839 43.08 307.879 43.5867 308.732 44.2C309.586 44.7867 310.239 45.5067 310.692 46.36C311.146 47.2133 311.372 48.28 311.372 49.56C311.372 50.8667 311.119 52 310.612 52.96C310.106 53.92 309.399 54.72 308.492 55.36C307.586 56 306.506 56.48 305.252 56.8C303.999 57.0933 302.626 57.24 301.132 57.24C296.732 57.24 292.932 55.8667 289.732 53.12L291.132 50.84C291.639 51.3733 292.239 51.88 292.932 52.36C293.652 52.84 294.439 53.2667 295.292 53.64C296.172 53.9867 297.106 54.2667 298.092 54.48C299.079 54.6667 300.119 54.76 301.212 54.76C303.479 54.76 305.239 54.36 306.492 53.56C307.772 52.7333 308.412 51.4933 308.412 49.84C308.412 48.96 308.226 48.2267 307.852 47.64C307.506 47.0267 306.972 46.5067 306.252 46.08C305.532 45.6267 304.639 45.24 303.572 44.92C302.506 44.6 301.266 44.28 299.852 43.96C298.359 43.6133 297.052 43.2533 295.932 42.88C294.812 42.5067 293.866 42.04 293.092 41.48C292.319 40.92 291.732 40.2533 291.332 39.48C290.959 38.68 290.772 37.7067 290.772 36.56C290.772 35.2533 291.012 34.0933 291.492 33.08C291.999 32.04 292.706 31.1867 293.612 30.52C294.519 29.8267 295.586 29.3067 296.812 28.96C298.039 28.5867 299.399 28.4 300.892 28.4C302.786 28.4 304.466 28.6933 305.932 29.28C307.426 29.84 308.772 30.64 309.972 31.68L308.612 33.92ZM340.84 28.6H343.2L355 57H352.04L348.36 48.12H335.6L331.96 57H328.96L340.84 28.6ZM347.72 45.92L342 31.88L336.2 45.92H347.72ZM344.48 24C343.867 24 343.334 23.92 342.88 23.76C342.454 23.6 342.04 23.4267 341.64 23.24C341.267 23.0267 340.894 22.84 340.52 22.68C340.174 22.4933 339.787 22.4 339.36 22.4C338.907 22.4 338.547 22.4933 338.28 22.68C338.04 22.8667 337.84 23.08 337.68 23.32C337.547 23.5333 337.454 23.7467 337.4 23.96C337.374 24.1467 337.36 24.2667 337.36 24.32H335.68C335.68 24.1867 335.72 23.92 335.8 23.52C335.907 23.0933 336.094 22.6667 336.36 22.24C336.627 21.8133 337 21.44 337.48 21.12C337.96 20.7733 338.574 20.6 339.32 20.6C339.88 20.6 340.36 20.6933 340.76 20.88C341.187 21.04 341.587 21.2267 341.96 21.44C342.334 21.6533 342.707 21.8533 343.08 22.04C343.48 22.2 343.934 22.28 344.44 22.28C344.947 22.28 345.347 22.1867 345.64 22C345.96 21.8133 346.2 21.6 346.36 21.36C346.52 21.12 346.614 20.9067 346.64 20.72C346.694 20.5067 346.72 20.3733 346.72 20.32H348.4C348.4 20.4533 348.347 20.72 348.24 21.12C348.134 21.52 347.934 21.9333 347.64 22.36C347.374 22.7867 346.974 23.1733 346.44 23.52C345.934 23.84 345.28 24 344.48 24ZM385.657 57.2C383.684 57.2 381.87 56.8 380.217 56C378.59 55.1733 377.19 54.0933 376.017 52.76C374.844 51.4 373.937 49.8533 373.297 48.12C372.657 46.3867 372.337 44.6133 372.337 42.8C372.337 40.9067 372.67 39.0933 373.337 37.36C374.03 35.6267 374.977 34.0933 376.177 32.76C377.377 31.4267 378.79 30.3733 380.417 29.6C382.044 28.8 383.804 28.4 385.697 28.4C387.67 28.4 389.47 28.8267 391.097 29.68C392.75 30.5067 394.15 31.6 395.297 32.96C396.47 34.32 397.377 35.8667 398.017 37.6C398.657 39.3067 398.977 41.0533 398.977 42.84C398.977 44.7333 398.63 46.5467 397.937 48.28C397.27 50.0133 396.337 51.5467 395.137 52.88C393.964 54.1867 392.564 55.24 390.937 56.04C389.31 56.8133 387.55 57.2 385.657 57.2ZM375.137 42.8C375.137 44.3467 375.39 45.84 375.897 47.28C376.404 48.6933 377.124 49.96 378.057 51.08C378.99 52.1733 380.097 53.0533 381.377 53.72C382.657 54.36 384.084 54.68 385.657 54.68C387.257 54.68 388.71 54.3333 390.017 53.64C391.324 52.9467 392.43 52.04 393.337 50.92C394.244 49.8 394.937 48.5333 395.417 47.12C395.924 45.7067 396.177 44.2667 396.177 42.8C396.177 41.2533 395.91 39.7733 395.377 38.36C394.87 36.92 394.15 35.6533 393.217 34.56C392.284 33.4667 391.177 32.6 389.897 31.96C388.617 31.2933 387.204 30.96 385.657 30.96C384.057 30.96 382.604 31.3067 381.297 32C379.99 32.6667 378.884 33.56 377.977 34.68C377.07 35.8 376.364 37.0667 375.857 38.48C375.377 39.8933 375.137 41.3333 375.137 42.8Z" fill="white"/>
<path d="M98.8639 57H96.8639V59H98.8639V57ZM98.8639 28.6V26.6H96.8639V28.6H98.8639ZM113.984 29.4L113.052 31.1698L113.08 31.1843L113.108 31.198L113.984 29.4ZM116.664 31.44L115.159 32.757L115.169 32.7689L115.18 32.7806L116.664 31.44ZM118.424 34.28L116.567 35.0228L116.567 35.0228L118.424 34.28ZM118.464 40.92L120.337 41.6222L120.339 41.6147L120.342 41.6072L118.464 40.92ZM116.784 43.76L115.276 42.4464L115.276 42.4464L116.784 43.76ZM114.184 45.76L113.289 43.9711L113.28 43.976L113.27 43.9809L114.184 45.76ZM101.664 46.52V44.52H99.6639V46.52H101.664ZM101.664 57V59H103.664V57H101.664ZM101.664 44.04H99.6639V46.04H101.664V44.04ZM112.984 43.52L113.907 45.2944L113.919 45.2878L113.932 45.2809L112.984 43.52ZM114.744 42.08L116.292 43.3465L116.306 43.3297L116.319 43.3126L114.744 42.08ZM115.864 40L117.755 40.652L117.758 40.6422L117.761 40.6325L115.864 40ZM115.784 35.04L113.906 35.7285L113.92 35.7669L113.936 35.8047L115.784 35.04ZM114.544 32.96L113.03 34.2672L113.047 34.2865L113.064 34.3053L114.544 32.96ZM112.704 31.6L111.809 33.3889L111.85 33.4092L111.892 33.4276L112.704 31.6ZM101.664 31.08V29.08H99.6639V31.08H101.664ZM100.864 57V28.6H96.8639V57H100.864ZM98.8639 30.6H110.624V26.6H98.8639V30.6ZM110.624 30.6C111.55 30.6 112.347 30.7984 113.052 31.1698L114.915 27.6302C113.595 26.935 112.151 26.6 110.624 26.6V30.6ZM113.108 31.198C113.913 31.5903 114.591 32.1085 115.159 32.757L118.169 30.123C117.243 29.0649 116.135 28.223 114.86 27.602L113.108 31.198ZM115.18 32.7806C115.763 33.4261 116.225 34.1689 116.567 35.0228L120.281 33.5372C119.769 32.2578 119.058 31.1072 118.148 30.0994L115.18 32.7806ZM116.567 35.0228C116.904 35.8654 117.064 36.6939 117.064 37.52H121.064C121.064 36.1594 120.797 34.828 120.281 33.5372L116.567 35.0228ZM117.064 37.52C117.064 38.4608 116.904 39.3614 116.586 40.2328L120.342 41.6072C120.823 40.2919 121.064 38.9259 121.064 37.52H117.064ZM116.591 40.2178C116.272 41.0694 115.833 41.8071 115.276 42.4464L118.292 45.0736C119.175 44.0595 119.856 42.9039 120.337 41.6222L116.591 40.2178ZM115.276 42.4464C114.733 43.0695 114.077 43.5773 113.289 43.9711L115.078 47.5489C116.317 46.9293 117.395 46.1038 118.292 45.0736L115.276 42.4464ZM113.27 43.9809C112.595 44.3275 111.807 44.52 110.864 44.52V48.52C112.374 48.52 113.799 48.2058 115.098 47.5391L113.27 43.9809ZM110.864 44.52H101.664V48.52H110.864V44.52ZM99.6639 46.52V57H103.664V46.52H99.6639ZM101.664 55H98.8639V59H101.664V55ZM101.664 46.04H110.744V42.04H101.664V46.04ZM110.744 46.04C111.859 46.04 112.927 45.8037 113.907 45.2944L112.061 41.7456C111.707 41.9296 111.282 42.04 110.744 42.04V46.04ZM113.932 45.2809C114.847 44.7885 115.64 44.1435 116.292 43.3465L113.196 40.8135C112.888 41.1899 112.508 41.5048 112.036 41.7591L113.932 45.2809ZM116.319 43.3126C116.942 42.5159 117.419 41.6244 117.755 40.652L113.973 39.348C113.775 39.9223 113.505 40.4174 113.169 40.8474L116.319 43.3126ZM117.761 40.6325C118.097 39.6261 118.264 38.5857 118.264 37.52H114.264C114.264 38.161 114.164 38.7739 113.967 39.3675L117.761 40.6325ZM118.264 37.52C118.264 36.3913 118.057 35.3035 117.632 34.2753L113.936 35.8047C114.15 36.3232 114.264 36.8887 114.264 37.52H118.264ZM117.662 34.3515C117.286 33.3272 116.744 32.4064 116.024 31.6147L113.064 34.3053C113.411 34.6869 113.695 35.1528 113.906 35.7285L117.662 34.3515ZM116.058 31.6528C115.355 30.8393 114.501 30.21 113.516 29.7724L111.892 33.4276C112.347 33.63 112.719 33.9073 113.03 34.2672L116.058 31.6528ZM113.598 29.8111C112.628 29.326 111.588 29.08 110.504 29.08V33.08C110.966 33.08 111.393 33.1807 111.809 33.3889L113.598 29.8111ZM110.504 29.08H101.664V33.08H110.504V29.08ZM99.6639 31.08V44.04H103.664V31.08H99.6639ZM139.947 57H137.947V59H139.947V57ZM139.947 28.6V26.6H137.947V28.6H139.947ZM155.307 29.4L154.375 31.1698L154.403 31.1843L154.431 31.198L155.307 29.4ZM157.987 31.44L156.482 32.757L156.492 32.7689L156.503 32.7806L157.987 31.44ZM159.707 34.28L157.834 34.9822L157.842 35.0026L157.85 35.0228L159.707 34.28ZM159.867 40.52L157.969 39.8875L157.964 39.9039L157.959 39.9203L159.867 40.52ZM158.587 43.08L156.967 41.907L156.959 41.9175L158.587 43.08ZM156.627 45L157.723 46.6729L157.743 46.6599L157.762 46.6464L156.627 45ZM154.027 46.04L153.645 44.0768L150.766 44.6365L152.338 47.1122L154.027 46.04ZM160.987 57V59H164.626L162.675 55.9278L160.987 57ZM157.827 57L156.14 58.075L156.73 59H157.827V57ZM151.147 46.52L152.833 45.445L152.244 44.52H151.147V46.52ZM142.747 46.52V44.52H140.747V46.52H142.747ZM142.747 57V59H144.747V57H142.747ZM142.747 44.04H140.747V46.04H142.747V44.04ZM154.267 43.52L155.189 45.2944L155.202 45.2878L155.215 45.2809L154.267 43.52ZM156.027 42.04L157.602 43.2726L157.602 43.2726L156.027 42.04ZM157.147 39.96L159.037 40.612L159.037 40.612L157.147 39.96ZM157.067 35.08L155.189 35.7685L155.203 35.8069L155.219 35.8447L157.067 35.08ZM155.827 33L154.313 34.3072L154.33 34.3265L154.347 34.3453L155.827 33ZM153.987 31.6L153.092 33.3889L153.106 33.3955L153.119 33.402L153.987 31.6ZM142.747 31.08V29.08H140.747V31.08H142.747ZM141.947 57V28.6H137.947V57H141.947ZM139.947 30.6H151.947V26.6H139.947V30.6ZM151.947 30.6C152.873 30.6 153.669 30.7984 154.375 31.1698L156.238 27.6302C154.917 26.935 153.474 26.6 151.947 26.6V30.6ZM154.431 31.198C155.236 31.5903 155.914 32.1085 156.482 32.757L159.492 30.123C158.566 29.0649 157.457 28.223 156.183 27.602L154.431 31.198ZM156.503 32.7806C157.077 33.4165 157.52 34.1454 157.834 34.9822L161.579 33.5778C161.093 32.2812 160.39 31.1168 159.471 30.0994L156.503 32.7806ZM157.85 35.0228C158.187 35.8654 158.347 36.6939 158.347 37.52H162.347C162.347 36.1594 162.08 34.828 161.564 33.5372L157.85 35.0228ZM158.347 37.52C158.347 38.3511 158.219 39.1371 157.969 39.8875L161.764 41.1525C162.154 39.9829 162.347 38.7689 162.347 37.52H158.347ZM157.959 39.9203C157.728 40.6534 157.397 41.3123 156.967 41.907L160.207 44.253C160.896 43.301 161.418 42.2532 161.775 41.1197L157.959 39.9203ZM156.959 41.9175C156.564 42.4711 156.078 42.9486 155.491 43.3536L157.762 46.6464C158.722 45.9847 159.543 45.1823 160.214 44.2425L156.959 41.9175ZM155.531 43.3271C154.987 43.6835 154.365 43.9367 153.645 44.0768L154.408 48.0032C155.608 47.7699 156.72 47.3299 157.723 46.6729L155.531 43.3271ZM152.338 47.1122L159.298 58.0722L162.675 55.9278L155.715 44.9678L152.338 47.1122ZM160.987 55H157.827V59H160.987V55ZM159.513 55.925L152.833 45.445L149.46 47.595L156.14 58.075L159.513 55.925ZM151.147 44.52H142.747V48.52H151.147V44.52ZM140.747 46.52V57H144.747V46.52H140.747ZM142.747 55H139.947V59H142.747V55ZM142.747 46.04H152.027V42.04H142.747V46.04ZM152.027 46.04C153.142 46.04 154.21 45.8037 155.189 45.2944L153.344 41.7456C152.99 41.9296 152.565 42.04 152.027 42.04V46.04ZM155.215 45.2809C156.149 44.7782 156.95 44.1059 157.602 43.2726L154.452 40.8074C154.144 41.2008 153.771 41.5152 153.319 41.7591L155.215 45.2809ZM157.602 43.2726C158.225 42.4759 158.702 41.5844 159.037 40.612L155.256 39.308C155.058 39.8823 154.788 40.3774 154.452 40.8074L157.602 43.2726ZM159.037 40.612C159.38 39.6199 159.547 38.5855 159.547 37.52H155.547C155.547 38.1611 155.447 38.7534 155.256 39.308L159.037 40.612ZM159.547 37.52C159.547 36.4095 159.337 35.3359 158.915 34.3153L155.219 35.8447C155.436 36.3707 155.547 36.9238 155.547 37.52H159.547ZM158.944 34.3915C158.569 33.3672 158.026 32.4464 157.307 31.6547L154.347 34.3453C154.694 34.7269 154.978 35.1928 155.189 35.7685L158.944 34.3915ZM157.34 31.6928C156.649 30.8922 155.814 30.2598 154.854 29.798L153.119 33.402C153.6 33.6335 153.991 33.9345 154.313 34.3072L157.34 31.6928ZM154.881 29.8111C153.911 29.326 152.871 29.08 151.787 29.08V33.08C152.249 33.08 152.676 33.1807 153.092 33.3889L154.881 29.8111ZM151.787 29.08H142.747V33.08H151.787V29.08ZM140.747 31.08V44.04H144.747V31.08H140.747ZM201.36 54.52H203.36V52.52H201.36V54.52ZM201.36 57V59H203.36V57H201.36ZM182.28 57H180.28V59H182.28V57ZM182.28 28.6V26.6H180.28V28.6H182.28ZM201 28.6H203V26.6H201V28.6ZM201 31.08V33.08H203V31.08H201ZM185.08 31.08V29.08H183.08V31.08H185.08ZM185.08 41.32H183.08V43.32H185.08V41.32ZM198.96 41.32H200.96V39.32H198.96V41.32ZM198.96 43.68V45.68H200.96V43.68H198.96ZM185.08 43.68V41.68H183.08V43.68H185.08ZM185.08 54.52H183.08V56.52H185.08V54.52ZM199.36 54.52V57H203.36V54.52H199.36ZM201.36 55H182.28V59H201.36V55ZM184.28 57V28.6H180.28V57H184.28ZM182.28 30.6H201V26.6H182.28V30.6ZM199 28.6V31.08H203V28.6H199ZM201 29.08H185.08V33.08H201V29.08ZM183.08 31.08V41.32H187.08V31.08H183.08ZM185.08 43.32H198.96V39.32H185.08V43.32ZM196.96 41.32V43.68H200.96V41.32H196.96ZM198.96 41.68H185.08V45.68H198.96V41.68ZM183.08 43.68V54.52H187.08V43.68H183.08ZM185.08 56.52H201.36V52.52H185.08V56.52ZM221.269 37.52L219.386 36.8436L219.383 36.8521L219.38 36.8606L221.269 37.52ZM223.909 32.96L225.425 34.2641L225.425 34.2641L223.909 32.96ZM228.149 29.72L229.032 31.5145L229.043 31.5089L229.054 31.5032L228.149 29.72ZM240.349 30.16L239.268 31.8432L239.28 31.8504L240.349 30.16ZM244.349 34.64L245.4 36.3412L246.909 35.4082L246.163 33.7985L244.349 34.64ZM242.149 36L240.35 36.8738L241.317 38.8654L243.2 37.7012L242.149 36ZM240.469 33.64L239.054 35.0542L239.069 35.0686L239.084 35.0828L240.469 33.64ZM238.389 32.08L237.444 33.843L237.444 33.843L238.389 32.08ZM236.069 31.24L235.614 33.1877L235.645 33.1949L235.676 33.2012L236.069 31.24ZM229.189 32L230.126 33.7667L230.126 33.7667L229.189 32ZM225.869 34.72L224.314 33.4616L224.305 33.4729L224.296 33.4844L225.869 34.72ZM223.869 38.52L225.77 39.1415L225.773 39.1309L223.869 38.52ZM223.989 47.28L222.113 47.9746L222.119 47.9898L222.125 48.0049L223.989 47.28ZM226.229 51.12L224.692 52.4004L224.709 52.4202L224.726 52.4396L226.229 51.12ZM229.589 53.76L228.665 55.5338L228.687 55.5452L228.709 55.5561L229.589 53.76ZM236.269 54.44L236.709 56.3909L236.731 56.3858L236.754 56.3803L236.269 54.44ZM238.709 53.48L239.675 55.2312L239.685 55.2257L239.695 55.22L238.709 53.48ZM240.909 51.84L242.294 53.2828L242.308 53.2686L242.323 53.2542L240.909 51.84ZM242.589 49.44L243.507 47.6636L241.686 46.7213L240.79 48.5662L242.589 49.44ZM244.909 50.64L246.749 51.4223L247.475 49.7156L245.827 48.8636L244.909 50.64ZM242.989 53.48L244.379 54.9172L244.391 54.9058L244.403 54.8942L242.989 53.48ZM240.229 55.52L241.196 57.2705L241.196 57.2705L240.229 55.52ZM236.989 56.8L236.493 54.8624L236.482 54.8653L236.989 56.8ZM228.309 55.96L227.38 57.7311L227.38 57.7311L228.309 55.96ZM224.109 52.64L222.582 53.9319L222.588 53.9392L222.594 53.9465L224.109 52.64ZM221.349 47.96L219.469 48.6435L219.475 48.6608L219.482 48.678L221.349 47.96ZM222.389 42.6C222.389 41.1273 222.641 39.6565 223.157 38.1794L219.38 36.8606C218.723 38.7434 218.389 40.6593 218.389 42.6H222.389ZM223.151 38.1964C223.684 36.7122 224.443 35.4065 225.425 34.2641L222.392 31.6559C221.081 33.1802 220.08 34.9144 219.386 36.8436L223.151 38.1964ZM225.425 34.2641C226.385 33.1483 227.578 32.2299 229.032 31.5145L227.266 27.9255C225.359 28.8634 223.726 30.1051 222.392 31.6559L225.425 34.2641ZM229.054 31.5032C230.419 30.8102 232.008 30.44 233.869 30.44V26.44C231.462 26.44 229.239 26.9231 227.243 27.9368L229.054 31.5032ZM233.869 30.44C236.094 30.44 237.862 30.9404 239.268 31.8432L241.429 28.4768C239.262 27.0862 236.71 26.44 233.869 26.44V30.44ZM239.28 31.8504C240.788 32.8041 241.852 34.0107 242.534 35.4814L246.163 33.7985C245.138 31.5892 243.536 29.8093 241.418 28.4696L239.28 31.8504ZM243.297 32.9388L241.097 34.2988L243.2 37.7012L245.4 36.3412L243.297 32.9388ZM243.948 35.1262C243.404 34.0061 242.71 33.0198 241.854 32.1972L239.084 35.0828C239.56 35.5402 239.987 36.1272 240.35 36.8738L243.948 35.1262ZM241.883 32.2258C241.114 31.4566 240.264 30.8158 239.333 30.317L237.444 33.843C238.007 34.1442 238.544 34.5434 239.054 35.0542L241.883 32.2258ZM239.333 30.317C238.42 29.8278 237.461 29.4789 236.461 29.2788L235.676 33.2012C236.276 33.3211 236.864 33.5322 237.444 33.843L239.333 30.317ZM236.523 29.2923C235.583 29.073 234.644 28.96 233.709 28.96V32.96C234.32 32.96 234.954 33.0336 235.614 33.1877L236.523 29.2923ZM233.709 28.96C231.726 28.96 229.888 29.3647 228.251 30.2333L230.126 33.7667C231.102 33.2486 232.278 32.96 233.709 32.96V28.96ZM228.251 30.2333C226.713 31.0494 225.395 32.1268 224.314 33.4616L227.423 35.9784C228.156 35.0732 229.051 34.3373 230.126 33.7667L228.251 30.2333ZM224.296 33.4844C223.263 34.7991 222.487 36.2791 221.964 37.9091L225.773 39.1309C226.157 37.9342 226.714 36.8809 227.441 35.9556L224.296 33.4844ZM221.968 37.8985C221.45 39.4832 221.189 41.1061 221.189 42.76H225.189C225.189 41.5339 225.381 40.3302 225.77 39.1415L221.968 37.8985ZM221.189 42.76C221.189 44.5645 221.495 46.3068 222.113 47.9746L225.864 46.5854C225.415 45.3732 225.189 44.1022 225.189 42.76H221.189ZM222.125 48.0049C222.758 49.6344 223.612 51.1045 224.692 52.4004L227.765 49.8396C226.978 48.8955 226.339 47.8056 225.853 46.5551L222.125 48.0049ZM224.726 52.4396C225.848 53.7173 227.163 54.7519 228.665 55.5338L230.512 51.9862C229.454 51.4347 228.53 50.7094 227.731 49.8004L224.726 52.4396ZM228.709 55.5561C230.302 56.3363 232.018 56.72 233.829 56.72V52.72C232.6 52.72 231.489 52.4637 230.468 51.9639L228.709 55.5561ZM233.829 56.72C234.785 56.72 235.746 56.6083 236.709 56.3909L235.828 52.4891C235.137 52.6451 234.472 52.72 233.829 52.72V56.72ZM236.754 56.3803C237.776 56.1248 238.751 55.7411 239.675 55.2312L237.742 51.7288C237.12 52.0723 236.468 52.3285 235.784 52.4997L236.754 56.3803ZM239.695 55.22C240.64 54.6842 241.507 54.0375 242.294 53.2828L239.524 50.3972C238.976 50.9225 238.377 51.3691 237.723 51.74L239.695 55.22ZM242.323 53.2542C243.162 52.4151 243.847 51.4274 244.388 50.3138L240.79 48.5662C240.424 49.3193 239.989 49.9316 239.494 50.4258L242.323 53.2542ZM241.67 51.2164L243.99 52.4164L245.827 48.8636L243.507 47.6636L241.67 51.2164ZM243.068 49.8577C242.716 50.6862 242.221 51.4189 241.574 52.0658L244.403 54.8942C245.409 53.8878 246.195 52.7271 246.749 51.4223L243.068 49.8577ZM241.598 52.0428C240.899 52.7194 240.121 53.2943 239.261 53.7695L241.196 57.2705C242.363 56.6257 243.425 55.8406 244.379 54.9172L241.598 52.0428ZM239.261 53.7695C238.4 54.2455 237.479 54.6102 236.493 54.8624L237.484 58.7376C238.792 58.4031 240.031 57.9145 241.196 57.2705L239.261 53.7695ZM236.482 54.8653C235.518 55.1178 234.581 55.24 233.669 55.24V59.24C234.943 59.24 236.22 59.0689 237.495 58.7347L236.482 54.8653ZM233.669 55.24C232.026 55.24 230.561 54.8829 229.238 54.1889L227.38 57.7311C229.31 58.7438 231.418 59.24 233.669 59.24V55.24ZM229.238 54.1889C227.828 53.4496 226.628 52.4989 225.623 51.3335L222.594 53.9465C223.936 55.5011 225.535 56.7637 227.38 57.7311L229.238 54.1889ZM225.635 51.3481C224.61 50.1362 223.803 48.7711 223.215 47.242L219.482 48.678C220.227 50.6155 221.261 52.3704 222.582 53.9319L225.635 51.3481ZM223.228 47.2765C222.665 45.7283 222.389 44.1726 222.389 42.6H218.389C218.389 44.6541 218.752 46.6717 219.469 48.6435L223.228 47.2765ZM265.89 57H263.89V59H265.89V57ZM265.89 28.6V26.6H263.89V28.6H265.89ZM268.69 28.6H270.69V26.6H268.69V28.6ZM268.69 57V59H270.69V57H268.69ZM267.89 57V28.6H263.89V57H267.89ZM265.89 30.6H268.69V26.6H265.89V30.6ZM266.69 28.6V57H270.69V28.6H266.69ZM268.69 55H265.89V59H268.69V55ZM308.612 33.92L307.113 35.2432L308.911 37.2815L310.322 34.958L308.612 33.92ZM295.372 32.32L296.635 33.8711L296.646 33.8624L296.656 33.8535L295.372 32.32ZM294.092 38.28L292.321 39.208L292.348 39.2593L292.377 39.309L294.092 38.28ZM295.532 39.68L296.592 37.984L296.592 37.984L295.532 39.68ZM297.972 40.72L297.402 42.6371L297.409 42.6391L297.416 42.6411L297.972 40.72ZM301.532 41.6L301.111 43.5551L301.12 43.5571L301.532 41.6ZM305.612 42.68L304.98 44.5774L304.992 44.5815L305.612 42.68ZM308.732 44.2L307.565 45.824L307.582 45.8362L307.599 45.8481L308.732 44.2ZM310.692 46.36L312.459 45.4217L312.459 45.4217L310.692 46.36ZM310.612 52.96L312.381 53.8935L312.381 53.8935L310.612 52.96ZM308.492 55.36L309.646 56.9939L309.646 56.9939L308.492 55.36ZM305.252 56.8L305.708 58.7474L305.728 58.7428L305.747 58.7378L305.252 56.8ZM289.732 53.12L288.028 52.0735L287.136 53.5268L288.43 54.6376L289.732 53.12ZM291.132 50.84L292.582 49.4625L290.79 47.5756L289.428 49.7935L291.132 50.84ZM292.932 52.36L291.794 54.0044L291.808 54.0144L291.823 54.0241L292.932 52.36ZM295.292 53.64L294.491 55.4723L294.525 55.4872L294.559 55.5008L295.292 53.64ZM298.092 54.48L297.67 56.4348L297.695 56.4403L297.721 56.4451L298.092 54.48ZM306.492 53.56L307.568 55.2459L307.577 55.2401L306.492 53.56ZM307.852 47.64L306.111 48.6241L306.137 48.6696L306.165 48.7138L307.852 47.64ZM306.252 46.08L305.187 47.7725L305.21 47.7868L305.233 47.8006L306.252 46.08ZM299.852 43.96L299.4 45.9082L299.411 45.9106L299.852 43.96ZM295.932 42.88L295.3 44.7774L295.3 44.7774L295.932 42.88ZM293.092 41.48L291.919 43.0999L291.919 43.0999L293.092 41.48ZM291.332 39.48L289.52 40.3258L289.537 40.3627L289.556 40.3988L291.332 39.48ZM291.492 33.08L289.694 32.2041L289.69 32.2139L289.685 32.2238L291.492 33.08ZM293.612 30.52L294.797 32.1313L294.812 32.1201L294.827 32.1087L293.612 30.52ZM296.812 28.96L297.356 30.8846L297.376 30.8792L297.395 30.8733L296.812 28.96ZM305.932 29.28L305.19 31.137L305.21 31.145L305.23 31.1527L305.932 29.28ZM309.972 31.68L311.682 32.718L312.558 31.2745L311.282 30.1686L309.972 31.68ZM310.112 32.5968C309.077 31.424 307.744 30.5301 306.187 29.876L304.638 33.564C305.747 34.0299 306.547 34.6026 307.113 35.2432L310.112 32.5968ZM306.187 29.876C304.568 29.1962 302.778 28.88 300.852 28.88V32.88C302.34 32.88 303.59 33.1238 304.638 33.564L306.187 29.876ZM300.852 28.88C298.168 28.88 295.769 29.3796 294.088 30.7865L296.656 33.8535C297.269 33.3404 298.523 32.88 300.852 32.88V28.88ZM294.11 30.7689C292.446 32.1233 291.652 34.0003 291.652 36.16H295.652C295.652 35.0664 296.006 34.3834 296.635 33.8711L294.11 30.7689ZM291.652 36.16C291.652 37.2286 291.834 38.2792 292.321 39.208L295.864 37.352C295.764 37.1608 295.652 36.7981 295.652 36.16H291.652ZM292.377 39.309C292.891 40.1651 293.621 40.8438 294.472 41.376L296.592 37.984C296.164 37.7162 295.934 37.4615 295.807 37.251L292.377 39.309ZM294.472 41.376C295.309 41.8989 296.301 42.3097 297.402 42.6371L298.542 38.8029C297.67 38.5437 297.036 38.2611 296.592 37.984L294.472 41.376ZM297.416 42.6411C298.485 42.9506 299.719 43.2548 301.111 43.555L301.954 39.645C300.626 39.3585 299.486 39.0761 298.528 38.7989L297.416 42.6411ZM301.12 43.5571C302.582 43.8648 303.866 44.2061 304.98 44.5774L306.245 40.7826C304.958 40.3538 303.523 39.9752 301.944 39.6429L301.12 43.5571ZM304.992 44.5815C306.066 44.9316 306.912 45.3545 307.565 45.824L309.9 42.576C308.846 41.8188 307.612 41.2284 306.232 40.7785L304.992 44.5815ZM307.599 45.8481C308.207 46.2659 308.634 46.7492 308.926 47.2983L312.459 45.4217C311.844 44.2641 310.964 43.3074 309.865 42.5519L307.599 45.8481ZM308.926 47.2983C309.184 47.7842 309.372 48.5049 309.372 49.56H313.372C313.372 48.0551 313.107 46.6425 312.459 45.4217L308.926 47.2983ZM309.372 49.56C309.372 50.6071 309.17 51.4073 308.844 52.0265L312.381 53.8935C313.068 52.5927 313.372 51.1262 313.372 49.56H309.372ZM308.844 52.0265C308.487 52.7014 307.994 53.2636 307.339 53.7261L309.646 56.9939C310.804 56.1764 311.724 55.1386 312.381 53.8935L308.844 52.0265ZM307.339 53.7261C306.662 54.2043 305.813 54.5927 304.758 54.8622L305.747 58.7378C307.198 58.3673 308.51 57.7957 309.646 56.9939L307.339 53.7261ZM304.797 54.8526C303.714 55.1059 302.496 55.24 301.132 55.24V59.24C302.755 59.24 304.284 59.0807 305.708 58.7474L304.797 54.8526ZM301.132 55.24C297.188 55.24 293.856 54.0234 291.035 51.6024L288.43 54.6376C292.009 57.7099 296.277 59.24 301.132 59.24V55.24ZM291.437 54.1665L292.837 51.8865L289.428 49.7935L288.028 52.0735L291.437 54.1665ZM289.682 52.2175C290.296 52.8634 291.004 53.4574 291.794 54.0044L294.071 50.7156C293.474 50.3026 292.982 49.8832 292.582 49.4625L289.682 52.2175ZM291.823 54.0241C292.647 54.5738 293.538 55.0556 294.491 55.4723L296.094 51.8077C295.34 51.4778 294.657 51.1062 294.042 50.6959L291.823 54.0241ZM294.559 55.5008C295.547 55.8897 296.584 56.2001 297.67 56.4348L298.515 52.5252C297.627 52.3332 296.798 52.0836 296.025 51.7792L294.559 55.5008ZM297.721 56.4451C298.84 56.6569 300.005 56.76 301.212 56.76V52.76C300.233 52.76 299.318 52.6764 298.464 52.5149L297.721 56.4451ZM301.212 56.76C303.675 56.76 305.867 56.3321 307.568 55.2458L305.416 51.8742C304.611 52.3879 303.283 52.76 301.212 52.76V56.76ZM307.577 55.2401C309.483 54.0092 310.412 52.1036 310.412 49.84H306.412C306.412 50.8831 306.061 51.4575 305.407 51.8799L307.577 55.2401ZM310.412 49.84C310.412 48.6799 310.165 47.5491 309.54 46.5662L306.165 48.7138C306.286 48.9043 306.412 49.2401 306.412 49.84H310.412ZM309.593 46.6559C309.045 45.6855 308.236 44.9307 307.272 44.3594L305.233 47.8006C305.709 48.0827 305.966 48.3678 306.111 48.6241L309.593 46.6559ZM307.318 44.3875C306.406 43.8136 305.337 43.3612 304.147 43.0043L302.998 46.8357C303.941 47.1188 304.658 47.4397 305.187 47.7725L307.318 44.3875ZM304.147 43.0043C303.026 42.6679 301.74 42.3367 300.294 42.0094L299.411 45.9106C300.792 46.2233 301.986 46.5321 302.998 46.8357L304.147 43.0043ZM300.305 42.0118C298.855 41.6753 297.611 41.3314 296.565 40.9826L295.3 44.7774C296.494 45.1752 297.863 45.5513 299.4 45.9082L300.305 42.0118ZM296.565 40.9826C295.594 40.6591 294.84 40.2763 294.265 39.8601L291.919 43.0999C292.891 43.8037 294.03 44.3542 295.3 44.7774L296.565 40.9826ZM294.265 39.8601C293.72 39.4654 293.352 39.0308 293.109 38.5612L289.556 40.3988C290.113 41.4759 290.918 42.3746 291.919 43.0999L294.265 39.8601ZM293.145 38.6342C292.926 38.1658 292.772 37.4983 292.772 36.56H288.772C288.772 37.915 288.992 39.1942 289.52 40.3258L293.145 38.6342ZM292.772 36.56C292.772 35.5007 292.966 34.6411 293.3 33.9362L289.685 32.2238C289.059 33.5456 288.772 35.0059 288.772 36.56H292.772ZM293.29 33.9559C293.659 33.1986 294.159 32.6006 294.797 32.1313L292.428 28.9087C291.253 29.7727 290.339 30.8814 289.694 32.2041L293.29 33.9559ZM294.827 32.1087C295.511 31.5856 296.344 31.1706 297.356 30.8846L296.268 27.0354C294.827 27.4427 293.527 28.0678 292.397 28.9313L294.827 32.1087ZM297.395 30.8733C298.404 30.566 299.565 30.4 300.892 30.4V26.4C299.233 26.4 297.674 26.6073 296.23 27.0467L297.395 30.8733ZM300.892 30.4C302.581 30.4 304.001 30.6615 305.19 31.137L306.675 27.423C304.93 26.7251 302.991 26.4 300.892 26.4V30.4ZM305.23 31.1527C306.502 31.6296 307.643 32.3076 308.662 33.1914L311.282 30.1686C309.902 28.9724 308.349 28.0504 306.635 27.4073L305.23 31.1527ZM308.263 30.642L306.903 32.882L310.322 34.958L311.682 32.718L308.263 30.642ZM340.84 28.6V26.6H339.509L338.995 27.8282L340.84 28.6ZM343.2 28.6L345.047 27.8326L344.535 26.6H343.2V28.6ZM355 57V59H357.997L356.847 56.2326L355 57ZM352.04 57L350.193 57.7657L350.704 59H352.04V57ZM348.36 48.12L350.208 47.3543L349.697 46.12H348.36V48.12ZM335.6 48.12V46.12H334.259L333.75 47.3614L335.6 48.12ZM331.96 57V59H333.302L333.811 57.7586L331.96 57ZM328.96 57L327.115 56.2282L325.956 59H328.96V57ZM347.72 45.92V47.92H350.695L349.573 45.1654L347.72 45.92ZM342 31.88L343.853 31.1254L342.013 26.6107L340.152 31.1164L342 31.88ZM336.2 45.92L334.352 45.1564L333.21 47.92H336.2V45.92ZM342.88 23.76L342.178 25.6327L342.196 25.6395L342.215 25.646L342.88 23.76ZM341.64 23.24L340.648 24.9765L340.72 25.0174L340.795 25.0524L341.64 23.24ZM340.52 22.68L339.572 24.4409L339.651 24.4832L339.733 24.5183L340.52 22.68ZM338.28 22.68L337.134 21.0415L337.092 21.0704L337.053 21.1013L338.28 22.68ZM337.68 23.32L336.016 22.2106L336 22.2351L335.984 22.26L337.68 23.32ZM337.4 23.96L335.46 23.4749L335.435 23.575L335.421 23.6772L337.4 23.96ZM337.36 24.32V26.32H339.36V24.32H337.36ZM335.68 24.32H333.68V26.32H335.68V24.32ZM335.8 23.52L333.86 23.0349L333.849 23.0811L333.839 23.1278L335.8 23.52ZM336.36 22.24L338.056 23.3L338.056 23.3L336.36 22.24ZM337.48 21.12L338.59 22.7841L338.621 22.7633L338.651 22.7414L337.48 21.12ZM340.76 20.88L339.915 22.6924L339.985 22.7253L340.058 22.7527L340.76 20.88ZM341.96 21.44L342.953 19.7035L342.953 19.7035L341.96 21.44ZM343.08 22.04L342.186 23.8289L342.26 23.8661L342.338 23.897L343.08 22.04ZM345.64 22L344.633 20.2724L344.599 20.2919L344.567 20.3127L345.64 22ZM346.36 21.36L348.025 22.4694L348.025 22.4694L346.36 21.36ZM346.64 20.72L344.7 20.2349L344.675 20.335L344.661 20.4372L346.64 20.72ZM346.72 20.32V18.32H344.72V20.32H346.72ZM348.4 20.32H350.4V18.32H348.4V20.32ZM348.24 21.12L350.173 21.6353L350.173 21.6353L348.24 21.12ZM347.64 22.36L345.992 21.2269L345.968 21.2629L345.944 21.3L347.64 22.36ZM346.44 23.52L347.508 25.211L347.519 25.204L347.53 25.1969L346.44 23.52ZM340.84 30.6H343.2V26.6H340.84V30.6ZM341.354 29.3674L353.154 57.7674L356.847 56.2326L345.047 27.8326L341.354 29.3674ZM355 55H352.04V59H355V55ZM353.888 56.2343L350.208 47.3543L346.513 48.8857L350.193 57.7657L353.888 56.2343ZM348.36 46.12H335.6V50.12H348.36V46.12ZM333.75 47.3614L330.11 56.2414L333.811 57.7586L337.451 48.8786L333.75 47.3614ZM331.96 55H328.96V59H331.96V55ZM330.806 57.7718L342.686 29.3718L338.995 27.8282L327.115 56.2282L330.806 57.7718ZM349.573 45.1654L343.853 31.1254L340.148 32.6346L345.868 46.6746L349.573 45.1654ZM340.152 31.1164L334.352 45.1564L338.049 46.6836L343.849 32.6436L340.152 31.1164ZM336.2 47.92H347.72V43.92H336.2V47.92ZM344.48 22C344.034 22 343.736 21.941 343.546 21.874L342.215 25.646C342.932 25.899 343.7 26 344.48 26V22ZM343.583 21.8873C343.203 21.745 342.838 21.5917 342.486 21.4276L340.795 25.0524C341.243 25.2617 341.705 25.455 342.178 25.6327L343.583 21.8873ZM342.633 21.5035C342.197 21.2546 341.756 21.0334 341.308 20.8417L339.733 24.5183C340.032 24.6466 340.337 24.7988 340.648 24.9765L342.633 21.5035ZM341.469 20.9191C340.807 20.5625 340.09 20.4 339.36 20.4V24.4C339.485 24.4 339.541 24.4241 339.572 24.4409L341.469 20.9191ZM339.36 20.4C338.653 20.4 337.845 20.5435 337.134 21.0415L339.427 24.3185C339.339 24.38 339.271 24.4012 339.252 24.406C339.237 24.4099 339.268 24.4 339.36 24.4V20.4ZM337.053 21.1013C336.652 21.4128 336.302 21.7823 336.016 22.2106L339.345 24.4294C339.379 24.3777 339.429 24.3206 339.508 24.2587L337.053 21.1013ZM335.984 22.26C335.756 22.6259 335.571 23.0315 335.46 23.4749L339.341 24.4451C339.337 24.4619 339.338 24.4408 339.376 24.38L335.984 22.26ZM335.421 23.6772C335.4 23.8231 335.36 24.0956 335.36 24.32H339.36C339.36 24.3531 339.359 24.3783 339.359 24.392C339.358 24.4066 339.357 24.4167 339.357 24.4209C339.356 24.4285 339.357 24.4263 339.358 24.4109C339.362 24.3796 339.369 24.3256 339.38 24.2428L335.421 23.6772ZM337.36 22.32H335.68V26.32H337.36V22.32ZM337.68 24.32C337.68 24.3773 337.677 24.4074 337.678 24.394C337.679 24.3855 337.682 24.3611 337.688 24.3167C337.702 24.2271 337.725 24.0948 337.762 23.9122L333.839 23.1278C333.767 23.4917 333.68 23.9546 333.68 24.32H337.68ZM337.741 24.0051C337.79 23.8085 337.885 23.5741 338.056 23.3L334.664 21.18C334.302 21.7592 334.024 22.3781 333.86 23.0349L337.741 24.0051ZM338.056 23.3C338.152 23.1469 338.312 22.9696 338.59 22.7841L336.371 19.4559C335.689 19.9104 335.102 20.4798 334.664 21.18L338.056 23.3ZM338.651 22.7414C338.711 22.6985 338.884 22.6 339.32 22.6V18.6C338.264 18.6 337.21 18.8481 336.309 19.4986L338.651 22.7414ZM339.32 22.6C339.664 22.6 339.841 22.6578 339.915 22.6924L341.606 19.0676C340.88 18.7288 340.097 18.6 339.32 18.6V22.6ZM340.058 22.7527C340.391 22.8773 340.693 23.0193 340.968 23.1765L342.953 19.7035C342.481 19.4341 341.984 19.2027 341.463 19.0073L340.058 22.7527ZM340.968 23.1765C341.373 23.4076 341.779 23.6251 342.186 23.8289L343.975 20.2511C343.636 20.0815 343.295 19.899 342.953 19.7035L340.968 23.1765ZM342.338 23.897C343.012 24.1665 343.723 24.28 344.44 24.28V20.28C344.144 20.28 343.949 20.2335 343.823 20.183L342.338 23.897ZM344.44 24.28C345.163 24.28 345.985 24.1514 346.714 23.6873L344.567 20.3127C344.641 20.2652 344.685 20.2578 344.666 20.2623C344.645 20.2673 344.575 20.28 344.44 20.28V24.28ZM346.648 23.7276C347.159 23.4297 347.655 23.0242 348.025 22.4694L344.696 20.2506C344.721 20.2133 344.738 20.1995 344.732 20.2052C344.724 20.2116 344.695 20.2359 344.633 20.2724L346.648 23.7276ZM348.025 22.4694C348.271 22.1001 348.535 21.6001 348.62 21.0028L344.661 20.4372C344.678 20.3156 344.709 20.2401 344.718 20.2184C344.728 20.1959 344.726 20.206 344.696 20.2506L348.025 22.4694ZM348.581 21.2051C348.611 21.0839 348.639 20.963 348.662 20.8522C348.673 20.7947 348.72 20.5688 348.72 20.32H344.72C344.72 20.2825 344.722 20.2506 344.723 20.2258C344.724 20.2008 344.726 20.1795 344.727 20.1627C344.73 20.13 344.734 20.1055 344.736 20.0922C344.738 20.0781 344.739 20.069 344.74 20.0662C344.74 20.063 344.74 20.0634 344.739 20.0678C344.737 20.0771 344.734 20.0956 344.727 20.1253C344.72 20.1544 344.711 20.1907 344.7 20.2349L348.581 21.2051ZM346.72 22.32H348.4V18.32H346.72V22.32ZM346.4 20.32C346.4 20.2721 346.403 20.2363 346.404 20.2168C346.406 20.1963 346.408 20.1837 346.408 20.1807C346.409 20.1761 346.407 20.19 346.399 20.2278C346.384 20.3044 346.355 20.4268 346.308 20.6047L350.173 21.6353C350.266 21.2861 350.4 20.7614 350.4 20.32H346.4ZM346.308 20.6047C346.273 20.7366 346.187 20.9432 345.992 21.2269L349.289 23.4931C349.68 22.9235 349.995 22.3034 350.173 21.6353L346.308 20.6047ZM345.944 21.3C345.868 21.423 345.702 21.6147 345.35 21.8431L347.53 25.1969C348.246 24.7319 348.88 24.1504 349.336 23.42L345.944 21.3ZM345.372 21.829C345.276 21.8901 345.026 22 344.48 22V26C345.535 26 346.592 25.7899 347.508 25.211L345.372 21.829ZM380.217 56L379.311 57.783L379.328 57.7918L379.346 57.8003L380.217 56ZM376.017 52.76L374.503 54.0665L374.509 54.0739L374.516 54.0813L376.017 52.76ZM373.297 48.12L375.173 47.4273L375.173 47.4273L373.297 48.12ZM373.337 37.36L371.48 36.6172L371.475 36.6296L371.47 36.642L373.337 37.36ZM376.177 32.76L377.664 34.0979L377.664 34.0979L376.177 32.76ZM380.417 29.6L381.276 31.4063L381.288 31.4006L381.3 31.3947L380.417 29.6ZM391.097 29.68L390.168 31.4511L390.185 31.4601L390.203 31.4689L391.097 29.68ZM395.297 32.96L393.768 34.2492L393.775 34.2579L393.783 34.2665L395.297 32.96ZM398.017 37.6L396.141 38.2928L396.144 38.3022L398.017 37.6ZM397.937 48.28L396.08 47.5372L396.075 47.5496L396.07 47.562L397.937 48.28ZM395.137 52.88L393.65 51.5421L393.649 51.5437L395.137 52.88ZM390.937 56.04L391.796 57.8463L391.808 57.8406L391.82 57.8347L390.937 56.04ZM375.897 47.28L374.01 47.9438L374.014 47.9549L375.897 47.28ZM378.057 51.08L376.521 52.3604L376.528 52.3695L376.536 52.3785L378.057 51.08ZM381.377 53.72L380.453 55.4938L380.468 55.5015L380.483 55.5089L381.377 53.72ZM390.017 53.64L389.08 51.8733L389.08 51.8733L390.017 53.64ZM393.337 50.92L391.783 49.6616L391.783 49.6616L393.337 50.92ZM395.417 47.12L393.534 46.4451L393.529 46.4609L393.523 46.4768L395.417 47.12ZM395.377 38.36L393.49 39.0238L393.498 39.045L393.506 39.0661L395.377 38.36ZM393.217 34.56L391.696 35.8585L391.696 35.8585L393.217 34.56ZM389.897 31.96L388.973 33.7338L388.988 33.7415L389.003 33.7489L389.897 31.96ZM381.297 32L382.206 33.7815L382.22 33.7742L382.234 33.7667L381.297 32ZM377.977 34.68L379.532 35.9384L379.532 35.9384L377.977 34.68ZM375.857 38.48L373.974 37.8051L373.969 37.8209L373.963 37.8368L375.857 38.48ZM385.657 55.2C383.963 55.2 382.45 54.8586 381.088 54.1997L379.346 57.8003C381.291 58.7414 383.405 59.2 385.657 59.2V55.2ZM381.123 54.217C379.716 53.502 378.52 52.5766 377.518 51.4387L374.516 54.0813C375.861 55.6101 377.465 56.8447 379.311 57.783L381.123 54.217ZM377.531 51.4535C376.519 50.28 375.733 48.9426 375.173 47.4273L371.421 48.8127C372.141 50.7641 373.169 52.52 374.503 54.0665L377.531 51.4535ZM375.173 47.4273C374.614 45.9114 374.337 44.3724 374.337 42.8H370.337C370.337 44.8543 370.701 46.8619 371.421 48.8127L375.173 47.4273ZM374.337 42.8C374.337 41.1473 374.627 39.5777 375.204 38.078L371.47 36.642C370.714 38.609 370.337 40.6661 370.337 42.8H374.337ZM375.194 38.1028C375.803 36.5791 376.628 35.2492 377.664 34.0979L374.69 31.4221C373.327 32.9375 372.257 34.6743 371.48 36.6172L375.194 38.1028ZM377.664 34.0979C378.687 32.9614 379.886 32.0669 381.276 31.4063L379.558 27.7937C377.695 28.6798 376.068 29.8919 374.69 31.4221L377.664 34.0979ZM381.3 31.3947C382.639 30.7358 384.096 30.4 385.697 30.4V26.4C383.512 26.4 381.448 26.8642 379.534 27.8053L381.3 31.3947ZM385.697 30.4C387.371 30.4 388.849 30.7592 390.168 31.4511L392.026 27.9089C390.092 26.8942 387.969 26.4 385.697 26.4V30.4ZM390.203 31.4689C391.622 32.1787 392.804 33.1053 393.768 34.2492L396.826 31.6708C395.497 30.0947 393.878 28.8346 391.991 27.8911L390.203 31.4689ZM393.783 34.2665C394.795 35.44 395.581 36.7774 396.141 38.2927L399.893 36.9073C399.173 34.9559 398.146 33.2 396.811 31.6535L393.783 34.2665ZM396.144 38.3022C396.702 39.789 396.977 41.298 396.977 42.84H400.977C400.977 40.8086 400.612 38.8244 399.89 36.8978L396.144 38.3022ZM396.977 42.84C396.977 44.4826 396.678 46.0435 396.08 47.5372L399.794 49.0228C400.583 47.0498 400.977 44.9841 400.977 42.84H396.977ZM396.07 47.562C395.488 49.0754 394.681 50.3968 393.65 51.5421L396.624 54.2179C397.993 52.6965 399.052 50.9513 399.804 48.998L396.07 47.562ZM393.649 51.5437C392.652 52.6542 391.459 53.5543 390.054 54.2453L391.82 57.8347C393.668 56.9257 395.276 55.7191 396.625 54.2163L393.649 51.5437ZM390.078 54.2337C388.734 54.873 387.269 55.2 385.657 55.2V59.2C387.832 59.2 389.887 58.7537 391.796 57.8463L390.078 54.2337ZM373.137 42.8C373.137 44.5697 373.428 46.2877 374.01 47.9438L377.784 46.6162C377.353 45.3923 377.137 44.1236 377.137 42.8H373.137ZM374.014 47.9549C374.598 49.5821 375.433 51.055 376.521 52.3604L379.593 49.7996C378.815 48.865 378.21 47.8046 377.78 46.6051L374.014 47.9549ZM376.536 52.3785C377.637 53.668 378.946 54.709 380.453 55.4938L382.301 51.9462C381.248 51.3976 380.344 50.6787 379.578 49.7815L376.536 52.3785ZM380.483 55.5089C382.067 56.3011 383.805 56.68 385.657 56.68V52.68C384.363 52.68 383.247 52.4189 382.271 51.9311L380.483 55.5089ZM385.657 56.68C387.557 56.68 389.336 56.2656 390.954 55.4067L389.08 51.8733C388.085 52.4011 386.958 52.68 385.657 52.68V56.68ZM390.954 55.4067C392.492 54.5906 393.811 53.5132 394.892 52.1784L391.783 49.6616C391.05 50.5668 390.155 51.3027 389.08 51.8733L390.954 55.4067ZM394.892 52.1784C395.952 50.8684 396.758 49.3919 397.311 47.7632L393.523 46.4768C393.116 47.6748 392.535 48.7316 391.783 49.6616L394.892 52.1784ZM397.3 47.7949C397.882 46.1703 398.177 44.5022 398.177 42.8H394.177C394.177 44.0311 393.965 45.2431 393.534 46.4451L397.3 47.7949ZM398.177 42.8C398.177 41.018 397.869 39.2983 397.248 37.6539L393.506 39.0661C393.952 40.2483 394.177 41.4887 394.177 42.8H398.177ZM397.264 37.6962C396.68 36.0384 395.841 34.5534 394.738 33.2615L391.696 35.8585C392.46 36.7532 393.06 37.8016 393.49 39.0238L397.264 37.6962ZM394.738 33.2615C393.632 31.9653 392.312 30.9315 390.791 30.1711L389.003 33.7489C390.042 34.2685 390.936 34.968 391.696 35.8585L394.738 33.2615ZM390.821 30.1862C389.235 29.3604 387.502 28.96 385.657 28.96V32.96C386.906 32.96 387.999 33.2263 388.973 33.7338L390.821 30.1862ZM385.657 28.96C383.758 28.96 381.978 29.3744 380.36 30.2333L382.234 33.7667C383.229 33.2389 384.357 32.96 385.657 32.96V28.96ZM380.388 30.2185C378.837 31.01 377.509 32.08 376.423 33.4216L379.532 35.9384C380.259 35.04 381.144 34.3233 382.206 33.7815L380.388 30.2185ZM376.423 33.4216C375.369 34.7235 374.554 36.1892 373.974 37.8051L377.74 39.1549C378.174 37.9442 378.772 36.8765 379.532 35.9384L376.423 33.4216ZM373.963 37.8368C373.414 39.4536 373.137 41.1107 373.137 42.8H377.137C377.137 41.556 377.34 40.3331 377.751 39.1232L373.963 37.8368Z" fill="#2D42C8"/>
<path d="M146.195 80.23C145.995 80.0033 145.729 79.82 145.395 79.68C145.062 79.54 144.682 79.47 144.255 79.47C143.629 79.47 143.172 79.59 142.885 79.83C142.599 80.0633 142.455 80.3833 142.455 80.79C142.455 81.0033 142.492 81.18 142.565 81.32C142.645 81.4533 142.765 81.57 142.925 81.67C143.085 81.77 143.289 81.8567 143.535 81.93C143.789 82.0033 144.085 82.0767 144.425 82.15C144.805 82.23 145.145 82.32 145.445 82.42C145.752 82.52 146.012 82.6467 146.225 82.8C146.439 82.9467 146.602 83.1267 146.715 83.34C146.829 83.5533 146.885 83.82 146.885 84.14C146.885 84.4667 146.822 84.75 146.695 84.99C146.569 85.23 146.392 85.43 146.165 85.59C145.939 85.75 145.669 85.87 145.355 85.95C145.042 86.0233 144.699 86.06 144.325 86.06C143.225 86.06 142.275 85.7167 141.475 85.03L141.825 84.46C141.952 84.5933 142.102 84.72 142.275 84.84C142.455 84.96 142.652 85.0667 142.865 85.16C143.085 85.2467 143.319 85.3167 143.565 85.37C143.812 85.4167 144.072 85.44 144.345 85.44C144.912 85.44 145.352 85.34 145.665 85.14C145.985 84.9333 146.145 84.6233 146.145 84.21C146.145 83.99 146.099 83.8067 146.005 83.66C145.919 83.5067 145.785 83.3767 145.605 83.27C145.425 83.1567 145.202 83.06 144.935 82.98C144.669 82.9 144.359 82.82 144.005 82.74C143.632 82.6533 143.305 82.5633 143.025 82.47C142.745 82.3767 142.509 82.26 142.315 82.12C142.122 81.98 141.975 81.8133 141.875 81.62C141.782 81.42 141.735 81.1767 141.735 80.89C141.735 80.5633 141.795 80.2733 141.915 80.02C142.042 79.76 142.219 79.5467 142.445 79.38C142.672 79.2067 142.939 79.0767 143.245 78.99C143.552 78.8967 143.892 78.85 144.265 78.85C144.739 78.85 145.159 78.9233 145.525 79.07C145.899 79.21 146.235 79.41 146.535 79.67L146.195 80.23ZM152.979 86.05C152.486 86.05 152.033 85.95 151.619 85.75C151.213 85.5433 150.863 85.2733 150.569 84.94C150.276 84.6 150.049 84.2133 149.889 83.78C149.729 83.3467 149.649 82.9033 149.649 82.45C149.649 81.9767 149.733 81.5233 149.899 81.09C150.073 80.6567 150.309 80.2733 150.609 79.94C150.909 79.6067 151.263 79.3433 151.669 79.15C152.076 78.95 152.516 78.85 152.989 78.85C153.483 78.85 153.933 78.9567 154.339 79.17C154.753 79.3767 155.103 79.65 155.389 79.99C155.683 80.33 155.909 80.7167 156.069 81.15C156.229 81.5767 156.309 82.0133 156.309 82.46C156.309 82.9333 156.223 83.3867 156.049 83.82C155.883 84.2533 155.649 84.6367 155.349 84.97C155.056 85.2967 154.706 85.56 154.299 85.76C153.893 85.9533 153.453 86.05 152.979 86.05ZM150.349 82.45C150.349 82.8367 150.413 83.21 150.539 83.57C150.666 83.9233 150.846 84.24 151.079 84.52C151.313 84.7933 151.589 85.0133 151.909 85.18C152.229 85.34 152.586 85.42 152.979 85.42C153.379 85.42 153.743 85.3333 154.069 85.16C154.396 84.9867 154.673 84.76 154.899 84.48C155.126 84.2 155.299 83.8833 155.419 83.53C155.546 83.1767 155.609 82.8167 155.609 82.45C155.609 82.0633 155.543 81.6933 155.409 81.34C155.283 80.98 155.103 80.6633 154.869 80.39C154.636 80.1167 154.359 79.9 154.039 79.74C153.719 79.5733 153.366 79.49 152.979 79.49C152.579 79.49 152.216 79.5767 151.889 79.75C151.563 79.9167 151.286 80.14 151.059 80.42C150.833 80.7 150.656 81.0167 150.529 81.37C150.409 81.7233 150.349 82.0833 150.349 82.45ZM159.629 86V78.9H164.289V79.52H160.329V82.13H163.669V82.71H160.329V86H159.629ZM172.558 79.52H170.028V86H169.328V79.52H166.798V78.9H172.558V79.52ZM178.291 78.95H178.951L179.951 81.47L180.961 78.95H181.631L180.391 81.98L181.751 85.19L184.321 78.9H185.081L182.071 86H181.451L179.961 82.49L178.461 86H177.851L174.851 78.9H175.601L178.181 85.19L179.531 81.98L178.291 78.95ZM189.675 78.9H190.265L193.215 86H192.475L191.555 83.78H188.365L187.455 86H186.705L189.675 78.9ZM191.395 83.23L189.965 79.72L188.515 83.23H191.395ZM196.233 86V78.9H199.233C199.539 78.9 199.819 78.9667 200.073 79.1C200.333 79.2267 200.556 79.3967 200.743 79.61C200.929 79.8167 201.073 80.0533 201.173 80.32C201.279 80.5867 201.333 80.8567 201.333 81.13C201.333 81.39 201.293 81.64 201.213 81.88C201.139 82.1133 201.033 82.3267 200.893 82.52C200.759 82.7067 200.596 82.8667 200.403 83C200.209 83.1267 199.993 83.2133 199.753 83.26L201.493 86H200.703L199.033 83.38H196.933V86H196.233ZM196.933 82.76H199.253C199.459 82.76 199.646 82.7167 199.813 82.63C199.986 82.5367 200.133 82.4133 200.253 82.26C200.373 82.1067 200.466 81.9333 200.533 81.74C200.599 81.5467 200.633 81.3433 200.633 81.13C200.633 80.9167 200.593 80.7133 200.513 80.52C200.439 80.32 200.336 80.1467 200.203 80C200.076 79.8533 199.923 79.7367 199.743 79.65C199.569 79.5633 199.386 79.52 199.193 79.52H196.933V82.76ZM209.536 85.38V86H204.766V78.9H209.446V79.52H205.466V82.08H208.936V82.67H205.466V85.38H209.536ZM217.409 86V78.9H219.819C220.385 78.9 220.879 78.9933 221.299 79.18C221.725 79.3667 222.079 79.62 222.359 79.94C222.645 80.26 222.859 80.6367 222.999 81.07C223.145 81.4967 223.219 81.9533 223.219 82.44C223.219 82.98 223.139 83.47 222.979 83.91C222.819 84.3433 222.589 84.7167 222.289 85.03C221.995 85.3367 221.639 85.5767 221.219 85.75C220.805 85.9167 220.339 86 219.819 86H217.409ZM222.519 82.44C222.519 82.0133 222.459 81.6233 222.339 81.27C222.219 80.91 222.042 80.6 221.809 80.34C221.582 80.08 221.302 79.88 220.969 79.74C220.635 79.5933 220.252 79.52 219.819 79.52H218.109V85.38H219.819C220.259 85.38 220.645 85.3067 220.979 85.16C221.319 85.0067 221.602 84.8 221.829 84.54C222.055 84.2733 222.225 83.9633 222.339 83.61C222.459 83.25 222.519 82.86 222.519 82.44ZM231.327 85.38V86H226.557V78.9H231.237V79.52H227.257V82.08H230.727V82.67H227.257V85.38H231.327ZM244.33 84.96C243.67 85.6867 242.91 86.05 242.05 86.05C241.57 86.05 241.126 85.9467 240.72 85.74C240.32 85.5333 239.97 85.26 239.67 84.92C239.376 84.58 239.146 84.1967 238.98 83.77C238.813 83.3367 238.73 82.8933 238.73 82.44C238.73 81.9667 238.81 81.5133 238.97 81.08C239.136 80.6467 239.366 80.2667 239.66 79.94C239.953 79.6067 240.3 79.3433 240.7 79.15C241.1 78.95 241.536 78.85 242.01 78.85C242.356 78.85 242.673 78.89 242.96 78.97C243.246 79.0433 243.5 79.15 243.72 79.29C243.946 79.4233 244.14 79.5867 244.3 79.78C244.466 79.9667 244.606 80.1733 244.72 80.4L244.18 80.76C243.946 80.32 243.643 79.9967 243.27 79.79C242.896 79.5833 242.473 79.48 242 79.48C241.606 79.48 241.25 79.5633 240.93 79.73C240.616 79.8967 240.346 80.12 240.12 80.4C239.9 80.6733 239.73 80.99 239.61 81.35C239.49 81.7033 239.43 82.07 239.43 82.45C239.43 82.85 239.496 83.23 239.63 83.59C239.77 83.95 239.96 84.2667 240.2 84.54C240.44 84.8067 240.72 85.02 241.04 85.18C241.366 85.34 241.72 85.42 242.1 85.42C242.506 85.42 242.893 85.3267 243.26 85.14C243.633 84.9467 243.99 84.6433 244.33 84.23V83.05H242.75V82.51H244.92V86H244.33V84.96ZM253.128 85.38V86H248.358V78.9H253.038V79.52H249.058V82.08H252.528V82.67H249.058V85.38H253.128ZM260.455 80.23C260.255 80.0033 259.988 79.82 259.655 79.68C259.322 79.54 258.942 79.47 258.515 79.47C257.888 79.47 257.432 79.59 257.145 79.83C256.858 80.0633 256.715 80.3833 256.715 80.79C256.715 81.0033 256.752 81.18 256.825 81.32C256.905 81.4533 257.025 81.57 257.185 81.67C257.345 81.77 257.548 81.8567 257.795 81.93C258.048 82.0033 258.345 82.0767 258.685 82.15C259.065 82.23 259.405 82.32 259.705 82.42C260.012 82.52 260.272 82.6467 260.485 82.8C260.698 82.9467 260.862 83.1267 260.975 83.34C261.088 83.5533 261.145 83.82 261.145 84.14C261.145 84.4667 261.082 84.75 260.955 84.99C260.828 85.23 260.652 85.43 260.425 85.59C260.198 85.75 259.928 85.87 259.615 85.95C259.302 86.0233 258.958 86.06 258.585 86.06C257.485 86.06 256.535 85.7167 255.735 85.03L256.085 84.46C256.212 84.5933 256.362 84.72 256.535 84.84C256.715 84.96 256.912 85.0667 257.125 85.16C257.345 85.2467 257.578 85.3167 257.825 85.37C258.072 85.4167 258.332 85.44 258.605 85.44C259.172 85.44 259.612 85.34 259.925 85.14C260.245 84.9333 260.405 84.6233 260.405 84.21C260.405 83.99 260.358 83.8067 260.265 83.66C260.178 83.5067 260.045 83.3767 259.865 83.27C259.685 83.1567 259.462 83.06 259.195 82.98C258.928 82.9 258.618 82.82 258.265 82.74C257.892 82.6533 257.565 82.5633 257.285 82.47C257.005 82.3767 256.768 82.26 256.575 82.12C256.382 81.98 256.235 81.8133 256.135 81.62C256.042 81.42 255.995 81.1767 255.995 80.89C255.995 80.5633 256.055 80.2733 256.175 80.02C256.302 79.76 256.478 79.5467 256.705 79.38C256.932 79.2067 257.198 79.0767 257.505 78.99C257.812 78.8967 258.152 78.85 258.525 78.85C258.998 78.85 259.418 78.9233 259.785 79.07C260.158 79.21 260.495 79.41 260.795 79.67L260.455 80.23ZM269.37 79.52H266.84V86H266.14V79.52H263.61V78.9H269.37V79.52ZM273.931 78.9H274.521L277.471 86H276.731L275.811 83.78H272.621L271.711 86H270.961L273.931 78.9ZM275.651 83.23L274.221 79.72L272.771 83.23H275.651ZM274.841 77.75C274.687 77.75 274.554 77.73 274.441 77.69C274.334 77.65 274.231 77.6067 274.131 77.56C274.037 77.5067 273.944 77.46 273.851 77.42C273.764 77.3733 273.667 77.35 273.561 77.35C273.447 77.35 273.357 77.3733 273.291 77.42C273.231 77.4667 273.181 77.52 273.141 77.58C273.107 77.6333 273.084 77.6867 273.071 77.74C273.064 77.7867 273.061 77.8167 273.061 77.83H272.641C272.641 77.7967 272.651 77.73 272.671 77.63C272.697 77.5233 272.744 77.4167 272.811 77.31C272.877 77.2033 272.971 77.11 273.091 77.03C273.211 76.9433 273.364 76.9 273.551 76.9C273.691 76.9 273.811 76.9233 273.911 76.97C274.017 77.01 274.117 77.0567 274.211 77.11C274.304 77.1633 274.397 77.2133 274.491 77.26C274.591 77.3 274.704 77.32 274.831 77.32C274.957 77.32 275.057 77.2967 275.131 77.25C275.211 77.2033 275.271 77.15 275.311 77.09C275.351 77.03 275.374 76.9767 275.381 76.93C275.394 76.8767 275.401 76.8433 275.401 76.83H275.821C275.821 76.8633 275.807 76.93 275.781 77.03C275.754 77.13 275.704 77.2333 275.631 77.34C275.564 77.4467 275.464 77.5433 275.331 77.63C275.204 77.71 275.041 77.75 274.841 77.75ZM283.085 86.05C282.592 86.05 282.138 85.95 281.725 85.75C281.318 85.5433 280.968 85.2733 280.675 84.94C280.382 84.6 280.155 84.2133 279.995 83.78C279.835 83.3467 279.755 82.9033 279.755 82.45C279.755 81.9767 279.838 81.5233 280.005 81.09C280.178 80.6567 280.415 80.2733 280.715 79.94C281.015 79.6067 281.368 79.3433 281.775 79.15C282.182 78.95 282.622 78.85 283.095 78.85C283.588 78.85 284.038 78.9567 284.445 79.17C284.858 79.3767 285.208 79.65 285.495 79.99C285.788 80.33 286.015 80.7167 286.175 81.15C286.335 81.5767 286.415 82.0133 286.415 82.46C286.415 82.9333 286.328 83.3867 286.155 83.82C285.988 84.2533 285.755 84.6367 285.455 84.97C285.162 85.2967 284.812 85.56 284.405 85.76C283.998 85.9533 283.558 86.05 283.085 86.05ZM280.455 82.45C280.455 82.8367 280.518 83.21 280.645 83.57C280.772 83.9233 280.952 84.24 281.185 84.52C281.418 84.7933 281.695 85.0133 282.015 85.18C282.335 85.34 282.692 85.42 283.085 85.42C283.485 85.42 283.848 85.3333 284.175 85.16C284.502 84.9867 284.778 84.76 285.005 84.48C285.232 84.2 285.405 83.8833 285.525 83.53C285.652 83.1767 285.715 82.8167 285.715 82.45C285.715 82.0633 285.648 81.6933 285.515 81.34C285.388 80.98 285.208 80.6633 284.975 80.39C284.742 80.1167 284.465 79.9 284.145 79.74C283.825 79.5733 283.472 79.49 283.085 79.49C282.685 79.49 282.322 79.5767 281.995 79.75C281.668 79.9167 281.392 80.14 281.165 80.42C280.938 80.7 280.762 81.0167 280.635 81.37C280.515 81.7233 280.455 82.0833 280.455 82.45Z" fill="white"/>
</svg>
