<svg width="84" height="92" viewBox="0 0 84 92" fill="none" xmlns="http://www.w3.org/2000/svg">
<g clip-path="url(#clip0_38_6)">
<path d="M51.4531 0C51.2723 0 15.5981 0 15.4113 0.0150721C6.90255 0.301442 -0.000283294 7.4637 -0.000283294 16.0578V16.0879C-0.000283294 75.6317 -0.0484916 76.12 0.123251 76.5993C0.463722 85.1121 7.45996 92 16.0561 92C20.2981 91.9824 24.3598 90.2817 27.3498 87.2712C30.3398 84.2606 32.0136 80.1862 32.004 75.9422V65.5575H51.4531C69.3986 65.5575 83.9937 50.8532 83.9937 32.7788C83.9937 14.7043 69.3986 0 51.4531 0ZM51.3386 30.325C52.0168 30.3282 52.666 30.6004 53.1439 31.0819C53.6217 31.5634 53.8892 32.2148 53.8876 32.8933C53.8876 34.0629 53.053 35.4616 51.0252 35.4616H33.9203V30.316L51.3386 30.325ZM51.4531 61.7473C42.1127 61.7473 22.9288 61.5966 16.2369 62.1573C11.0937 62.5883 6.24872 64.5145 3.79311 68.3308V47.884C4.85369 39.7451 13.0702 39.2507 18.6955 39.2507L50.8384 39.2206C56.6897 38.8136 60.8688 35.7721 63.24 31.4193C68.0367 22.6111 65.5118 10.5716 55.9696 4.17195C69.6909 6.36042 80.2184 18.3548 80.2184 32.7788C80.2184 48.7522 67.3136 61.7473 51.4531 61.7473Z" fill="#3E56DD"/>
</g>
<defs>
<clipPath id="clip0_38_6">
<rect width="84" height="92" fill="white"/>
</clipPath>
</defs>
</svg>
